<svg width="244" height="151" viewBox="0 0 244 151" fill="none" xmlns="http://www.w3.org/2000/svg">
<path fill-rule="evenodd" clip-rule="evenodd" d="M36.9035 118.678H78.8919V122.306H38.2685L48.4644 150.106H44.6329L18.2412 79.6782L21.76 78.4359L36.9035 118.678Z" fill="black"/>
<path fill-rule="evenodd" clip-rule="evenodd" d="M6.15363 145.998C6.15363 145.998 6.67124 122.457 7.06753 104.434C7.32114 92.8917 16.7096 83.4851 28.6125 82.8479C54.914 81.426 80.8795 81.0645 106.31 82.3881C118.661 83.0332 128.861 91.9651 130.762 103.803C130.769 103.801 130.769 103.801 130.769 103.801C131.809 110.276 129.993 116.875 125.762 121.989C120.393 128.453 111.329 137.459 97.2935 146.05C97.2935 146.05 102.484 147.503 103.014 149.749C103.014 149.749 63.5233 149.704 53.4591 149.694C53.0883 149.693 52.7559 149.472 52.622 149.137C52.488 148.803 52.58 148.422 52.8536 148.18C59.9235 141.922 86.5481 118.355 86.5481 118.355L41.6386 118.796C41.6386 118.796 40.9172 143.11 40.7477 148.822C40.7281 149.483 40.1659 150.01 39.4823 150.005C32.7327 149.959 0.501099 149.745 0.501099 149.745C0.501099 149.745 0.278914 147.463 6.15363 145.998Z" fill="url(#paint0_linear_28_223)"/>
<path fill-rule="evenodd" clip-rule="evenodd" d="M107.831 138.885L73.4531 129.946L74.4873 129.03L108.988 138.001C108.607 138.294 108.222 138.59 107.831 138.885ZM41.3492 128.558L6.51953 129.373L6.54469 128.228L41.3833 127.413L41.3492 128.558Z" fill="#82B5B2"/>
<path fill-rule="evenodd" clip-rule="evenodd" d="M86.4901 118.405L98.7097 118.377C98.8266 118.377 98.9258 118.46 98.9435 118.572C98.9613 118.684 98.8928 118.792 98.7805 118.826L79.3751 124.703L86.4901 118.405ZM41.6374 118.83L41.4792 124.163L31.1721 119.67C30.9724 119.583 30.8628 119.373 30.9089 119.166C30.9551 118.957 31.1445 118.81 31.3634 118.811L41.6374 118.83Z" fill="#346864"/>
<path fill-rule="evenodd" clip-rule="evenodd" d="M101.343 33.2613C101.343 33.2613 89.475 17.7433 62.7785 24.5206C59.1834 25.4334 30.7079 34.1857 19.4747 58.7762C18.3763 61.1808 12.454 72.1132 21.0397 77.9576C27.0301 82.0369 33.4535 81.2807 55.961 73.9858C57.8655 73.3681 69.5975 70.9682 67.4765 68.3442C67.4765 68.3442 68.4231 68.5297 68.8777 67.9197C68.8777 67.9197 68.9296 68.234 68.9681 68.4664C68.9944 68.6251 69.0719 68.7718 69.1895 68.8853C69.7275 69.4047 71.3435 70.9647 72.3601 71.9462C72.5349 72.1144 72.7903 72.1784 73.0275 72.1121C73.2647 72.0469 73.4463 71.8616 73.5021 71.6282C73.8022 70.3767 74.2394 68.5536 74.2394 68.5536C74.2394 68.5536 84.9168 70.7977 91.352 60.7212C91.352 60.7212 91.6201 70.6742 99.5755 74.6917C101.899 75.8653 114.8 78.358 118.185 65.4726C120.553 56.4597 122.282 40.3554 123.795 28.7845C123.795 28.7845 131.701 23.9783 132.298 21.6762C132.513 20.8494 131.646 19.4913 129.714 20.8647C129.714 20.8647 132.6 18.4884 131.637 17.3686C131.101 16.7458 130.003 16.7132 127.83 18.5154C127.83 18.5154 130.537 15.8302 129.301 14.7555C127.97 13.6014 126.427 15.9752 125.012 17.253C125.012 17.253 128.161 12.5702 126.379 11.7615C125.625 11.4189 124.81 11.3758 122.061 14.728C119.515 17.8323 115.906 18.1526 113.289 17.8481C113.289 17.8481 114.319 11.9992 113.139 11.4325C111.807 10.7922 110.606 11.937 107.71 17.6885C104.852 23.3644 103.426 28.9883 101.343 33.2613Z" fill="url(#paint1_linear_28_223)"/>
<path fill-rule="evenodd" clip-rule="evenodd" d="M69.9292 23.1675C90.5735 20.6548 100.388 32.0841 101.276 33.178C99.9298 37.8299 97.6205 47.7679 97.6205 47.7679L95.1908 47.735C95.2298 53.5419 91.3637 60.4822 91.3637 60.4822L91.3484 60.7264C85.2297 70.3014 75.1431 68.7135 74.1905 68.5764L74.5018 67.0621L73.6931 64.8652L73.4417 64.2428C73.4417 64.2428 74.5573 62.7947 75.5457 61.5116C76.3797 60.429 76.1849 58.9022 75.1038 58.0487C72.942 56.3419 69.7404 53.8143 69.7404 53.8143C69.7217 53.8005 69.7031 53.7866 69.6847 53.773C67.1128 51.8673 63.8628 51.0326 60.6538 51.4536C53.8532 52.3455 40.1799 54.1392 40.1799 54.1392L31.9248 41.7785C41.5556 32.7804 52.8524 27.8771 58.8683 25.7497L69.9292 23.1675Z" fill="#82B5B2"/>
<path fill-rule="evenodd" clip-rule="evenodd" d="M68.881 67.9426C69.1114 67.6714 69.8726 66.6476 69.1899 65.6593L68.229 64.5342C68.229 64.5342 69.5769 64.7225 70.1246 64.672C70.1246 64.672 70.0494 65.9788 71.1638 66.206C71.4687 66.2672 71.7832 66.1567 71.9767 65.9204C72.5144 65.2662 73.7188 63.7955 73.7188 63.7955C73.7188 63.7955 74.3903 66.6022 74.5117 67.1097C74.524 67.1612 74.5243 67.2148 74.5125 67.2663C74.4019 67.751 73.8155 70.3196 73.8155 70.3196L73.5017 71.6283C73.4459 71.8617 73.2642 72.047 73.0271 72.1122C72.7899 72.1785 72.5345 72.1145 72.3597 71.9463C71.3431 70.9648 69.7271 69.4048 69.1891 68.8854C69.0714 68.7719 68.9939 68.6252 68.9677 68.4664L68.881 67.9426ZM64.1217 51.4531C64.1217 51.4531 68.3991 52.0599 71.1439 55.0071L69.2529 46.1691L62.9868 46.2042L64.1217 51.4531Z" fill="#FFBF2F"/>
<path fill-rule="evenodd" clip-rule="evenodd" d="M73.8481 70.1766L73.8154 70.3196L73.5015 71.6283C73.4458 71.8617 73.2641 72.047 73.0269 72.1122C72.7897 72.1785 72.5344 72.1145 72.3595 71.9463L70.9213 70.5576L73.8481 70.1766ZM69.6018 64.672C69.8034 64.6823 69.9885 64.6846 70.1245 64.672C70.1245 64.672 70.0492 65.9789 71.1637 66.206C71.2848 66.2303 71.4073 66.2276 71.5232 66.2006L71.6966 66.9815L74.3051 66.2465L74.5116 67.1098C74.518 67.1364 74.521 67.1635 74.521 67.1906L69.0752 68.7465C69.0209 68.6615 68.9841 68.5663 68.9676 68.4665L68.8809 67.9427C68.9222 67.894 68.9806 67.8213 69.0446 67.7287L70.2103 67.4003L69.6018 64.672ZM66.8215 52.2073L65.4795 46.1903L67.0778 46.1814L68.6012 53.0417C67.9901 52.6979 67.3828 52.424 66.8215 52.2073Z" fill="black"/>
<path fill-rule="evenodd" clip-rule="evenodd" d="M67.705 69.1992L64.1119 68.921C63.8519 68.9009 63.6577 68.6802 63.6785 68.4284C63.6993 68.1768 63.9271 67.9887 64.1871 68.0088L68.2345 68.3221C67.8461 68.4168 67.4762 68.3442 67.4762 68.3442C67.7093 68.6326 67.7751 68.9184 67.705 69.1992ZM69.3325 64.8842C69.3656 64.8602 69.4027 64.84 69.4431 64.8247C69.4431 64.8247 69.8957 64.6528 70.378 64.4695C70.9461 64.2538 71.3679 63.7809 71.5056 63.2052C71.5056 63.2051 71.5056 63.2051 71.5056 63.205C71.7866 62.031 71.2807 60.8119 70.2388 60.1529C69.0553 59.4042 67.7887 58.6028 67.7887 58.6028C67.5704 58.4648 67.5089 58.181 67.6516 57.9696C67.7941 57.7582 68.0872 57.6986 68.3055 57.8367L70.662 59.3274L70.7251 58.8086C70.7555 58.5578 70.9906 58.3782 71.2495 58.4077C71.5086 58.4372 71.694 58.6648 71.6635 58.9156L71.5282 60.0284C72.3649 60.9319 72.7186 62.1902 72.4262 63.4116C72.4262 63.4117 72.4262 63.4117 72.4261 63.4118C72.2181 64.2812 71.5811 64.9956 70.7231 65.3215C70.2408 65.5047 69.7881 65.6766 69.7881 65.6766C69.6198 65.7405 69.4364 65.7044 69.3079 65.5979C69.1884 65.6843 69.0289 65.7147 68.8767 65.6661L64.8453 64.378C64.5976 64.2988 64.4629 64.04 64.5447 63.8001C64.6263 63.5603 64.8937 63.4298 65.1413 63.5089L69.1729 64.797C69.2333 64.8164 69.2871 64.8463 69.3325 64.8842ZM97.7868 42.7556C97.7868 42.7556 94.3448 56.7331 93.59 62.9756C93.5593 63.2264 93.7447 63.4539 94.0046 63.4833C94.2633 63.5127 94.4983 63.3329 94.5279 63.0821C95.2803 56.8722 98.707 42.968 98.707 42.968C98.7672 42.7224 98.6101 42.4753 98.3562 42.4167C98.1034 42.3582 97.8482 42.51 97.7868 42.7556ZM42.7212 52.3077C34.5268 54.0865 29.52 55.5975 27.0865 56.9095C26.8017 57.063 26.6992 57.4115 26.8579 57.6874C27.0164 57.9633 27.3763 58.0624 27.6611 57.9089C30.0443 56.6242 34.9544 55.166 42.9796 53.4239C43.2976 53.3549 43.4981 53.0487 43.4267 52.7407C43.3554 52.4327 43.0393 52.2387 42.7212 52.3077ZM123.941 28.6939C123.845 28.7531 123.795 28.7846 123.795 28.7846C123.685 29.6223 123.574 30.4838 123.463 31.3644L121.039 30.747C120.947 30.7234 120.878 30.648 120.866 30.5562C120.853 30.4644 120.899 30.3744 120.982 30.3285L123.941 28.6939ZM131.79 17.6366C132.188 18.8272 129.714 20.8648 129.714 20.8648C129.784 20.8143 129.854 20.7677 129.921 20.7245C128.196 22.2567 125.865 24.0747 123.615 25.0338C123.376 25.1357 123.098 25.0306 122.993 24.7995C122.887 24.5684 122.996 24.2981 123.235 24.1964C127.023 22.5814 131.04 18.4333 131.79 17.6366ZM129.623 15.5177C129.601 16.7579 127.83 18.5155 127.83 18.5155C127.96 18.4068 128.087 18.3048 128.211 18.2092C126.472 19.8284 123.954 21.9682 121.742 23.0562C121.509 23.1706 121.224 23.0806 121.106 22.8555C120.988 22.6302 121.081 22.3546 121.314 22.2402C124.882 20.4852 129.264 15.8982 129.623 15.5177ZM126.737 13.8275C126.256 15.4026 125.011 17.253 125.011 17.253C125.05 17.2183 125.089 17.1827 125.127 17.1465C123.686 18.6071 121.74 20.2061 119.552 21.0102C119.307 21.0996 119.034 20.9807 118.942 20.7445C118.85 20.5084 118.973 20.244 119.216 20.1544C122.995 18.7667 125.993 14.8617 126.737 13.8275Z" fill="#82B5B2"/>
<path fill-rule="evenodd" clip-rule="evenodd" d="M54.668 52.2386L58.3211 48.4828C58.4855 48.3138 58.7404 48.2603 58.9622 48.3483C59.1842 48.4363 59.3271 48.6476 59.3218 48.8798L59.2592 51.6365L54.668 52.2386ZM95.1823 48.3006C95.1717 47.8019 95.0985 44.8502 94.7843 42.8247C94.7607 42.729 94.815 42.6313 94.9107 42.597C95.0052 42.5626 95.1126 42.6026 95.1587 42.6901C95.8414 43.9494 96.8785 45.9915 97.4727 47.7659L95.1906 47.735C95.1918 47.9225 95.1883 48.1112 95.1823 48.3006Z" fill="#346864"/>
<path d="M69.0407 19.7891C74.1325 19.7891 78.2602 15.7783 78.2602 10.8307C78.2602 5.88312 74.1325 1.87231 69.0407 1.87231C63.949 1.87231 59.8213 5.88312 59.8213 10.8307C59.8213 15.7783 63.949 19.7891 69.0407 19.7891Z" fill="#99C3C0"/>
<path fill-rule="evenodd" clip-rule="evenodd" d="M62.9116 17.5203C61.0157 15.8786 59.8213 13.4891 59.8213 10.8306C59.8213 5.88634 63.9524 1.87231 69.0407 1.87231C72.1573 1.87231 74.9148 3.37817 76.5841 5.68169L69.0337 12.2193C68.9433 11.9617 68.8051 11.7105 68.6184 11.4794C67.8296 10.5029 66.4723 10.253 65.5893 10.9219C64.7064 11.5907 64.63 12.9266 65.4188 13.9032C65.6639 14.2067 65.9638 14.4399 66.2874 14.5973L62.9116 17.5203Z" fill="black"/>
<path d="M171.616 26.3435H164.633L167.666 36.2533H174.649L171.616 26.3435Z" fill="white"/>
<path fill-rule="evenodd" clip-rule="evenodd" d="M167.83 36.0272H170.03C170.156 36.0272 170.261 36.1284 170.262 36.2532C170.263 36.378 170.16 36.4792 170.033 36.4792H167.66C167.558 36.4792 167.467 36.4128 167.438 36.3162L164.41 26.4065C164.389 26.3382 164.402 26.2646 164.445 26.2078C164.488 26.1509 164.556 26.1174 164.629 26.1174H169.517C169.645 26.1174 169.749 26.2187 169.75 26.3435C169.751 26.4682 169.649 26.5695 169.521 26.5695H164.94L167.83 36.0272Z" fill="black"/>
<path fill-rule="evenodd" clip-rule="evenodd" d="M171.452 26.5695H169.546C169.419 26.5695 169.315 26.4682 169.314 26.3435C169.313 26.2187 169.415 26.1174 169.542 26.1174H171.622C171.724 26.1174 171.815 26.1838 171.844 26.2804L174.871 36.1903C174.892 36.2586 174.879 36.3322 174.836 36.3891C174.792 36.4459 174.725 36.4794 174.653 36.4794H170.058C169.93 36.4794 169.826 36.3781 169.825 36.2533C169.824 36.1285 169.927 36.0273 170.054 36.0273H174.341L171.452 26.5695Z" fill="black"/>
<path d="M171.365 27.2339H165.543L165.945 28.3296H171.767L171.365 27.2339Z" fill="black"/>
<path d="M171.937 29.0336H166.115L166.517 30.1292H172.339L171.937 29.0336Z" fill="black"/>
<path d="M172.509 30.8331H166.687L167.089 31.9289H172.911L172.509 30.8331Z" fill="black"/>
<path d="M173.081 32.6327H167.259L167.66 33.7284H173.482L173.081 32.6327Z" fill="black"/>
<path d="M173.654 34.4323H167.832L168.233 35.528H174.055L173.654 34.4323Z" fill="black"/>
<path fill-rule="evenodd" clip-rule="evenodd" d="M173.299 32.0342C173.069 31.4052 171.694 27.4694 172.756 25.7982C172.828 25.6894 172.943 25.6139 173.073 25.5898C173.451 25.5305 174.256 25.6849 175.396 27.4646C175.396 27.4646 185.746 42.5182 189.482 44.7673C189.482 44.7673 189.581 33.2726 203.556 31.3932C205.496 31.1323 219.129 28.566 226.77 46.8855C229.298 52.9464 229.27 57.7925 229.225 62.9724C229.195 67.0786 226.995 70.8835 223.393 73.0513C218.674 75.8928 212.823 76.3367 207.704 74.2399C204.271 72.8385 199.839 71.4143 194.808 70.6971L183.764 69.663C183.764 69.663 184.315 72.5857 179.743 72.0229C179.743 72.0229 176.143 71.5631 176.862 69.2245C176.862 69.2245 174.436 68.8445 174.937 66.5733C174.937 66.5733 172.637 64.8355 174.679 62.7139C174.679 62.7139 168.04 62.6366 166.689 59.5744C166.576 59.3095 166.569 59.0124 166.672 58.743C166.796 58.41 167.117 58.0554 167.9 58.0294C167.9 58.0294 177.085 57.8927 179.502 57.2225L174.251 48.5719C174.251 48.5719 170.162 46.3951 169.22 42.9154C168.249 42.9197 167.424 42.1945 167.35 41.2419C167.286 40.4271 167.791 39.6968 168.54 39.4171L168.11 39.4486C167.095 39.5227 166.209 38.7846 166.132 37.8014C166.07 37.0079 166.555 36.2957 167.278 36.0114C166.297 36.0552 165.453 35.3352 165.378 34.3817C165.303 33.4109 166.055 32.5632 167.057 32.49L173.299 32.0342Z" fill="url(#paint2_linear_28_223)"/>
<path fill-rule="evenodd" clip-rule="evenodd" d="M183.613 70.7897C181.451 70.6696 179.716 71.1718 179.716 71.1718C179.403 71.2633 179.074 71.0905 178.98 70.7885C178.887 70.4866 179.064 70.1674 179.377 70.0759C179.377 70.0759 181.901 69.3429 184.766 69.7567L183.764 69.6629C183.764 69.6629 183.868 70.2132 183.613 70.7897ZM175.751 68.7768C176.164 67.5628 177.571 64.8848 182.041 64.2243C182.362 64.1767 182.664 64.3915 182.713 64.7035C182.763 65.0156 182.54 65.3076 182.218 65.3552C178.276 65.9377 177.138 68.3365 176.847 69.2219C176.755 69.2053 176.234 69.1007 175.751 68.7768ZM174.084 65.5257C174.662 64.3325 176.236 62.3938 180.467 61.6306C180.788 61.5728 181.097 61.7778 181.156 62.0881C181.216 62.3985 181.004 62.6974 180.684 62.7552C175.405 63.7074 174.92 66.6455 174.937 66.5733C174.937 66.5733 174.409 66.1744 174.084 65.5257ZM173.214 62.6149C173.905 61.7475 176.092 59.3336 179.32 58.8856C179.643 58.8408 179.943 59.0581 179.989 59.3706C180.035 59.6831 179.811 59.9731 179.488 60.018C177.216 60.3332 175.55 61.7757 174.671 62.7186C174.561 62.7165 173.992 62.6972 173.214 62.6149ZM207.567 56.8255L214.778 59.2805C215.085 59.3852 215.423 59.2284 215.532 58.9306C215.639 58.6328 215.477 58.306 215.17 58.2013L207.959 55.7462C207.65 55.6415 207.314 55.7984 207.205 56.0961C207.098 56.394 207.26 56.7207 207.567 56.8255ZM178.887 56.2072C179.644 56.0623 187.978 54.4952 194.056 54.5585C194.382 54.5619 194.644 54.8209 194.641 55.1366C194.637 55.4522 194.369 55.7057 194.043 55.7024C187.773 55.6371 179.341 57.2675 179.502 57.2224L178.887 56.2072ZM174.252 48.5719L176.079 49.368C176.317 49.4745 176.418 49.7468 176.31 49.9759C176.199 50.2049 175.917 50.3044 175.681 50.1979L175.073 49.9237L174.252 48.5719ZM172.99 31.1035C174.059 31.2721 174.82 31.825 175.096 32.2622C175.714 33.2381 175.47 34.1959 174.879 34.8781C174.917 35.0599 174.982 35.3373 175.08 35.6752C175.223 35.7726 175.343 35.8739 175.444 35.9751C175.991 36.5253 176.026 37.1092 176.037 37.2893C176.049 37.5064 176.028 37.7083 175.981 37.8957C176.496 38.8344 177.221 39.7602 178.246 40.2929C178.475 40.4124 178.561 40.69 178.438 40.9125C178.315 41.135 178.028 41.2186 177.798 41.0992C177.364 40.8734 176.975 40.5887 176.624 40.265C176.625 40.2694 176.626 40.2736 176.627 40.278C177.011 41.4398 176.396 42.6942 175.219 43.1381C173.429 43.8187 170.92 43.8638 169.548 43.8275C169.416 43.5345 169.305 43.2303 169.22 42.9154C169.1 42.916 172.809 43.0712 174.874 42.2858C175.595 42.014 175.967 41.2416 175.72 40.5323C175.717 40.5244 175.714 40.5164 175.712 40.5083C175.535 40.0365 175.05 39.7384 174.533 39.7857L173.56 39.8748C173.373 39.9285 173.255 39.9519 173.255 39.9519C173.161 39.9707 173.066 39.9605 172.983 39.9276L167.479 40.4314C167.671 39.9702 168.054 39.5988 168.541 39.4171L173.386 38.9716C173.673 38.8836 174.107 38.7199 174.476 38.4513C174.824 38.1986 175.122 37.845 175.093 37.3398C175.087 37.2398 175.067 36.9157 174.763 36.6101C174.388 36.2334 173.651 35.916 172.242 35.8845C172.204 35.8837 172.167 35.8785 172.133 35.8696C170.483 35.9224 168.791 35.947 167.109 36.0113C166.491 35.9838 165.945 35.6543 165.636 35.1631C168.08 35.0287 170.575 35.0192 172.959 34.9244C173.295 34.911 173.663 34.7428 173.957 34.4881C173.997 34.419 174.056 34.3604 174.128 34.3196C174.494 33.9102 174.65 33.3405 174.291 32.7401C173.958 32.184 173.3 32.0342 173.3 32.0342C173.246 31.885 173.126 31.55 172.99 31.1035ZM175.978 39.9664C175.818 40.0316 175.793 40.0996 175.782 40.1217C175.806 40.087 175.837 40.0555 175.871 40.0285C175.903 40.0039 175.939 39.9829 175.978 39.9665L175.986 39.9633L175.978 39.9664ZM175.447 38.8329C175.402 38.8806 175.354 38.9267 175.306 38.9711C175.418 39.0078 175.526 39.0536 175.63 39.1078C175.567 39.017 175.506 38.9253 175.447 38.8329Z" fill="#FD9500"/>
<path fill-rule="evenodd" clip-rule="evenodd" d="M189.443 44.7438L189.482 44.7673C189.482 44.7673 189.582 33.2727 203.556 31.3933C205.496 31.1324 219.129 28.5661 226.771 46.8856C226.798 46.9493 226.824 47.0128 226.85 47.076C222.321 51.6924 217.342 48.2129 217.342 48.2129C214.908 55.4202 207.124 52.3236 207.124 52.3236L209.642 57.5308C203.761 55.439 192.321 55.7426 192.321 55.7426C189.949 52.848 189.499 47.635 189.443 44.7438Z" fill="#FD9500"/>
<path fill-rule="evenodd" clip-rule="evenodd" d="M206.888 56.7617C206.888 56.7617 205.369 52.0135 204.275 48.5986C204.227 48.4455 204.307 48.2816 204.46 48.2211C204.613 48.1607 204.789 48.2238 204.865 48.3665C206.801 52.0325 209.719 57.5569 209.719 57.5569L206.888 56.7617Z" fill="#E86135"/>
<path fill-rule="evenodd" clip-rule="evenodd" d="M163.7 87.5027C174.665 74.6221 197.371 79.4003 202.37 80.0386C234.722 84.1693 227.546 108.237 226.377 111.31C223.809 118.056 217.626 120.665 208.4 121.572V147.754C208.4 147.754 205.584 145.318 204.937 142.552C204.937 142.552 203.826 142.486 201.906 142.299C201.906 142.299 203.367 146.14 204.136 148.162C204.242 148.439 204.201 148.748 204.026 148.989C203.852 149.232 203.568 149.376 203.263 149.376H166.525C168.526 145.839 172.465 145.868 172.465 145.868C170.926 142.135 169.339 138.504 167.776 134.797C157.714 130.905 148.842 125.126 146.136 116.593C145.086 113.282 144.466 98.7167 163.7 87.5027Z" fill="url(#paint3_linear_28_223)"/>
<path fill-rule="evenodd" clip-rule="evenodd" d="M168.874 137.382C172.532 139.17 178.864 140.828 183.061 134.007C183.15 133.862 183.3 133.764 183.471 133.735C183.642 133.707 183.817 133.754 183.95 133.863C183.95 133.863 186.575 136.012 189.803 137.074C191.665 137.686 193.734 137.945 195.594 137.132C196.824 136.594 197.954 135.584 198.876 133.921C199.03 133.643 199.388 133.538 199.676 133.688C199.963 133.838 200.07 134.184 199.916 134.462C198.844 136.395 197.511 137.549 196.079 138.175C193.942 139.109 191.562 138.861 189.423 138.157C186.882 137.321 184.692 135.853 183.721 135.143C179.501 141.429 173.524 140.54 169.524 138.907L169.246 138.256C169.148 138.026 169.05 137.796 168.951 137.566L168.874 137.382Z" fill="#FD9500"/>
<path fill-rule="evenodd" clip-rule="evenodd" d="M195.395 121.81C195.395 121.81 185.366 121.77 179.848 121.749C179.622 121.748 179.43 121.91 179.4 122.127C179.372 122.345 179.513 122.549 179.732 122.604C185.515 124.073 196.592 126.887 196.592 126.887L195.395 121.81Z" fill="#FD9500"/>
<path fill-rule="evenodd" clip-rule="evenodd" d="M209.123 121.497C208.883 121.523 208.643 121.549 208.4 121.573V122.689C203.996 122.957 199.916 123.023 195.938 122.971L203.167 142.415C202.798 142.383 202.376 142.345 201.905 142.3L202.959 145.07C202.899 145.012 202.849 144.94 202.819 144.856L194.675 122.951C193.931 122.936 193.191 122.918 192.45 122.896C192.125 122.887 191.869 122.623 191.878 122.308C191.888 121.992 192.161 121.744 192.485 121.753C197.784 121.908 203.146 121.889 209.123 121.497ZM166.667 84.6395C159.935 90.453 157.28 96.7973 159.136 107.85C160.4 115.377 163.734 125.05 169.269 138.147C169.305 138.233 169.318 138.323 169.311 138.41C168.799 137.21 168.286 136.008 167.776 134.798C167.304 134.616 166.837 134.429 166.371 134.238C161.865 123.202 159.101 114.765 157.971 108.034C156.587 99.8047 157.619 94.0793 160.868 89.2702C161.76 88.673 162.702 88.0839 163.699 87.5028C164.613 86.4298 165.607 85.4792 166.667 84.6395Z" fill="#FD9500"/>
<path d="M192.866 30.7611C197.652 30.7611 201.532 26.9761 201.532 22.3071C201.532 17.638 197.652 13.853 192.866 13.853C188.08 13.853 184.201 17.638 184.201 22.3071C184.201 26.9761 188.08 30.7611 192.866 30.7611Z" fill="#FFBF2F"/>
<path fill-rule="evenodd" clip-rule="evenodd" d="M186.139 16.9806C187.729 15.0727 190.153 13.8527 192.867 13.8527C197.65 13.8527 201.532 17.6407 201.532 22.3067C201.532 23.2604 201.371 24.1774 201.072 25.0323C199.543 24.9027 198.675 23.8005 198.376 23.3396C198.935 23.0609 199.324 22.4466 199.324 21.7344C199.324 20.7605 198.597 19.9697 197.702 19.9697C196.806 19.9697 196.08 20.7605 196.08 21.7344C196.08 21.9646 196.12 22.1847 196.195 22.3864C190.704 22.9592 187.213 18.5696 186.139 16.9806ZM190.075 12.5071C190.299 12.5803 190.546 12.4966 190.675 12.3039C190.802 12.1112 190.78 11.8587 190.618 11.6909C190.572 11.6359 190.52 11.5824 190.466 11.5272C189.1 10.1482 187.562 8.89677 185.924 7.83818C180.885 4.5813 174.881 2.14519 168.978 0.852549C162.881 -0.482645 155.271 -0.557798 149.883 2.89767C146.338 5.17077 143.688 9.98053 146.743 13.7365C147.84 15.0837 149.414 16.02 151.042 16.6506C157.631 19.2029 164.501 17.5927 170.76 15.0369C174.323 13.5817 177.867 11.6527 181.748 11.0541C184.185 10.6783 187.945 11.7767 190.075 12.5071Z" fill="black"/>
<path fill-rule="evenodd" clip-rule="evenodd" d="M223.492 121.86L239.981 78.7487L243.5 79.991L217.317 149.567H212.896L222.106 125.486H195.874V121.86H223.492Z" fill="black"/>
<path d="M160.04 33.856H110.64L116.673 67.5692H166.074L160.04 33.856Z" fill="black"/>
<path d="M147.459 65.8893H136.437L138.092 75.1438H149.114L147.459 65.8893Z" fill="black"/>
<path d="M157.358 36.4261H114.139L119.126 64.2967H162.345L157.358 36.4261Z" fill="#EAEAEB"/>
<path d="M156.061 38.8884H141.389L143.603 51.2682H158.275L156.061 38.8884Z" fill="white"/>
<path fill-rule="evenodd" clip-rule="evenodd" d="M141.809 39.2316L142.577 43.514C142.61 43.7007 142.481 43.8779 142.289 43.9094C142.097 43.9409 141.913 43.8148 141.88 43.628L141.04 38.9455C141.023 38.8459 141.051 38.744 141.118 38.6669C141.184 38.5897 141.283 38.5453 141.387 38.5453H156.092C156.265 38.5453 156.413 38.6662 156.443 38.8315L157.282 43.514C157.315 43.7007 157.186 43.8779 156.994 43.9094C156.802 43.9409 156.619 43.8148 156.585 43.628L155.797 39.2316H141.809Z" fill="black"/>
<path fill-rule="evenodd" clip-rule="evenodd" d="M157.854 50.9252L156.547 43.628C156.514 43.4413 156.643 43.2641 156.835 43.2326C157.027 43.2011 157.21 43.3272 157.244 43.514L158.622 51.2114C158.639 51.3109 158.611 51.4129 158.544 51.49C158.478 51.5671 158.379 51.6114 158.275 51.6114H143.583C143.411 51.6114 143.263 51.4906 143.233 51.3254L141.855 43.628C141.822 43.4413 141.951 43.2641 142.143 43.2326C142.335 43.2011 142.518 43.3272 142.552 43.514L143.878 50.9252H157.854Z" fill="black"/>
<path fill-rule="evenodd" clip-rule="evenodd" d="M148.878 51.2683H148.16L145.992 38.8884H146.712L148.878 51.2683ZM154.119 51.2683H153.4L151.233 38.8884H151.951L154.119 51.2683Z" fill="black"/>
<path fill-rule="evenodd" clip-rule="evenodd" d="M157.778 48.4196H143.046L142.927 47.7332H157.659L157.778 48.4196ZM157.248 45.3682H142.516L142.396 44.6818H157.128L157.248 45.3682ZM156.677 42.0867H141.945L141.825 41.4004H156.558L156.677 42.0867Z" fill="black"/>
<path fill-rule="evenodd" clip-rule="evenodd" d="M137.732 61.8375H149.409L146.061 43.0568H137.628" fill="white"/>
<path fill-rule="evenodd" clip-rule="evenodd" d="M145.765 43.3999H137.63C137.435 43.3999 137.277 43.2461 137.276 43.0567C137.275 42.8673 137.432 42.7135 137.626 42.7135H146.059C146.231 42.7135 146.378 42.8345 146.408 42.9996L149.757 61.7804C149.775 61.88 149.747 61.9819 149.681 62.059C149.614 62.1361 149.516 62.1805 149.412 62.1805H137.734C137.54 62.1805 137.382 62.0268 137.38 61.8374C137.379 61.6479 137.536 61.4942 137.73 61.4942H148.992L145.765 43.3999Z" fill="black"/>
<path fill-rule="evenodd" clip-rule="evenodd" d="M137.565 43.0568H120.615L123.969 61.8374H137.669" fill="white"/>
<path fill-rule="evenodd" clip-rule="evenodd" d="M124.266 61.4942H137.667C137.861 61.4942 138.02 61.6479 138.022 61.8374C138.022 62.0268 137.866 62.1805 137.671 62.1805H123.972C123.8 62.1805 123.652 62.0596 123.622 61.8944L120.267 43.1137C120.25 43.0141 120.278 42.9122 120.344 42.8351C120.411 42.758 120.509 42.7135 120.613 42.7135H137.562C137.757 42.7135 137.916 42.8673 137.917 43.0567C137.918 43.2461 137.761 43.3999 137.566 43.3999H121.033L124.266 61.4942Z" fill="black"/>
<path d="M146.13 43.0568H120.615L121.02 45.3115H146.534L146.13 43.0568Z" fill="black"/>
<path fill-rule="evenodd" clip-rule="evenodd" d="M148.489 56.5531H122.962L122.843 55.8667H148.37L148.489 56.5531ZM147.437 50.5047H121.911L121.791 49.8184H147.318L147.437 50.5047Z" fill="black"/>
<path fill-rule="evenodd" clip-rule="evenodd" d="M130.424 61.8374H129.706L126.418 43.0568H127.137L130.424 61.8374ZM137.38 61.8374H136.661L133.373 43.0568H134.093L137.38 61.8374ZM144.249 61.8374H143.531L140.243 43.0568H140.961L144.249 61.8374Z" fill="black"/>
<path d="M146.609 53.9373C146.625 54.1249 146.588 54.2988 146.499 54.459C146.406 54.6152 146.268 54.7439 146.077 54.8458C145.886 54.9433 145.654 55.0042 145.382 55.0243C145.055 55.0484 144.783 55.0114 144.561 54.9093C144.407 54.8372 144.273 54.733 144.169 54.6002C144.061 54.4677 144.004 54.3358 143.993 54.2049C143.986 54.1264 144.008 54.0589 144.064 54.0021C144.115 53.9413 144.182 53.9101 144.269 53.9036C144.338 53.8985 144.4 53.9159 144.454 53.9514C144.508 53.9913 144.555 54.0537 144.594 54.1342C144.644 54.2315 144.697 54.311 144.753 54.3727C144.805 54.4348 144.879 54.4864 144.97 54.5236C145.066 54.5604 145.183 54.5737 145.326 54.5632C145.524 54.5486 145.681 54.493 145.799 54.3966C145.916 54.3001 145.967 54.1866 145.956 54.0558C145.947 53.951 145.908 53.8705 145.833 53.8102C145.763 53.7495 145.672 53.708 145.563 53.6809C145.454 53.6538 145.308 53.6294 145.13 53.6031C144.89 53.568 144.687 53.5216 144.52 53.4637C144.353 53.4058 144.221 53.319 144.114 53.2039C144.011 53.0886 143.953 52.9436 143.938 52.7604C143.924 52.5902 143.962 52.4338 144.047 52.2914C144.138 52.153 144.272 52.0377 144.45 51.9543C144.633 51.8662 144.852 51.815 145.105 51.7963C145.308 51.7813 145.485 51.7902 145.636 51.8274C145.788 51.8645 145.918 51.9207 146.021 51.9921C146.124 52.0635 146.2 52.1413 146.254 52.2252C146.307 52.3091 146.337 52.3903 146.344 52.4732C146.35 52.5473 146.328 52.6192 146.277 52.68C146.223 52.7455 146.156 52.7811 146.073 52.7872C145.995 52.793 145.938 52.7796 145.894 52.7478C145.849 52.7116 145.803 52.6579 145.75 52.5784C145.68 52.465 145.599 52.3789 145.51 52.3195C145.422 52.2602 145.285 52.2352 145.096 52.2491C144.926 52.2617 144.79 52.3068 144.691 52.3888C144.59 52.4664 144.542 52.5577 144.551 52.6581C144.556 52.7192 144.579 52.7745 144.619 52.8154C144.66 52.8607 144.709 52.8922 144.777 52.9224C144.844 52.9482 144.91 52.9696 144.977 52.9866C145.043 52.9993 145.151 53.0177 145.301 53.0417C145.489 53.0717 145.663 53.1028 145.819 53.1396C145.971 53.181 146.105 53.2326 146.217 53.2946C146.329 53.3566 146.42 53.4421 146.489 53.5467C146.558 53.6514 146.596 53.7803 146.609 53.9373Z" fill="black"/>
<path fill-rule="evenodd" clip-rule="evenodd" d="M144.66 51.6536L145.165 55.2131C145.192 55.4008 145.37 55.5323 145.563 55.5067C145.757 55.4811 145.892 55.3079 145.866 55.1202L145.361 51.5607C145.335 51.373 145.156 51.2414 144.963 51.267C144.769 51.2927 144.634 51.4659 144.66 51.6536Z" fill="black"/>
<path fill-rule="evenodd" clip-rule="evenodd" d="M123.904 46.4102L124.309 48.6906C124.342 48.8773 124.526 49.0026 124.719 48.9706C124.911 48.9385 125.041 48.7609 125.007 48.5742L124.602 46.2939C124.569 46.1073 124.386 45.9818 124.193 46.0139C124 46.0461 123.871 46.2236 123.904 46.4102Z" fill="black"/>
<path fill-rule="evenodd" clip-rule="evenodd" d="M126.141 58.0647L126.547 60.3451C126.58 60.5317 126.764 60.657 126.956 60.625C127.149 60.5929 127.279 60.4153 127.245 60.2287L126.839 57.9484C126.806 57.7618 126.623 57.6363 126.431 57.6685C126.238 57.7006 126.108 57.8781 126.141 58.0647Z" fill="black"/>
<path fill-rule="evenodd" clip-rule="evenodd" d="M132.059 52.2777C132.166 52.263 132.256 52.3497 132.344 52.4565C132.489 52.6317 132.596 52.8878 132.64 53.1792C132.685 53.4707 132.659 53.7449 132.573 53.952C132.521 54.0778 132.46 54.1854 132.353 54.2002C132.161 54.2266 132.029 54.4004 132.057 54.5881C132.086 54.7758 132.265 54.9069 132.457 54.8805C132.728 54.8432 132.967 54.6766 133.133 54.4008C133.322 54.0832 133.416 53.6029 133.336 53.0834C133.257 52.5639 133.023 52.1287 132.746 51.8752C132.505 51.6554 132.225 51.5602 131.954 51.5975C131.762 51.6239 131.63 51.7977 131.659 51.9855C131.688 52.1732 131.866 52.3042 132.059 52.2777Z" fill="black"/>
<path fill-rule="evenodd" clip-rule="evenodd" d="M132.347 54.2033C132.24 54.2179 132.149 54.1313 132.062 54.0246C131.918 53.8492 131.811 53.5932 131.766 53.3017C131.722 53.0103 131.747 52.736 131.833 52.5292C131.884 52.4032 131.946 52.2955 132.052 52.2809C132.245 52.2545 132.378 52.0806 132.349 51.8929C132.32 51.7051 132.141 51.5743 131.948 51.6007C131.677 51.638 131.439 51.8044 131.273 52.0802C131.083 52.398 130.991 52.878 131.07 53.3975C131.15 53.917 131.382 54.3524 131.66 54.6057C131.901 54.8256 132.18 54.9208 132.451 54.8836C132.643 54.8571 132.776 54.6832 132.747 54.4955C132.719 54.3078 132.539 54.1768 132.347 54.2033Z" fill="black"/>
<path fill-rule="evenodd" clip-rule="evenodd" d="M133.025 58.3004C133.132 58.2856 133.223 58.3724 133.31 58.4792C133.455 58.6544 133.562 58.9104 133.606 59.2018C133.651 59.4933 133.625 59.7676 133.539 59.9747C133.487 60.1005 133.426 60.208 133.319 60.2228C133.127 60.2492 132.995 60.4231 133.024 60.6108C133.052 60.7985 133.231 60.9296 133.423 60.9031C133.694 60.8659 133.934 60.6993 134.099 60.4234C134.289 60.1058 134.382 59.6256 134.303 59.1061C134.223 58.5866 133.989 58.1514 133.713 57.8979C133.471 57.678 133.192 57.5829 132.921 57.6202C132.729 57.6466 132.597 57.8203 132.625 58.0081C132.654 58.1958 132.833 58.3268 133.025 58.3004Z" fill="black"/>
<path fill-rule="evenodd" clip-rule="evenodd" d="M133.313 60.2259C133.206 60.2406 133.115 60.1539 133.027 60.0473C132.884 59.8718 132.777 59.6158 132.732 59.3244C132.687 59.033 132.713 58.7586 132.798 58.5518C132.85 58.4258 132.912 58.3181 133.018 58.3035C133.21 58.2771 133.344 58.1032 133.315 57.9155C133.286 57.7277 133.106 57.5968 132.914 57.6233C132.643 57.6605 132.405 57.827 132.239 58.1028C132.049 58.4206 131.956 58.9006 132.036 59.4201C132.115 59.9396 132.348 60.375 132.626 60.6284C132.867 60.8483 133.146 60.9435 133.417 60.9063C133.609 60.8798 133.742 60.7058 133.713 60.5181C133.684 60.3304 133.505 60.1995 133.313 60.2259Z" fill="black"/>
<path fill-rule="evenodd" clip-rule="evenodd" d="M139.929 58.2968C140.036 58.282 140.127 58.3688 140.214 58.4756C140.359 58.6508 140.466 58.9069 140.51 59.1983C140.555 59.4898 140.529 59.764 140.443 59.9711C140.391 60.0969 140.33 60.2045 140.223 60.2193C140.031 60.2457 139.899 60.4196 139.927 60.6073C139.956 60.795 140.135 60.9261 140.327 60.8996C140.598 60.8624 140.838 60.6958 141.003 60.4199C141.192 60.1023 141.286 59.622 141.206 59.1025C141.127 58.583 140.893 58.1478 140.616 57.8943C140.375 57.6744 140.095 57.5793 139.825 57.6165C139.632 57.643 139.5 57.8167 139.529 58.0045C139.558 58.1923 139.737 58.3232 139.929 58.2968Z" fill="black"/>
<path fill-rule="evenodd" clip-rule="evenodd" d="M140.217 60.2223C140.111 60.2369 140.019 60.1503 139.932 60.0436C139.788 59.8682 139.681 59.6122 139.636 59.3208C139.592 59.0294 139.618 58.7551 139.703 58.5482C139.754 58.4223 139.816 58.3146 139.923 58.3C140.115 58.2735 140.248 58.0996 140.219 57.912C140.19 57.7242 140.011 57.5933 139.818 57.6197C139.548 57.657 139.309 57.8234 139.144 58.0993C138.953 58.417 138.861 58.8971 138.94 59.4165C139.02 59.936 139.252 60.3714 139.53 60.6247C139.771 60.8446 140.05 60.9399 140.321 60.9026C140.513 60.8762 140.646 60.7022 140.617 60.5145C140.589 60.3268 140.409 60.1959 140.217 60.2223Z" fill="black"/>
<path d="M132.196 13.1023L118.538 7.67773L110.521 24.5452L124.18 29.9697L132.196 13.1023Z" fill="#DD6140"/>
<path d="M130.201 14.4168L118.851 9.89471L117.803 12.1077L129.153 16.6298L130.201 14.4168Z" fill="white"/>
<path fill-rule="evenodd" clip-rule="evenodd" d="M118.428 14.0147C118.903 14.212 119.127 14.7346 118.925 15.1835C118.723 15.6324 118.173 15.8328 117.698 15.6355L117.556 15.9516C118.211 16.2239 118.967 15.9374 119.246 15.3172C119.526 14.6971 119.226 13.971 118.571 13.6987L118.428 14.0147Z" fill="white"/>
<path fill-rule="evenodd" clip-rule="evenodd" d="M117.686 15.6265C117.211 15.4292 116.987 14.9067 117.189 14.4577C117.391 14.0088 117.942 13.8084 118.416 14.0057L118.558 13.6896C117.902 13.4169 117.146 13.7035 116.867 14.3236C116.587 14.9437 116.887 15.6699 117.543 15.9426L117.686 15.6265Z" fill="white"/>
<path fill-rule="evenodd" clip-rule="evenodd" d="M117.22 16.7185C117.694 16.9158 117.919 17.4384 117.716 17.8873C117.514 18.3362 116.964 18.5366 116.49 18.3393L116.347 18.6554C117.002 18.9277 117.759 18.6411 118.038 18.021C118.317 17.4009 118.017 16.6747 117.362 16.4024L117.22 16.7185Z" fill="white"/>
<path fill-rule="evenodd" clip-rule="evenodd" d="M116.478 18.3303C116.003 18.133 115.779 17.6103 115.981 17.1614C116.183 16.7125 116.734 16.5121 117.208 16.7094L117.35 16.3933C116.694 16.1205 115.938 16.4071 115.659 17.0272C115.379 17.6474 115.679 18.3736 116.335 18.6464L116.478 18.3303Z" fill="white"/>
<path fill-rule="evenodd" clip-rule="evenodd" d="M116.011 19.4219C116.486 19.6192 116.71 20.1418 116.508 20.5907C116.306 21.0396 115.756 21.24 115.281 21.0427L115.139 21.3588C115.794 21.6311 116.55 21.3446 116.83 20.7244C117.109 20.1043 116.809 19.3781 116.154 19.1058L116.011 19.4219Z" fill="white"/>
<path fill-rule="evenodd" clip-rule="evenodd" d="M115.269 21.0335C114.794 20.8362 114.57 20.3136 114.772 19.8647C114.974 19.4157 115.525 19.2153 115.999 19.4126L116.141 19.0965C115.486 18.8238 114.729 19.1103 114.45 19.7305C114.17 20.3506 114.471 21.0768 115.126 21.3496L115.269 21.0335Z" fill="white"/>
<path fill-rule="evenodd" clip-rule="evenodd" d="M114.802 22.1255C115.277 22.3228 115.501 22.8453 115.299 23.2942C115.097 23.7431 114.547 23.9435 114.072 23.7463L113.93 24.0623C114.585 24.3347 115.341 24.0481 115.621 23.428C115.9 22.8079 115.6 22.0817 114.945 21.8094L114.802 22.1255Z" fill="white"/>
<path fill-rule="evenodd" clip-rule="evenodd" d="M114.06 23.7372C113.586 23.5399 113.361 23.0174 113.564 22.5684C113.766 22.1195 114.316 21.9191 114.79 22.1164L114.933 21.8003C114.277 21.5276 113.52 21.8142 113.241 22.4343C112.962 23.0544 113.262 23.7806 113.918 24.0533L114.06 23.7372Z" fill="white"/>
<path fill-rule="evenodd" clip-rule="evenodd" d="M121.252 15.1986C121.726 15.3959 121.95 15.9185 121.748 16.3674C121.546 16.8163 120.996 17.0167 120.521 16.8194L120.379 17.1355C121.034 17.4078 121.79 17.1213 122.07 16.5011C122.349 15.881 122.049 15.1548 121.394 14.8825L121.252 15.1986Z" fill="white"/>
<path fill-rule="evenodd" clip-rule="evenodd" d="M120.509 16.8106C120.035 16.6132 119.811 16.0906 120.013 15.6417C120.215 15.1927 120.765 14.9923 121.24 15.1896L121.382 14.8735C120.726 14.6007 119.97 14.8873 119.69 15.5075C119.411 16.1276 119.711 16.8539 120.367 17.1267L120.509 16.8106Z" fill="white"/>
<path fill-rule="evenodd" clip-rule="evenodd" d="M120.043 17.902C120.517 18.0993 120.741 18.6219 120.539 19.0708C120.337 19.5197 119.787 19.7201 119.312 19.5228L119.17 19.8389C119.825 20.1112 120.581 19.8247 120.861 19.2045C121.14 18.5844 120.84 17.8582 120.185 17.5859L120.043 17.902Z" fill="white"/>
<path fill-rule="evenodd" clip-rule="evenodd" d="M119.3 19.5139C118.826 19.3166 118.602 18.7939 118.804 18.345C119.006 17.8961 119.556 17.6957 120.031 17.893L120.173 17.5769C119.517 17.3041 118.761 17.5907 118.481 18.2108C118.202 18.831 118.502 19.5572 119.158 19.83L119.3 19.5139Z" fill="white"/>
<path fill-rule="evenodd" clip-rule="evenodd" d="M118.835 20.6055C119.309 20.8028 119.533 21.3254 119.331 21.7744C119.129 22.2233 118.579 22.4237 118.104 22.2264L117.962 22.5425C118.617 22.8148 119.373 22.5283 119.653 21.9081C119.932 21.288 119.632 20.5617 118.977 20.2894L118.835 20.6055Z" fill="white"/>
<path fill-rule="evenodd" clip-rule="evenodd" d="M118.092 22.2174C117.618 22.0201 117.394 21.4975 117.596 21.0486C117.798 20.5997 118.348 20.3993 118.823 20.5965L118.965 20.2805C118.309 20.0077 117.553 20.2943 117.273 20.9144C116.994 21.5345 117.294 22.2607 117.95 22.5334L118.092 22.2174Z" fill="white"/>
<path fill-rule="evenodd" clip-rule="evenodd" d="M117.627 23.3091C118.101 23.5064 118.325 24.029 118.123 24.478C117.921 24.9269 117.371 25.1273 116.896 24.93L116.754 25.2461C117.409 25.5185 118.165 25.2319 118.445 24.6117C118.724 23.9916 118.424 23.2653 117.769 22.993L117.627 23.3091Z" fill="white"/>
<path fill-rule="evenodd" clip-rule="evenodd" d="M116.884 24.9209C116.41 24.7236 116.185 24.201 116.387 23.7521C116.59 23.3032 117.14 23.1028 117.614 23.3001L117.757 22.984C117.101 22.7112 116.344 22.9978 116.065 23.6179C115.785 24.238 116.086 24.9643 116.742 25.237L116.884 24.9209Z" fill="white"/>
<path fill-rule="evenodd" clip-rule="evenodd" d="M124.075 16.3822C124.549 16.5795 124.774 17.1021 124.571 17.551C124.369 17.9999 123.819 18.2003 123.345 18.003L123.202 18.3191C123.857 18.5915 124.614 18.3049 124.893 17.6848C125.172 17.0646 124.872 16.3384 124.217 16.0661L124.075 16.3822Z" fill="white"/>
<path fill-rule="evenodd" clip-rule="evenodd" d="M123.333 17.9941C122.858 17.7968 122.634 17.2742 122.836 16.8252C123.038 16.3763 123.589 16.1759 124.063 16.3732L124.205 16.0571C123.549 15.7843 122.793 16.0709 122.513 16.691C122.234 17.3112 122.534 18.0374 123.19 18.3102L123.333 17.9941Z" fill="white"/>
<path fill-rule="evenodd" clip-rule="evenodd" d="M122.867 19.0857C123.341 19.283 123.566 19.8055 123.363 20.2544C123.161 20.7033 122.611 20.9037 122.137 20.7065L121.994 21.0225C122.649 21.2949 123.406 21.0083 123.685 20.3882C123.964 19.7681 123.664 19.0419 123.009 18.7696L122.867 19.0857Z" fill="white"/>
<path fill-rule="evenodd" clip-rule="evenodd" d="M122.125 20.6974C121.65 20.5001 121.426 19.9775 121.628 19.5286C121.83 19.0797 122.381 18.8793 122.855 19.0766L122.997 18.7605C122.341 18.4877 121.585 18.7743 121.305 19.3944C121.026 20.0146 121.326 20.7408 121.982 21.0136L122.125 20.6974Z" fill="white"/>
<path fill-rule="evenodd" clip-rule="evenodd" d="M121.658 21.7892C122.133 21.9864 122.357 22.509 122.155 22.9579C121.953 23.4068 121.403 23.6072 120.928 23.4099L120.786 23.726C121.44 23.9983 122.197 23.7118 122.476 23.0917C122.756 22.4716 122.456 21.7454 121.801 21.4731L121.658 21.7892Z" fill="white"/>
<path fill-rule="evenodd" clip-rule="evenodd" d="M120.916 23.4011C120.441 23.2038 120.217 22.6811 120.419 22.2322C120.621 21.7833 121.172 21.5829 121.646 21.7802L121.788 21.4641C121.132 21.1913 120.376 21.4779 120.096 22.098C119.817 22.7182 120.117 23.4444 120.773 23.7172L120.916 23.4011Z" fill="white"/>
<path fill-rule="evenodd" clip-rule="evenodd" d="M120.45 24.4928C120.925 24.6901 121.149 25.2127 120.947 25.6616C120.745 26.1105 120.195 26.3109 119.72 26.1136L119.578 26.4297C120.233 26.7021 120.989 26.4155 121.268 25.7954C121.548 25.1752 121.248 24.449 120.593 24.1767L120.45 24.4928Z" fill="white"/>
<path fill-rule="evenodd" clip-rule="evenodd" d="M119.708 26.1048C119.233 25.9075 119.009 25.3849 119.211 24.9359C119.413 24.487 119.964 24.2866 120.438 24.4839L120.58 24.1678C119.924 23.895 119.168 24.1816 118.888 24.8018C118.609 25.4219 118.909 26.1481 119.565 26.4209L119.708 26.1048Z" fill="white"/>
<path fill-rule="evenodd" clip-rule="evenodd" d="M126.899 17.5658C127.373 17.7631 127.598 18.2857 127.396 18.7347C127.193 19.1836 126.643 19.384 126.169 19.1867L126.027 19.5028C126.681 19.7752 127.438 19.4886 127.717 18.8684C127.997 18.2483 127.696 17.522 127.042 17.2497L126.899 17.5658Z" fill="white"/>
<path fill-rule="evenodd" clip-rule="evenodd" d="M126.156 19.1778C125.682 18.9805 125.458 18.4579 125.66 18.0089C125.862 17.56 126.412 17.3596 126.887 17.5569L127.029 17.2408C126.373 16.968 125.617 17.2546 125.337 17.8748C125.058 18.4949 125.358 19.2211 126.014 19.4939L126.156 19.1778Z" fill="white"/>
<path fill-rule="evenodd" clip-rule="evenodd" d="M125.69 20.2695C126.164 20.4668 126.389 20.9895 126.187 21.4384C125.984 21.8873 125.434 22.0877 124.96 21.8904L124.817 22.2065C125.472 22.4789 126.229 22.1923 126.508 21.5721C126.788 20.952 126.487 20.2258 125.833 19.9534L125.69 20.2695Z" fill="white"/>
<path fill-rule="evenodd" clip-rule="evenodd" d="M124.948 21.8814C124.474 21.6841 124.249 21.1615 124.451 20.7125C124.654 20.2636 125.204 20.0632 125.678 20.2605L125.821 19.9444C125.165 19.6716 124.408 19.9582 124.129 20.5784C123.849 21.1985 124.15 21.9247 124.805 22.1975L124.948 21.8814Z" fill="white"/>
<path fill-rule="evenodd" clip-rule="evenodd" d="M124.482 22.973C124.956 23.1703 125.181 23.6929 124.979 24.1418C124.776 24.5908 124.226 24.7912 123.752 24.5939L123.609 24.91C124.264 25.1823 125.021 24.8957 125.3 24.2756C125.58 23.6555 125.279 22.9293 124.625 22.6569L124.482 22.973Z" fill="white"/>
<path fill-rule="evenodd" clip-rule="evenodd" d="M123.74 24.5848C123.266 24.3875 123.041 23.8649 123.243 23.416C123.446 22.9671 123.996 22.7667 124.47 22.964L124.613 22.6479C123.957 22.3751 123.2 22.6617 122.921 23.2818C122.641 23.9019 122.942 24.6281 123.597 24.9009L123.74 24.5848Z" fill="white"/>
<path fill-rule="evenodd" clip-rule="evenodd" d="M123.274 25.6765C123.748 25.8738 123.972 26.3964 123.77 26.8453C123.568 27.2942 123.018 27.4947 122.543 27.2974L122.401 27.6135C123.056 27.8858 123.812 27.5992 124.092 26.9791C124.371 26.3589 124.071 25.6327 123.416 25.3604L123.274 25.6765Z" fill="white"/>
<path fill-rule="evenodd" clip-rule="evenodd" d="M122.531 27.2883C122.057 27.0911 121.833 26.5684 122.035 26.1195C122.237 25.6706 122.787 25.4702 123.262 25.6675L123.404 25.3514C122.748 25.0786 121.992 25.3652 121.712 25.9853C121.433 26.6055 121.733 27.3317 122.389 27.6044L122.531 27.2883Z" fill="white"/>
<path d="M206.199 74.7809H47.8672V79.1219H206.199V74.7809Z" fill="black"/>
<path fill-rule="evenodd" clip-rule="evenodd" d="M161.262 72.4777H163.281V71.6588H166.432V72.4777H168.581V71.6588H171.732V72.4777H173.882V71.6588H177.034V72.4777H177.705C178.013 72.4777 178.308 72.5966 178.527 72.8082C178.744 73.0186 178.867 73.3045 178.867 73.603V74.7444H156.037C156.037 74.7444 156.037 74.1726 156.037 73.603C156.037 73.3045 156.159 73.0186 156.377 72.8082C156.595 72.5966 156.891 72.4777 157.199 72.4777H158.111V71.6588H161.262V72.4777Z" fill="#D2D3D5"/>
<path d="M83.1459 72.0199H55.4292V75.0818H83.1459V72.0199Z" fill="white"/>
<path fill-rule="evenodd" clip-rule="evenodd" d="M70.4226 71.5173V72.4325H56.0582V74.4012H70.4226V75.3164H55.5858C55.3248 75.3164 55.1133 75.1116 55.1133 74.8588V71.9749C55.1133 71.7221 55.3248 71.5173 55.5858 71.5173H70.4226Z" fill="black"/>
<path fill-rule="evenodd" clip-rule="evenodd" d="M70.4227 71.5173H83.5475C83.8086 71.5173 84.02 71.7221 84.02 71.9749V74.8588C84.02 75.1116 83.8086 75.3164 83.5475 75.3164H70.4227C69.983 74.868 70.1511 74.6175 70.4227 74.4012H83.075V72.4325H70.4227C70.2436 72.095 70.1997 71.7816 70.4227 71.5173Z" fill="black"/>
<path fill-rule="evenodd" clip-rule="evenodd" d="M72.1383 72.1146L72.2156 74.9881C72.2225 75.2409 72.4396 75.4399 72.7003 75.4342C72.9609 75.4273 73.1671 75.2169 73.1603 74.9641L73.083 72.0905C73.0761 71.8389 72.859 71.6387 72.5983 71.6456C72.3376 71.6524 72.1315 71.8629 72.1383 72.1146ZM78.0709 70.7762V74.8119C78.0709 75.0647 78.2826 75.2695 78.5434 75.2695C78.8041 75.2695 79.0159 75.0647 79.0159 74.8119V70.7762C79.0159 70.5234 78.8041 70.3186 78.5434 70.3186C78.2826 70.3186 78.0709 70.5234 78.0709 70.7762ZM75.1594 70.8425V74.5522C75.1594 74.805 75.3711 75.0098 75.6319 75.0098C75.8927 75.0098 76.1044 74.805 76.1044 74.5522V70.8425C76.1044 70.5897 75.8927 70.385 75.6319 70.385C75.3711 70.385 75.1594 70.5897 75.1594 70.8425ZM80.848 70.8162V74.455C80.848 74.7067 81.0594 74.9126 81.3204 74.9126C81.5815 74.9126 81.7929 74.7067 81.7929 74.455V70.8162C81.7929 70.5645 81.5815 70.3586 81.3204 70.3586C81.0594 70.3586 80.848 70.5645 80.848 70.8162Z" fill="black"/>
<path fill-rule="evenodd" clip-rule="evenodd" d="M89.9979 50.2837H89.1616C88.6962 50.2837 88.3182 49.9176 88.3182 49.4669C88.3182 49.0161 88.6962 48.6501 89.1616 48.6501H110.137C110.604 48.6501 110.981 49.0161 110.981 49.4669C110.981 49.9176 110.604 50.2837 110.137 50.2837H109.748C110.172 50.4281 110.563 50.6636 110.886 50.9778C111.456 51.5284 111.775 52.2752 111.775 53.0537V74.7494H87.9697C87.9697 74.7494 87.9697 59.5858 87.9697 53.0537C87.9697 52.2752 88.2898 51.5284 88.858 50.9778C89.1828 50.6636 89.5726 50.4281 89.9979 50.2837Z" fill="#FFF4E5"/>
<path fill-rule="evenodd" clip-rule="evenodd" d="M109.748 50.2837C110.05 50.3864 110.335 50.5355 110.591 50.7261L88.5107 51.3802C88.6135 51.2372 88.7293 51.1024 88.858 50.9776C89.1828 50.6635 89.5726 50.428 89.9979 50.2837H109.748Z" fill="#F4978B"/>
<path d="M96.29 54.0643L88.687 56.2663L92.7898 69.1998L100.393 66.9979L96.29 54.0643Z" fill="#F4978B"/>
<path fill-rule="evenodd" clip-rule="evenodd" d="M94.6654 60.2636C95.5655 60.2636 96.2966 60.9717 96.2966 61.8439C96.2966 62.716 95.5655 63.424 94.6654 63.424C94.4693 63.424 94.311 63.5777 94.311 63.7672C94.311 63.9566 94.4693 64.1104 94.6654 64.1104C95.9565 64.1104 97.0054 63.0948 97.0054 61.8439C97.0054 60.593 95.9565 59.5773 94.6654 59.5773C94.4693 59.5773 94.311 59.7311 94.311 59.9205C94.311 60.1099 94.4693 60.2636 94.6654 60.2636Z" fill="#DE6647"/>
<path fill-rule="evenodd" clip-rule="evenodd" d="M94.6657 63.424C93.7644 63.424 93.0344 62.716 93.0344 61.8439C93.0344 60.9717 93.7644 60.2636 94.6657 60.2636C94.8606 60.2636 95.02 60.1099 95.02 59.9205C95.02 59.7311 94.8606 59.5773 94.6657 59.5773C93.3734 59.5773 92.3257 60.593 92.3257 61.8439C92.3257 63.0948 93.3734 64.1104 94.6657 64.1104C94.8606 64.1104 95.02 63.9566 95.02 63.7672C95.02 63.5777 94.8606 63.424 94.6657 63.424Z" fill="#DE6647"/>
<path fill-rule="evenodd" clip-rule="evenodd" d="M95.4205 68.4069L94.8086 66.5932C94.7283 66.3532 94.8641 66.0946 95.111 66.0163C95.3591 65.9379 95.626 66.0691 95.7075 66.3092L96.3253 68.1414L95.4205 68.4069ZM96.6927 68.0334L96.2804 66.7427C96.2036 66.5014 96.343 66.2449 96.5922 66.1702C96.8415 66.0957 97.1061 66.2309 97.1828 66.4721L97.5974 67.7679L96.6927 68.0334ZM93.69 54.8485L94.3574 56.9378C94.4342 57.179 94.2948 57.4355 94.0456 57.5101C93.7963 57.5848 93.5317 57.4495 93.455 57.2082L92.7852 55.114L93.69 54.8485ZM92.21 55.2829L92.771 56.8669C92.8561 57.1057 92.7238 57.3662 92.4769 57.4481C92.2301 57.53 91.9619 57.4026 91.8769 57.1636L91.3052 55.5485L92.21 55.2829Z" fill="#DE6647"/>
<path d="M111.407 61.5457L103.719 59.5809L100.069 72.6272L107.757 74.5919L111.407 61.5457Z" fill="#F4978B"/>
<path fill-rule="evenodd" clip-rule="evenodd" d="M106.603 65.988C107.361 66.4424 107.589 67.4155 107.11 68.1593C106.632 68.9032 105.627 69.1379 104.869 68.6835C104.704 68.5845 104.486 68.6357 104.382 68.7973C104.278 68.9589 104.327 69.1699 104.492 69.2689C105.58 69.9207 107.021 69.5841 107.707 68.5172C108.394 67.4502 108.067 66.0544 106.98 65.4025C106.815 65.3035 106.597 65.3549 106.493 65.5163C106.389 65.6779 106.438 65.889 106.603 65.988Z" fill="#DE6647"/>
<path fill-rule="evenodd" clip-rule="evenodd" d="M104.855 68.6718C104.096 68.2168 103.87 67.2444 104.348 66.5005C104.827 65.7567 105.83 65.5213 106.589 65.9763C106.754 66.0747 106.972 66.024 107.076 65.8625C107.18 65.701 107.13 65.4893 106.966 65.3909C105.877 64.7384 104.437 65.0758 103.751 66.1427C103.065 67.2096 103.39 68.6048 104.479 69.2572C104.643 69.3556 104.862 69.305 104.966 69.1434C105.07 68.9819 105.02 68.7702 104.855 68.6718Z" fill="#DE6647"/>
<path fill-rule="evenodd" clip-rule="evenodd" d="M102.764 73.3052L103.244 71.4504C103.308 71.2053 103.564 71.0535 103.814 71.1113C104.066 71.1696 104.219 71.4162 104.156 71.662L103.672 73.5356L102.764 73.3052ZM104.04 73.6289L104.401 72.3206C104.468 72.0762 104.726 71.9279 104.977 71.9901C105.228 72.0523 105.377 72.3011 105.309 72.5455L104.948 73.8592L104.04 73.6289ZM108.74 60.8744L108.157 62.9922C108.089 63.2366 107.831 63.3848 107.581 63.3226C107.33 63.2605 107.181 63.0116 107.249 62.7672L107.833 60.6441L108.74 60.8744ZM107.256 60.4977L106.86 62.1311C106.801 62.3776 106.547 62.5329 106.294 62.4781C106.041 62.4233 105.885 62.1794 105.945 61.9328L106.349 60.2674L107.256 60.4977Z" fill="#DE6647"/>
<path d="M103.92 58.2334C105.5 58.2334 106.781 56.9928 106.781 55.4625C106.781 53.9322 105.5 52.6917 103.92 52.6917C102.34 52.6917 101.059 53.9322 101.059 55.4625C101.059 56.9928 102.34 58.2334 103.92 58.2334Z" fill="#FFCF84"/>
<path fill-rule="evenodd" clip-rule="evenodd" d="M103.957 53.6973C104.991 53.6973 105.831 54.5108 105.831 55.5129C105.831 56.5152 104.991 57.3287 103.957 57.3287C103.858 57.3287 103.776 57.4069 103.776 57.5031C103.776 57.5993 103.858 57.6775 103.957 57.6775C105.19 57.6775 106.191 56.7076 106.191 55.5129C106.191 54.3184 105.19 53.3485 103.957 53.3485C103.858 53.3485 103.776 53.4267 103.776 53.5229C103.776 53.6191 103.858 53.6973 103.957 53.6973Z" fill="#FDA92F"/>
<path fill-rule="evenodd" clip-rule="evenodd" d="M103.957 57.3287C102.922 57.3287 102.082 56.5152 102.082 55.5129C102.082 54.5108 102.922 53.6973 103.957 53.6973C104.056 53.6973 104.136 53.6191 104.136 53.5229C104.136 53.4267 104.056 53.3485 103.957 53.3485C102.723 53.3485 101.722 54.3184 101.722 55.5129C101.722 56.7076 102.723 57.6775 103.957 57.6775C104.056 57.6775 104.136 57.5993 104.136 57.5031C104.136 57.4069 104.056 57.3287 103.957 57.3287Z" fill="#FDA92F"/>
<path fill-rule="evenodd" clip-rule="evenodd" d="M103.494 58.2031L103.52 57.5405C103.523 57.4443 103.607 57.3692 103.706 57.373C103.807 57.3766 103.884 57.4578 103.88 57.554L103.853 58.2329C103.731 58.2302 103.611 58.2201 103.494 58.2031ZM104.542 58.1678L104.366 57.4909C104.342 57.3976 104.4 57.3027 104.497 57.2793C104.592 57.2558 104.69 57.3126 104.715 57.4058L104.888 58.0707C104.775 58.1099 104.66 58.1424 104.542 58.1678ZM101.54 57.001L102.079 56.589C102.157 56.5293 102.27 56.5422 102.331 56.6177C102.393 56.6932 102.38 56.8029 102.302 56.8627L101.759 57.2782C101.681 57.1904 101.607 57.0979 101.54 57.001ZM101.176 56.252L101.85 55.8986C101.937 55.8528 102.047 55.8842 102.094 55.9689C102.141 56.0534 102.108 56.1593 102.021 56.2052L101.303 56.5826C101.253 56.4758 101.212 56.3654 101.176 56.252ZM106.749 55.8719L106.1 55.8427C106 55.8382 105.924 55.7565 105.928 55.6605C105.933 55.5642 106.017 55.4899 106.116 55.4942L106.78 55.5241C106.778 55.6419 106.767 55.7579 106.749 55.8719ZM105.921 53.4836C106.007 53.5652 106.088 53.6519 106.163 53.7434L105.635 54.2685C105.566 54.3375 105.452 54.339 105.381 54.2719C105.309 54.2047 105.308 54.0942 105.378 54.0253L105.921 53.4836ZM102.494 53.0601L102.962 53.7366C103.018 53.8166 102.995 53.9249 102.913 53.9786C102.83 54.0321 102.718 54.0107 102.663 53.9308L102.194 53.2529C102.289 53.1827 102.389 53.1183 102.494 53.0601ZM104.168 52.702C104.289 52.7121 104.408 52.7295 104.525 52.7538L104.454 53.4462C104.443 53.542 104.355 53.6121 104.257 53.6024C104.158 53.593 104.086 53.5075 104.095 53.4117L104.168 52.702Z" fill="#FDA92F"/>
<path d="M96.2048 61.2936C96.0164 62.8225 97.1289 64.1958 98.6898 64.361C100.251 64.5261 101.669 63.4206 101.857 61.8918C102.046 60.3629 100.933 58.9896 99.3721 58.8244C97.8112 58.6592 96.3932 59.7647 96.2048 61.2936Z" fill="#FFCF84"/>
<path fill-rule="evenodd" clip-rule="evenodd" d="M100.838 61.8104C100.715 62.8142 99.7824 63.5415 98.7577 63.4329C97.7329 63.3242 97.0014 62.4204 97.1248 61.4166C97.1367 61.32 97.0665 61.232 96.9682 61.2216C96.8698 61.2112 96.7801 61.2822 96.7682 61.3788C96.621 62.5758 97.4932 63.653 98.7147 63.7826C99.9362 63.9121 101.047 63.0452 101.195 61.8482C101.207 61.7516 101.136 61.6636 101.038 61.6532C100.94 61.6428 100.85 61.7138 100.838 61.8104Z" fill="#FDA92F"/>
<path fill-rule="evenodd" clip-rule="evenodd" d="M97.1129 61.4348C97.2365 60.4298 98.1687 59.7024 99.1935 59.8111C100.218 59.9197 100.95 60.8235 100.826 61.8285C100.814 61.9239 100.885 62.0107 100.983 62.0211C101.081 62.0315 101.171 61.9617 101.183 61.8664C101.33 60.6681 100.458 59.5909 99.2365 59.4614C98.015 59.3319 96.9037 60.1988 96.7563 61.397C96.7445 61.4924 96.8149 61.5791 96.9132 61.5896C97.0116 61.6 97.1012 61.5302 97.1129 61.4348Z" fill="#FDA92F"/>
<path fill-rule="evenodd" clip-rule="evenodd" d="M96.2868 60.8843L96.9596 60.9809C97.0573 60.9948 97.1238 61.084 97.1081 61.1796C97.0924 61.2764 97.0005 61.3419 96.9028 61.3281L96.2135 61.2285C96.2308 61.1111 96.2555 60.9956 96.2868 60.8843ZM96.1978 61.9019L96.9092 61.8047C97.0073 61.7919 97.0971 61.8581 97.1095 61.9544C97.122 62.0495 97.0524 62.1382 96.9544 62.1522L96.2556 62.2473C96.229 62.1344 96.2096 62.0189 96.1978 61.9019ZM97.7459 59.1236L98.1019 59.6892C98.1535 59.7711 98.1268 59.8794 98.0425 59.9307C97.9581 59.982 97.8478 59.9576 97.7962 59.8757L97.4371 59.3051C97.5359 59.2391 97.6391 59.1782 97.7459 59.1236ZM98.5533 58.8524L98.8334 59.542C98.8698 59.6315 98.8246 59.7345 98.7326 59.771C98.6408 59.8076 98.5367 59.7642 98.5003 59.6747L98.201 58.939C98.3159 58.9025 98.4334 58.8744 98.5533 58.8524ZM98.2765 64.2859L98.3837 63.6604C98.4001 63.5649 98.4926 63.4995 98.59 63.5144C98.6876 63.5294 98.7534 63.6185 98.7372 63.7141L98.6275 64.3532C98.5076 64.3382 98.3906 64.3154 98.2765 64.2859ZM100.811 63.7425C100.718 63.8172 100.62 63.8855 100.517 63.9488L100.045 63.3812C99.9827 63.3063 99.9946 63.1964 100.072 63.1351C100.149 63.0726 100.262 63.0834 100.324 63.1583L100.811 63.7425ZM101.652 60.4725L100.906 60.8521C100.818 60.8972 100.71 60.8637 100.665 60.778C100.62 60.6922 100.656 60.5859 100.744 60.5419L101.491 60.1614C101.551 60.2604 101.605 60.3645 101.652 60.4725ZM101.818 62.1307C101.793 62.2462 101.761 62.3598 101.722 62.4703L101.024 62.327C100.928 62.3064 100.867 62.2131 100.889 62.1193C100.91 62.0243 101.006 61.9638 101.102 61.9833L101.818 62.1307Z" fill="#FDA92F"/>
<path d="M90.8315 73.6967C91.988 74.7366 93.7981 74.6695 94.8745 73.5469C95.9508 72.4243 95.8858 70.6713 94.7293 69.6314C93.5728 68.5916 91.7627 68.6587 90.6863 69.7813C89.61 70.9039 89.675 72.6569 90.8315 73.6967Z" fill="#FFCF84"/>
<path fill-rule="evenodd" clip-rule="evenodd" d="M94.0505 70.3955C94.8069 71.0756 94.8494 72.2247 94.1449 72.9595C93.4402 73.6944 92.2537 73.7385 91.4973 73.0584C91.4245 72.993 91.3097 72.9965 91.242 73.067C91.1744 73.1376 91.1793 73.2487 91.2521 73.3142C92.154 74.1251 93.5684 74.0724 94.4084 73.1964C95.2482 72.3205 95.1977 70.9507 94.2957 70.1398C94.223 70.0743 94.1081 70.0778 94.0405 70.1484C93.9728 70.2189 93.9777 70.3301 94.0505 70.3955Z" fill="#FDA92F"/>
<path fill-rule="evenodd" clip-rule="evenodd" d="M91.4946 73.0561C90.7373 72.3752 90.6948 71.2261 91.3995 70.4912C92.104 69.7564 93.2905 69.7123 94.0478 70.3932C94.1196 70.4578 94.2336 70.4535 94.3012 70.3829C94.3689 70.3124 94.3649 70.202 94.293 70.1374C93.3901 69.3256 91.9758 69.3783 91.136 70.2543C90.296 71.1303 90.3465 72.5001 91.2494 73.3119C91.3213 73.3765 91.4352 73.3722 91.5028 73.3016C91.5705 73.2311 91.5665 73.1207 91.4946 73.0561Z" fill="#FDA92F"/>
<path fill-rule="evenodd" clip-rule="evenodd" d="M90.5411 73.3942L91.0261 72.9253C91.0963 72.857 91.2105 72.8572 91.2805 72.9252C91.3514 72.994 91.3505 73.104 91.2803 73.1722L90.7829 73.6524C90.6958 73.5703 90.6147 73.4837 90.5411 73.3942ZM91.3326 74.0578L91.6799 73.4455C91.7283 73.3614 91.8373 73.33 91.9247 73.3765C92.0112 73.4222 92.0431 73.5284 91.9957 73.6131L91.6543 74.2143C91.5445 74.1692 91.437 74.1169 91.3326 74.0578ZM89.9566 71.2268L90.6406 71.2791C90.7396 71.2866 90.8135 71.3707 90.8054 71.4665C90.7972 71.5623 90.7106 71.6342 90.6115 71.6267L89.9216 71.5739C89.9263 71.4583 89.9378 71.3422 89.9566 71.2268ZM90.2171 70.438L90.9584 70.6219C91.0546 70.6457 91.1129 70.7411 91.088 70.8343C91.0631 70.9274 90.9644 70.9833 90.8681 70.9595L90.0771 70.7637C90.1159 70.6527 90.1633 70.5445 90.2171 70.438ZM94.5632 73.8263L94.1082 73.3774C94.0387 73.3089 94.04 73.1984 94.111 73.1311C94.1822 73.0636 94.2958 73.0642 94.3654 73.1327L94.8302 73.5914C94.7456 73.6763 94.6563 73.7544 94.5632 73.8263ZM95.6369 71.5296C95.6426 71.6462 95.6404 71.7626 95.6314 71.8795L94.8756 71.9172C94.7761 71.922 94.692 71.8485 94.6874 71.7526C94.6819 71.656 94.7587 71.5741 94.8582 71.5694L95.6369 71.5296ZM93.4268 68.9641L93.2933 69.7681C93.2777 69.8633 93.1851 69.928 93.0869 69.913C92.9887 69.8978 92.9216 69.8083 92.9381 69.7139L93.0717 68.908C93.1901 68.9188 93.3089 68.9376 93.4268 68.9641ZM94.9036 69.8028C94.9847 69.8895 95.0598 69.9807 95.1283 70.0756L94.5895 70.5368C94.5143 70.6001 94.4002 70.5932 94.3352 70.5216C94.2693 70.4493 94.2766 70.3392 94.3509 70.2752L94.9036 69.8028Z" fill="#FDA92F"/>
<path d="M108.764 74.6059C110.304 74.3316 111.303 72.8812 110.996 71.3663C110.689 69.8513 109.191 68.8456 107.651 69.1199C106.111 69.3942 105.111 70.8446 105.419 72.3596C105.726 73.8745 107.224 74.8802 108.764 74.6059Z" fill="#FFCF84"/>
<path fill-rule="evenodd" clip-rule="evenodd" d="M107.904 70.1063C108.907 69.9272 109.884 70.5845 110.084 71.5732C110.284 72.5621 109.632 73.5103 108.629 73.6894C108.533 73.7066 108.469 73.7979 108.488 73.8928C108.507 73.9878 108.602 74.0507 108.699 74.0335C109.895 73.82 110.672 72.6896 110.433 71.5109C110.195 70.3322 109.03 69.5486 107.834 69.7621C107.738 69.7793 107.674 69.8706 107.693 69.9656C107.712 70.0605 107.807 70.1235 107.904 70.1063Z" fill="#FDA92F"/>
<path fill-rule="evenodd" clip-rule="evenodd" d="M108.604 73.7042C107.6 73.8834 106.623 73.2263 106.423 72.2377C106.223 71.2492 106.875 70.3012 107.879 70.122C107.974 70.105 108.037 70.0139 108.017 69.919C107.998 69.8241 107.904 69.7609 107.809 69.7779C106.612 69.9916 105.835 71.1217 106.073 72.3001C106.312 73.4785 107.477 74.2619 108.673 74.0482C108.769 74.0312 108.831 73.9402 108.812 73.8452C108.793 73.7503 108.699 73.6872 108.604 73.7042Z" fill="#FDA92F"/>
<path fill-rule="evenodd" clip-rule="evenodd" d="M108.343 74.6487L108.235 73.9884C108.22 73.8926 108.286 73.8037 108.384 73.7903C108.482 73.7764 108.573 73.8434 108.589 73.9392L108.699 74.616C108.58 74.6344 108.461 74.6453 108.343 74.6487ZM109.357 74.432L109.05 73.7926C109.008 73.7043 109.045 73.6004 109.135 73.5604C109.223 73.5205 109.33 73.5597 109.373 73.6477L109.675 74.2758C109.573 74.3341 109.467 74.3864 109.357 74.432ZM106.198 73.798L106.64 73.2968C106.704 73.2242 106.817 73.2173 106.892 73.2814C106.967 73.3454 106.977 73.4563 106.913 73.5289L106.466 74.0345C106.373 73.9612 106.283 73.8823 106.198 73.798ZM105.693 73.1199L106.278 72.6532C106.354 72.5927 106.467 72.6047 106.53 72.6803C106.593 72.7558 106.583 72.8664 106.507 72.927L105.882 73.4252C105.813 73.328 105.75 73.2259 105.693 73.1199ZM111.047 71.7763L110.409 71.8602C110.311 71.873 110.22 71.8055 110.205 71.7096C110.19 71.6135 110.257 71.5254 110.355 71.5124L111.008 71.4268C111.029 71.5438 111.042 71.6605 111.047 71.7763ZM109.761 69.5562C109.861 69.6219 109.957 69.6938 110.049 69.7713L109.64 70.3826C109.586 70.463 109.476 70.4843 109.393 70.4301C109.309 70.3762 109.286 70.267 109.34 70.1866L109.761 69.5562ZM106.337 69.7317L106.928 70.3202C106.998 70.3897 106.998 70.5008 106.928 70.5683C106.859 70.6356 106.745 70.6339 106.676 70.5642L106.083 69.9746C106.161 69.8888 106.246 69.8076 106.337 69.7317ZM107.896 69.0868C108.015 69.0759 108.135 69.0724 108.254 69.0762L108.324 69.7738C108.333 69.8705 108.26 69.9552 108.163 69.9627C108.064 69.9705 107.977 69.8984 107.967 69.802L107.896 69.0868Z" fill="#FDA92F"/>
<path fill-rule="evenodd" clip-rule="evenodd" d="M101.142 74.3938L87.2817 97.7679H81.5812C81.5812 97.7679 79.8296 101.392 82.4836 102.719H108.63C108.657 102.719 108.683 102.721 108.71 102.725C109.231 102.761 112.206 102.679 114.56 96.7715C118.385 87.1762 122.262 81.6406 126.178 74.3938H101.142Z" fill="#E9E9EB"/>
<path d="M95.4589 95.9226C97.7132 96.2278 100.143 94.727 100.887 92.5704C101.63 90.4139 100.406 88.4182 98.1515 88.113C95.8973 87.8078 93.4671 89.3086 92.7235 91.4652C91.98 93.6217 93.2046 95.6174 95.4589 95.9226Z" fill="white"/>
<path d="M123.091 75.631L101.592 75.4146L100.649 77.0467L122.148 77.2631L123.091 75.631Z" fill="#BABDC2"/>
<path d="M121.646 78.6339L100.046 78.45L99.1055 80.0828L120.706 80.2668L121.646 78.6339Z" fill="#BABDC2"/>
<path d="M119.977 81.8895L98.3071 81.3528L97.3393 82.9756L119.009 83.5123L119.977 81.8895Z" fill="#BABDC2"/>
<path d="M118.249 85.1175L96.6929 84.2256L95.6984 85.836L117.255 86.7279L118.249 85.1175Z" fill="#BABDC2"/>
<path d="M115.924 88.4734L104.425 87.9215L103.598 89.4892L115.097 90.0412L115.924 88.4734Z" fill="#BABDC2"/>
<path d="M114.019 91.7729L106.258 91.3296L105.567 92.9036L113.329 93.3469L114.019 91.7729Z" fill="#BABDC2"/>
<path d="M112.46 95.0856L102.156 94.355L101.577 95.9415L111.882 96.6721L112.46 95.0856Z" fill="#BABDC2"/>
<path fill-rule="evenodd" clip-rule="evenodd" d="M87.8003 96.8927H106.476C106.498 96.8927 106.519 96.895 106.54 96.8973C106.741 96.9236 106.91 97.03 106.988 97.2771C107.026 97.396 107.029 97.6328 106.981 97.9531C106.809 99.1005 106.045 101.996 109.104 102.713C108.924 102.733 108.788 102.729 108.71 102.725C108.683 102.721 108.657 102.719 108.63 102.719H107.031C106.928 102.63 106.832 102.536 106.743 102.439C105.666 101.253 105.782 99.5375 105.957 98.3878C105.986 98.1899 106.016 97.976 106.038 97.8079L87.2817 97.7678L87.8003 96.8927Z" fill="black"/>
<path d="M94.8997 92.7925C95.2192 93.1965 95.6735 93.4493 96.2654 93.5661C96.9765 93.6903 97.4076 93.5278 97.5816 93.0831C97.7111 92.7181 97.553 92.4541 97.1075 92.2909C96.8963 92.2225 96.6698 92.1513 96.423 92.0689C95.9826 91.9141 95.6807 91.6895 95.5223 91.4034C95.3588 91.109 95.3444 90.7834 95.4714 90.4253C95.6229 89.9984 95.8974 89.6823 96.3102 89.4798C96.7078 89.2745 97.1886 89.224 97.7472 89.32C98.4205 89.4592 98.9461 89.7398 99.3266 90.1551L98.652 90.6834C98.3337 90.3677 97.9305 90.1537 97.4453 90.0566C97.1939 90.0101 96.961 90.0257 96.7518 90.1118C96.5351 90.1965 96.3801 90.3586 96.2894 90.5913C96.2382 90.7359 96.2551 90.8711 96.3355 91.0108C96.4159 91.1504 96.5872 91.2628 96.8367 91.3603C96.9742 91.4077 97.1702 91.4733 97.4194 91.5488C97.908 91.7052 98.2227 91.9395 98.3713 92.2532C98.5147 92.5585 98.5291 92.8841 98.4045 93.2353C98.0495 94.1676 97.2409 94.5243 95.994 94.3084C95.1939 94.1604 94.5812 93.8049 94.1608 93.2502L94.8997 92.7925Z" fill="black"/>
<path fill-rule="evenodd" clip-rule="evenodd" d="M97.9111 88.6959L95.1488 94.709L95.7801 94.8927L98.566 88.827L97.9111 88.6959Z" fill="black"/>
<path fill-rule="evenodd" clip-rule="evenodd" d="M156.224 87.2947C155.915 86.9675 155.504 86.7856 155.17 86.9984C153.996 87.7454 153.195 88.5427 152.043 89.3195C148.483 91.7217 143.489 92.3909 141.281 96.3318C139.043 100.324 138.93 105.217 136.938 109.366C134.256 114.957 130.416 119.919 127.571 125.428C124.049 132.247 118.563 147.2 118.563 147.2C116.792 147.175 108.054 148.279 102.742 149.073C102.54 149.103 102.397 149.279 102.413 149.476C102.428 149.673 102.598 149.826 102.803 149.826C115.326 149.826 152.046 149.826 160.588 149.826C161.024 149.826 161.427 149.6 161.645 149.235C161.864 148.87 161.866 148.42 161.649 148.054C160.555 146.202 158.662 145.116 156.553 144.61C154.931 144.221 153.366 144.412 151.733 144.546C151.671 144.551 151.593 144.561 151.546 144.514C151.534 144.503 151.518 144.482 151.511 144.469C151.077 143.597 151.309 138.648 151.323 137.535C151.383 132.898 151.597 128.246 152.008 123.625C152.14 122.141 152.414 117.875 152.414 117.875C152.414 117.875 156.097 117.385 157.154 117.153C159.758 116.583 161.884 114.95 163.372 112.827C165.58 109.678 165.723 105.401 166.722 101.818C167.557 98.8187 169.12 96.4816 170.456 93.7305C171.149 92.3028 170.905 90.1934 169.302 89.4258C167.735 88.6743 166.091 90.2449 165.105 91.2493C161.967 94.45 161.806 98.8542 159.125 102.029C157.223 104.279 153.386 104.692 153.386 104.692C153.386 104.692 153.268 101.947 153.386 101.185C153.978 97.3728 156.198 94.9488 157.101 91.4403C157.362 90.4245 157.215 88.3425 156.224 87.2947Z" fill="#DD6140"/>
<path fill-rule="evenodd" clip-rule="evenodd" d="M147.382 119.457C149.09 118.612 152.414 117.875 152.414 117.875C152.414 117.875 152.327 119.241 152.226 120.694C150.945 120.245 149.338 120.112 147.564 120.141C147.392 120.143 147.239 120.03 147.197 119.869C147.153 119.706 147.23 119.536 147.382 119.457Z" fill="black"/>
<path fill-rule="evenodd" clip-rule="evenodd" d="M149.076 92.394L149.835 92.9349C150.045 93.0847 150.342 93.0413 150.496 92.8377C150.651 92.6353 150.606 92.3483 150.396 92.1985L149.638 91.6576C149.427 91.5077 149.132 91.5512 148.977 91.7536C148.823 91.9572 148.866 92.2442 149.076 92.394Z" fill="black"/>
<path fill-rule="evenodd" clip-rule="evenodd" d="M151.446 144.291C151.414 144.243 151.391 144.189 151.378 144.13C150.396 139.291 149.08 135.979 147.59 133.782C146.162 131.675 144.585 130.619 143.007 130.244C139.824 129.485 136.692 131.45 134.95 132.824C134.156 133.449 133.556 134.06 133.556 134.06C133.465 134.168 133.324 134.235 133.168 134.228C132.908 134.215 132.706 134 132.719 133.749C132.719 133.742 132.708 133.603 132.857 133.444C132.957 133.338 133.501 132.787 134.354 132.114C136.267 130.604 139.734 128.522 143.233 129.355C144.996 129.775 146.783 130.923 148.38 133.28C149.442 134.846 150.425 136.956 151.266 139.758C151.232 141.445 151.228 143.518 151.446 144.291ZM143.241 94.6993C143.241 94.6993 141.71 98.4239 140.766 100.723C140.201 102.098 140.791 103.665 142.137 104.367C142.75 104.688 143.371 104.926 143.999 105.076C144.852 105.282 145.756 105.094 146.448 104.57C147.141 104.045 147.545 103.241 147.545 102.389C147.545 99.5049 147.545 94.8674 147.545 94.8674C147.545 94.6158 147.334 94.4099 147.073 94.4099C146.813 94.4099 146.6 94.6158 146.6 94.8674C146.6 94.8674 146.6 99.5049 146.6 102.389C146.6 102.96 146.33 103.497 145.866 103.848C145.403 104.201 144.798 104.325 144.226 104.188C143.672 104.056 143.126 103.845 142.585 103.561C141.661 103.08 141.257 102.004 141.644 101.062C142.589 98.7625 144.12 95.0367 144.12 95.0367C144.216 94.8022 144.097 94.5357 143.855 94.443C143.612 94.3492 143.338 94.4636 143.241 94.6993ZM153.356 103.778C153.37 104.303 153.386 104.692 153.386 104.692C153.386 104.692 153.462 104.684 153.598 104.664C153.014 104.78 152.475 104.829 151.968 104.824C151.707 104.822 151.498 104.615 151.5 104.363C151.502 104.11 151.715 103.907 151.976 103.909C152.406 103.913 152.863 103.871 153.356 103.778ZM170.297 90.2791C170.473 90.5365 170.602 90.8248 170.689 91.1279C168.894 92.3862 167.553 94.3023 167.489 94.4156C167.365 94.6375 167.078 94.7199 166.849 94.5997C166.619 94.4796 166.534 94.2017 166.658 93.9797C166.729 93.8516 168.264 91.6587 170.297 90.2791ZM168.547 89.2313C168.799 89.245 169.052 89.3056 169.302 89.4257C169.406 89.4749 169.504 89.531 169.597 89.5916C168.834 90.1544 167.283 91.4356 165.692 93.5588C165.54 93.7624 165.243 93.8081 165.033 93.6594C164.822 93.5119 164.774 93.2247 164.928 93.0211C166.305 91.1828 167.658 89.9451 168.547 89.2313ZM153.601 88.1457C154.092 87.7567 154.584 87.3712 155.17 86.9983C155.504 86.7855 155.915 86.9674 156.224 87.2946C156.458 87.5417 156.644 87.8459 156.791 88.1811C155.449 89.5298 153.966 88.45 153.601 88.1457Z" fill="black"/>
<defs>
<linearGradient id="paint0_linear_28_223" x1="66.3595" y1="115.79" x2="180.98" y2="46.0006" gradientUnits="userSpaceOnUse">
<stop stop-color="#B8D8D5"/>
<stop offset="0.42" stop-color="#CEE0DA"/>
<stop offset="1" stop-color="#FFF0E6"/>
</linearGradient>
<linearGradient id="paint1_linear_28_223" x1="28.0448" y1="35.8194" x2="-27.2478" y2="107.361" gradientUnits="userSpaceOnUse">
<stop stop-color="#B8D8D5"/>
<stop offset="0.47" stop-color="#CCDFDA"/>
<stop offset="1" stop-color="#FFF0E6"/>
</linearGradient>
<linearGradient id="paint2_linear_28_223" x1="197.304" y1="50.564" x2="231.723" y2="85.1736" gradientUnits="userSpaceOnUse">
<stop stop-color="#FFBF2F"/>
<stop offset="1" stop-color="#FD9500"/>
</linearGradient>
<linearGradient id="paint3_linear_28_223" x1="221.608" y1="113.202" x2="164.835" y2="73.6886" gradientUnits="userSpaceOnUse">
<stop stop-color="#FFBF2F"/>
<stop offset="0.48" stop-color="#FEB422"/>
<stop offset="1" stop-color="#FD9500"/>
</linearGradient>
</defs>
</svg>
