<svg width="234" height="169" viewBox="0 0 234 169" fill="none" xmlns="http://www.w3.org/2000/svg">
<path fill-rule="evenodd" clip-rule="evenodd" d="M64.7418 75.6781C64.7418 75.6781 42.0305 73.3321 33.236 88.428C30.2765 93.5074 8.34126 140.611 6.01596 159.174C6.01596 159.174 0.733658 160.711 0 163.204H31.1173C31.447 163.204 31.7445 163.022 31.8716 162.742C34.1422 157.746 54.067 113.902 54.067 113.902C54.067 113.902 56.6289 153.646 57.152 161.766C57.2044 162.574 57.9322 163.204 58.8122 163.204C64.7111 163.204 85.2576 163.204 85.2576 163.204C85.2576 163.204 84.5286 160.585 79.1924 159.174C79.1924 159.174 82.0779 97.3504 74.0673 81.8712L64.7418 75.6781Z" fill="url(#paint0_linear_52_1485)"/>
<path fill-rule="evenodd" clip-rule="evenodd" d="M49.6553 123.609L52.464 97.5468C52.4832 97.3657 52.6508 97.2292 52.849 97.2339C53.046 97.2386 53.2059 97.3833 53.2148 97.5657L54.0155 114.015L49.6553 123.609Z" fill="#13524E"/>
<path fill-rule="evenodd" clip-rule="evenodd" d="M79.6978 135.354C79.6978 135.749 79.6966 136.141 79.6953 136.53H55.5253L55.4498 135.354H79.6978ZM12.8404 135.354H44.3186L43.7841 136.53H12.4111L12.4179 136.511C12.5536 136.137 12.6901 135.764 12.8272 135.39L12.8404 135.354Z" fill="#82B5B2"/>
<path d="M47.328 39.4785C51.9441 39.4785 55.6863 36.0369 55.6863 31.7915C55.6863 27.546 51.9441 24.1044 47.328 24.1044C42.7118 24.1044 38.9697 27.546 38.9697 31.7915C38.9697 36.0369 42.7118 39.4785 47.328 39.4785Z" fill="#A8CFCC"/>
<path fill-rule="evenodd" clip-rule="evenodd" d="M46.7111 24.1252C47.1332 25.692 47.7433 29.643 44.5677 33.1341C44.231 32.6328 43.6218 32.2975 42.9269 32.2975C41.8678 32.2975 41.008 33.076 41.008 34.0347C41.008 34.9935 41.8678 35.772 42.9269 35.772C43.1101 35.772 43.2874 35.7486 43.4553 35.7051C43.4792 36.3105 43.309 37.157 42.5016 38.0663C40.3656 36.6735 38.9702 34.3812 38.9702 31.7916C38.9702 27.7398 42.3859 24.4161 46.7111 24.1252Z" fill="black"/>
<path fill-rule="evenodd" clip-rule="evenodd" d="M40.4589 35.681C40.2213 35.8092 39.6228 35.7899 39.3506 35.8401C38.4579 36.0047 37.5702 36.1956 36.6864 36.3965C33.953 37.0177 31.2584 37.7653 28.7084 38.8757C26.8531 39.6836 24.9107 40.7063 24.0329 42.4967C22.7569 45.0992 25.0246 47.435 27.9728 47.1906C30.8161 46.9548 33.0477 45.0602 34.9422 43.2786C37.1587 41.194 39.6897 38.9471 41.3892 36.4593" fill="black"/>
<path fill-rule="evenodd" clip-rule="evenodd" d="M30.7034 52.9591C29.2888 54.3453 16.8438 66.8584 7.49295 76.5121C4.35572 79.7773 4.07152 84.5979 6.80649 88.1562C6.80611 88.1574 6.80623 88.1574 6.80623 88.1574C9.2084 91.2829 13.5562 92.5874 17.5004 91.3664C21.7741 90.0419 27.6107 86.9834 34.4031 80.1314C37.8534 76.6505 40.5963 73.4722 42.8597 71.5265C42.8597 71.5265 52.7894 74.4643 57.8966 69.4287C57.8966 69.4287 70.3647 84.0803 82.4312 89.9207C87.2033 92.2028 93.083 90.6712 95.8444 86.4259C97.1299 84.4661 97.6696 82.1064 96.223 79.5444C89.8892 68.3226 79.9434 59.8317 64.742 46.3896C61.7913 43.7795 56.6316 40.0517 46.6385 42.179C42.8734 42.9806 38.2839 45.531 30.7034 52.9591Z" fill="#A8CFCC"/>
<path fill-rule="evenodd" clip-rule="evenodd" d="M52.5797 62.1833C52.5797 62.1833 52.9072 62.1057 53.2934 62.1378C53.6209 62.165 54.0084 62.2714 54.2079 62.6504C54.4753 63.1601 54.0711 63.5809 53.4546 64.0108C52.205 64.883 50.0037 65.6457 48.0545 66.3756C47.7923 66.4735 47.6669 66.7483 47.7731 66.9888C47.8793 67.2293 48.1786 67.3451 48.4395 67.2471C50.477 66.4848 52.7677 65.6717 54.0736 64.7605C55.1634 64.0002 55.6021 63.1432 55.1288 62.2414C54.7426 61.5056 54.0212 61.2534 53.3855 61.2005C52.8087 61.1526 52.3188 61.2735 52.3188 61.2735C52.0451 61.3399 51.8826 61.5976 51.9543 61.8486C52.0272 62.0998 52.3073 62.2498 52.5797 62.1833Z" fill="#82B5B2"/>
<path fill-rule="evenodd" clip-rule="evenodd" d="M56.5423 60.2605C56.5423 60.2605 57.1511 59.7176 57.9799 59.2844C58.4979 59.0139 59.1042 58.7789 59.6989 58.7817C59.942 58.7821 60.1709 58.8791 60.3282 59.0476C60.4855 59.2159 60.5546 59.4389 60.5175 59.6582C60.4177 60.1865 60.144 60.9037 59.438 61.5881C58.4672 62.5297 56.0102 65.3728 48.185 66.2841C47.9049 66.3166 47.7066 66.5524 47.7425 66.81C47.7783 67.0676 48.0341 67.2503 48.3142 67.2177C56.573 66.2556 59.1553 63.2299 60.1811 62.2358C61.0637 61.3806 61.4001 60.4824 61.528 59.8105C61.6111 59.3106 61.4563 58.8118 61.1059 58.4352C60.7541 58.0585 60.2425 57.8414 59.7028 57.8407C58.9353 57.8371 58.1436 58.1166 57.4747 58.466C56.5244 58.9624 55.8286 59.5857 55.8286 59.5857C55.6265 59.7668 55.6213 60.065 55.8183 60.2512C56.0153 60.4373 56.3389 60.4415 56.5423 60.2605Z" fill="#82B5B2"/>
<path fill-rule="evenodd" clip-rule="evenodd" d="M57.8727 63.3441C57.8727 63.3441 56.5617 66.4215 55.2673 67.6109C55.0678 67.7945 55.0678 68.0927 55.2673 68.2764C55.4669 68.4601 55.7917 68.4601 55.9912 68.2765C57.3854 66.9946 58.8243 63.6908 58.8243 63.6908C58.9279 63.4495 58.8 63.1757 58.5365 63.08C58.2743 62.9843 57.9763 63.1027 57.8727 63.3441Z" fill="#82B5B2"/>
<path fill-rule="evenodd" clip-rule="evenodd" d="M53.9316 65.3742V66.4817C53.9316 66.7415 54.1606 66.9522 54.4433 66.9522C54.7246 66.9522 54.9549 66.7415 54.9549 66.4817V65.3742C54.9549 65.1146 54.7246 64.9037 54.4433 64.9037C54.1606 64.9037 53.9316 65.1146 53.9316 65.3742Z" fill="#82B5B2"/>
<path fill-rule="evenodd" clip-rule="evenodd" d="M57.5912 47.5929C57.5912 47.5929 56.7726 47.9049 56.3876 48.763C56.151 49.2898 56.064 50.0384 56.5117 51.0667C57.0284 52.2516 58.3573 55.759 56.5513 58.4587C56.403 58.6799 56.4784 58.9698 56.7176 59.1061C56.9594 59.2422 57.274 59.1731 57.4224 58.952C59.4356 55.9442 58.0363 52.0368 57.4608 50.7165C57.1512 50.0038 57.1691 49.4873 57.3329 49.1223C57.549 48.6429 57.9928 48.4582 57.9928 48.4582C58.2525 48.3561 58.374 48.0794 58.2627 47.8406C58.1514 47.6019 57.8508 47.4908 57.5912 47.5929Z" fill="#82B5B2"/>
<path fill-rule="evenodd" clip-rule="evenodd" d="M38.0586 76.3283C36.9345 77.5176 35.7203 78.8021 34.4031 80.1314C27.6107 86.9834 21.7741 90.0419 17.5004 91.3664C13.5562 92.5874 9.2084 91.2829 6.80623 88.1574C6.80623 88.1574 6.80611 88.1574 6.80649 88.1562C4.07152 84.5979 4.35572 79.7773 7.49295 76.5121C16.8438 66.8584 29.2888 54.3453 30.7034 52.9591C38.2839 45.531 42.8734 42.9806 46.6385 42.179C56.6316 40.0517 61.7913 43.7795 64.742 46.3896C79.9434 59.8317 89.8892 68.3226 96.223 79.5444C97.6696 82.1064 97.1299 84.4661 95.8444 86.4259C93.6138 89.8548 89.3482 91.5135 85.2757 90.8218L81.8159 89.6161C77.6488 87.4987 73.4587 84.3803 69.7738 81.223C67.6761 79.2186 66.2385 77.6917 66.2385 77.6917L72.351 63.8093L62.5063 57.3892C62.0919 54.7627 61.9281 53.0841 61.0443 51.3436C60.8039 50.8675 60.5084 50.3867 60.1388 49.8807C58.421 47.5246 57.3389 48.927 57.3389 48.927C56.5408 48.0209 55.8003 47.6035 55.3065 47.4119C55.0456 47.3165 54.7527 47.3333 54.5071 47.4578C54.2628 47.5822 54.0914 47.8013 54.0403 48.0545C53.9213 48.6773 54.3358 49.3794 54.5596 49.7017C54.6287 49.7994 54.708 49.8908 54.7962 49.9745C59.6476 54.5871 56.9655 59.7647 56.9655 59.7647C54.5685 62.4781 50.2889 62.4138 50.2889 62.4138C47.1591 62.6454 45.1906 61.758 44.0743 60.9488C42.4143 59.749 40.2189 59.3768 38.2028 59.9536C33.2824 61.3958 27.9731 65.6918 27.9731 65.6918L38.0586 76.3283Z" fill="url(#paint1_linear_52_1485)"/>
<path fill-rule="evenodd" clip-rule="evenodd" d="M42.874 71.5306L47.8895 66.3718C47.8895 66.3718 53.933 68.9094 55.8477 66.9241L58.2766 69.8667C58.0272 69.5833 57.8967 69.4287 57.8967 69.4287C52.9021 74.354 43.2925 71.6514 42.874 71.5306Z" fill="#82B5B2"/>
<path fill-rule="evenodd" clip-rule="evenodd" d="M29.0981 64.8372C28.3898 65.3545 27.973 65.6918 27.973 65.6918L28.7982 66.5621L13.8005 77.9963C13.5287 78.2034 13.1253 78.1681 12.9 77.9187C12.6747 77.6681 12.7125 77.2976 12.9843 77.0905L28.9405 64.9255C28.9894 64.8884 29.0426 64.8588 29.0981 64.8372ZM71.6142 63.3288C71.7485 63.3366 71.8828 63.3835 71.9928 63.4711L86.5981 75.1111C86.8642 75.3237 86.8936 75.6955 86.6621 75.9407C86.4306 76.1861 86.0264 76.2127 85.7604 76.0001L71.861 64.9228L72.3509 63.8093L71.6142 63.3288ZM30.5529 63.818C30.6282 62.6853 30.8417 60.4694 31.4211 58.5306C31.4835 58.3518 31.6666 58.2322 31.8707 58.2367C32.0748 58.2413 32.2513 58.369 32.3042 58.5503C32.6186 59.6233 33.0496 61.1001 33.3399 62.0955C32.3108 62.6739 31.3597 63.2757 30.5529 63.818ZM65.8048 59.5408L66.4904 56.5392C66.5159 56.4269 66.6144 56.3406 66.7372 56.322C66.86 56.3035 66.9828 56.3563 67.0455 56.4551C67.433 57.2424 68.0163 58.7588 68.2989 61.1674L65.8048 59.5408Z" fill="#13524E"/>
<path d="M49.8465 62.6361C54.3332 62.6361 57.9704 59.3369 57.9704 55.2672C57.9704 51.1974 54.3332 47.8983 49.8465 47.8983C45.3598 47.8983 41.7227 51.1974 41.7227 55.2672C41.7227 59.3369 45.3598 62.6361 49.8465 62.6361Z" fill="#FFCD80"/>
<path d="M49.8285 61.3955C53.5882 61.3955 56.6361 58.6309 56.6361 55.2206C56.6361 51.8103 53.5882 49.0457 49.8285 49.0457C46.0688 49.0457 43.021 51.8103 43.021 55.2206C43.021 58.6309 46.0688 61.3955 49.8285 61.3955Z" fill="#FFB000"/>
<path d="M47.1787 57.6691C47.9543 58.1402 48.867 58.3336 49.9303 58.2708C51.1982 58.1714 51.8264 57.7591 51.8558 57.0309C51.8575 56.4387 51.4359 56.1106 50.591 56.0465C50.1958 56.0293 49.7733 56.014 49.31 55.9904C48.4787 55.9366 47.8387 55.7242 47.4035 55.3635C46.9548 54.9925 46.7381 54.5161 46.7398 53.9351C46.7418 53.2424 47.0161 52.6648 47.5899 52.2003C48.1365 51.7378 48.9142 51.4715 49.9094 51.391C51.1227 51.329 52.1716 51.5352 53.0563 51.9987L52.2354 53.05C51.514 52.7093 50.7102 52.5529 49.8378 52.6025C49.3879 52.6338 49.0059 52.7497 48.7054 52.9605C48.3913 53.1723 48.2269 53.4742 48.2121 53.855C48.2114 54.0896 48.3199 54.2832 48.5375 54.4579C48.7551 54.6327 49.1092 54.7309 49.5861 54.7759C49.845 54.7914 50.213 54.8105 50.6764 54.823C51.5895 54.86 52.2567 55.0816 52.6917 55.487C53.1131 55.8822 53.3298 56.3586 53.3282 56.9285C53.2828 58.4508 52.1354 59.3015 49.9132 59.4784C48.4817 59.578 47.2422 59.2956 46.2082 58.6415L47.1787 57.6691Z" fill="#FFCD80"/>
<path fill-rule="evenodd" clip-rule="evenodd" d="M49.8811 50.2782L48.8391 60.5964L50.2445 60.4984L51.0743 50.1949L49.8811 50.2782Z" fill="#FFCD80"/>
<path fill-rule="evenodd" clip-rule="evenodd" d="M18.0563 145.422C17.2841 145.294 16.6978 144.671 16.6978 143.925V140.88C16.6978 140.04 17.4393 139.358 18.3527 139.358H36.9429C37.8564 139.358 38.598 140.04 38.598 140.88V143.925C38.598 144.671 38.0117 145.294 37.2394 145.422C38.0117 145.551 38.598 146.174 38.598 146.921V149.965C38.598 150.712 38.0117 151.333 37.2394 151.462C38.0117 151.591 38.598 152.213 38.598 152.96V156.004C38.598 156.751 38.0117 157.373 37.2394 157.502C38.0117 157.631 38.598 158.252 38.598 158.999V162.043C38.598 162.883 37.8564 163.566 36.9429 163.566H18.3527C17.4393 163.566 16.6978 162.883 16.6978 162.043V158.999C16.6978 158.252 17.2841 157.631 18.0563 157.502C17.2841 157.373 16.6978 156.751 16.6978 156.004V152.96C16.6978 152.213 17.2841 151.591 18.0563 151.462C17.2841 151.333 16.6978 150.712 16.6978 149.965V146.921C16.6978 146.174 17.2841 145.551 18.0563 145.422Z" fill="#FFCD80"/>
<path fill-rule="evenodd" clip-rule="evenodd" d="M34.2098 139.358V144.229H38.503C38.5238 144.229 38.5442 144.23 38.5643 144.232C38.4355 144.81 37.9499 145.269 37.3286 145.406H37.2956V145.413C37.2771 145.416 37.2584 145.42 37.2395 145.422C37.2584 145.425 37.2771 145.429 37.2956 145.433V150.267H38.503C38.5238 150.267 38.5444 150.268 38.5646 150.27C38.4364 150.847 37.9529 151.306 37.3338 151.444H35.9659V156.306H38.503C38.5239 156.306 38.5445 156.306 38.5648 156.309C38.4374 156.884 37.956 157.343 37.3389 157.483H33.9465V163.566H32.6674V157.483H31.4571V163.566H30.178V157.483H21.6834V163.566H20.4044V157.483H17.9571C17.339 157.343 16.857 156.883 16.7305 156.306H24.7673V151.444H17.9622C17.342 151.306 16.8579 150.846 16.7307 150.267H18.5732V145.406H17.9673C17.3452 145.269 16.859 144.808 16.731 144.229H22.1027V139.358H23.3817V144.229H30.3333V139.358H31.6124V144.229H32.9308V139.358H34.2098ZM26.0464 151.444V156.306H27.0132V151.444H26.0464ZM28.2922 151.444V156.306H34.6869V151.444H28.2922ZM19.8522 145.406V150.267H29.3881V145.406H19.8522ZM30.6671 145.406V150.267H36.0166V145.406H30.6671Z" fill="#FDA425"/>
<path fill-rule="evenodd" clip-rule="evenodd" d="M189.99 64.3558C189.115 63.9585 188.513 63.1292 188.513 62.1716V57.303C188.513 55.9594 189.698 54.8687 191.159 54.8687H231.354C232.815 54.8687 234 55.9594 234 57.303V62.1716C234 63.1292 233.398 63.9585 232.522 64.3558C233.398 64.7531 234 65.5824 234 66.5401V71.4086C234 72.2507 233.535 72.9934 232.828 73.4305C233.535 73.8677 234 74.6104 234 75.4524V80.3212C234 81.1634 233.535 81.9057 232.828 82.3433C233.535 82.7797 234 83.5231 234 84.3642V89.233C234 90.0752 233.535 90.8175 232.828 91.2551C233.535 91.6927 234 92.435 234 93.2772V98.146C234 98.9871 233.535 99.7305 232.828 100.168C233.535 100.605 234 101.348 234 102.189V107.058C234 107.9 233.535 108.642 232.828 109.08C233.535 109.518 234 110.26 234 111.102V115.971C234 116.812 233.535 117.555 232.828 117.992C233.535 118.429 234 119.172 234 120.014V124.883C234 125.725 233.535 126.467 232.828 126.905C233.535 127.342 234 128.085 234 128.927V133.796C234 134.637 233.535 135.38 232.828 135.817C233.535 136.254 234 136.996 234 137.839V142.707C234 143.55 233.535 144.292 232.828 144.73C233.535 145.166 234 145.909 234 146.752V151.619C234 152.462 233.535 153.205 232.828 153.641C233.535 154.079 234 154.821 234 155.664V160.532C234 161.876 232.815 162.966 231.354 162.966H191.159C189.698 162.966 188.513 161.876 188.513 160.532V155.664C188.513 154.821 188.978 154.079 189.686 153.641C188.978 153.205 188.513 152.462 188.513 151.619V146.752C188.513 145.909 188.978 145.166 189.686 144.73C188.978 144.292 188.513 143.55 188.513 142.707V137.839C188.513 136.996 188.978 136.254 189.686 135.817C188.978 135.38 188.513 134.637 188.513 133.796V128.927C188.513 128.085 188.978 127.342 189.686 126.905C188.978 126.467 188.513 125.725 188.513 124.883V120.014C188.513 119.172 188.978 118.429 189.686 117.992C188.978 117.555 188.513 116.812 188.513 115.971V111.102C188.513 110.26 188.978 109.518 189.686 109.08C188.978 108.642 188.513 107.9 188.513 107.058V102.189C188.513 101.348 188.978 100.605 189.686 100.168C188.978 99.7305 188.513 98.9871 188.513 98.146V93.2772C188.513 92.435 188.978 91.6927 189.686 91.2551C188.978 90.8175 188.513 90.0752 188.513 89.233V84.3642C188.513 83.5231 188.978 82.7797 189.686 82.3433C188.978 81.9057 188.513 81.1634 188.513 80.3212V75.4524C188.513 74.6104 188.978 73.8677 189.686 73.4305C188.978 72.9934 188.513 72.2507 188.513 71.4086V66.5401C188.513 65.5824 189.115 64.7531 189.99 64.3558Z" fill="#FFCD80"/>
<path fill-rule="evenodd" clip-rule="evenodd" d="M221.642 54.8687V63.1206H226.541C226.606 62.8598 226.861 62.665 227.164 62.665C227.467 62.665 227.721 62.8598 227.787 63.1206H233.79C233.56 63.6198 233.155 64.0339 232.644 64.2969H227.803V72.2856H233.822C233.625 72.7547 233.275 73.1538 232.827 73.4305C232.844 73.4407 232.859 73.4512 232.876 73.4619H231.754V81.394C231.754 81.4128 231.753 81.4316 231.752 81.4504H233.698C233.492 81.8104 233.192 82.1174 232.827 82.3433C232.963 82.4268 233.089 82.5221 233.206 82.6268H226.456V90.1717H233.795C233.595 90.614 233.254 90.9904 232.827 91.2551C232.875 91.2845 232.922 91.3163 232.967 91.348H230.299V99.0753H233.799C233.599 99.5223 233.257 99.9011 232.827 100.168C232.871 100.194 232.913 100.222 232.955 100.252H225.758V107.991H233.799C233.597 108.435 233.257 108.814 232.827 109.08C232.872 109.108 232.916 109.136 232.958 109.167H230.034V116.978H233.762C233.559 117.391 233.233 117.741 232.827 117.992C232.908 118.042 232.986 118.096 233.06 118.154H224.502V125.785H233.812C233.613 126.242 233.267 126.633 232.827 126.905C232.857 126.922 232.885 126.941 232.913 126.961H228.221V134.585H233.857C233.679 135.061 233.347 135.471 232.913 135.761H224.097V143.624H233.806C233.606 144.076 233.262 144.46 232.827 144.73C232.863 144.752 232.899 144.775 232.935 144.8H229.014V152.422H233.853C233.671 152.899 233.334 153.309 232.895 153.598H219.958V162.966H218.678V153.598H216.095V162.966H214.816V153.598H198.016V162.966H196.737V153.598H189.617C189.179 153.309 188.841 152.899 188.659 152.422H190.932V144.8H189.578C189.612 144.775 189.648 144.752 189.685 144.73C189.25 144.46 188.906 144.076 188.705 143.624H196.922V135.761H189.6C189.166 135.471 188.832 135.061 188.654 134.585H191.852V126.961H189.598C189.626 126.941 189.656 126.922 189.685 126.905C189.245 126.633 188.899 126.242 188.7 125.785H195.647V118.154H189.451C189.527 118.096 189.603 118.042 189.685 117.992C189.28 117.741 188.954 117.391 188.749 116.978H191.53V109.167H189.553C189.597 109.136 189.64 109.108 189.685 109.08C189.255 108.814 188.914 108.435 188.713 107.991H196.107V100.252H189.557C189.6 100.222 189.642 100.194 189.685 100.168C189.254 99.9011 188.913 99.5223 188.712 99.0753H190.638V91.348H189.545C189.591 91.3163 189.638 91.2845 189.685 91.2551C189.257 90.9904 188.918 90.614 188.716 90.1717H192.894V82.6268H189.307C189.423 82.5221 189.55 82.4268 189.685 82.3433C189.321 82.1174 189.02 81.8104 188.814 81.4504H200.419V73.4619H193.869C193.786 73.498 193.694 73.5181 193.597 73.5181C193.498 73.5181 193.406 73.498 193.323 73.4619H189.635C189.652 73.4512 189.669 73.4407 189.685 73.4305C189.238 73.1538 188.887 72.7547 188.689 72.2856H192.957V64.2969H189.868C189.358 64.0339 188.951 63.6197 188.721 63.1206H192.972C193.039 62.8598 193.292 62.665 193.597 62.665C193.9 62.665 194.154 62.8598 194.219 63.1206H202.257V54.8687H203.536V63.1206H204.924V54.8687H206.203V63.1206H209.879C209.944 62.8598 210.198 62.665 210.503 62.665C210.806 62.665 211.061 62.8598 211.126 63.1206H213.065C213.131 62.8598 213.385 62.665 213.689 62.665C213.992 62.665 214.247 62.8598 214.312 63.1206H220.363V54.8687H221.642ZM192.211 144.8V152.422H203.651V144.8H192.211ZM204.93 144.8V152.422H206.884V144.8H204.93ZM208.164 144.8V152.422H227.735V144.8H208.164ZM198.201 135.761V143.624H210.082V135.761H198.201ZM220.377 135.761H211.361V143.624H220.373V135.824L220.377 135.761ZM221.652 143.624H222.817V135.761H221.648C221.651 135.781 221.652 135.802 221.652 135.824V143.624ZM218.911 126.961V134.585H226.942V126.961H218.911ZM204.966 134.585H217.632V126.961H204.954C204.962 126.997 204.966 127.033 204.966 127.069V134.585ZM203.697 126.961H193.131V134.585H203.687V127.069C203.687 127.034 203.689 126.998 203.697 126.962V126.961ZM214.144 118.154V125.785H223.223V118.154H214.144ZM211.255 118.154V125.785H212.865V118.154H211.255ZM196.926 118.154V125.785H209.976V118.154H196.926ZM202.527 109.167V116.978H218.182V109.167H202.527ZM192.809 109.167V116.978H201.248V109.167H192.809ZM219.461 109.167V116.978H228.755V109.167H219.461ZM208.463 100.252V107.991H209.732V100.252H208.463ZM201.999 107.991H207.184V100.252H197.386V107.991H201.776C201.812 107.985 201.849 107.981 201.887 107.981C201.926 107.981 201.963 107.985 201.999 107.991ZM211.011 100.252V107.991H224.479V100.252H211.011ZM225.309 99.0753H229.02V91.348H218.549V99.0753H224.928C224.988 99.0576 225.052 99.0482 225.118 99.0482C225.185 99.0482 225.249 99.0576 225.309 99.0753ZM215.468 91.348V99.0753H217.27V91.348H215.468ZM191.917 91.348V99.0753H204.449V91.348H191.917ZM205.728 91.348V99.0753H214.189V91.348H205.728ZM194.173 82.6268V90.1717H195.735V82.6268H194.173ZM211.736 82.6268V90.1717H225.177V82.6268H211.736ZM197.014 82.6268V90.1717H210.457V82.6268H197.014ZM203.962 73.4619H201.698V81.4504H203.966C203.963 81.4316 203.962 81.4128 203.962 81.394V73.4619ZM219.425 73.4619H213.961C213.88 73.498 213.786 73.5181 213.689 73.5181C213.59 73.5181 213.498 73.498 213.415 73.4619H210.775C210.692 73.498 210.6 73.5181 210.503 73.5181C210.404 73.5181 210.312 73.498 210.229 73.4619H205.241V81.394C205.241 81.4128 205.241 81.4316 205.238 81.4504H219.428C219.425 81.4316 219.425 81.4128 219.425 81.394V73.4619ZM230.475 73.4619H227.437C227.354 73.498 227.262 73.5181 227.164 73.5181C227.066 73.5181 226.973 73.498 226.891 73.4619H220.704V81.394C220.704 81.4128 220.703 81.4316 220.701 81.4504H230.478C230.476 81.4316 230.475 81.4128 230.475 81.394V73.4619ZM194.236 64.2969V72.2856H209.863V64.2969H194.236ZM211.142 64.2969V72.2856H213.049V64.2969H211.142ZM214.328 64.2969V72.2856H226.524V64.2969H214.328Z" fill="#FDA425"/>
<path fill-rule="evenodd" clip-rule="evenodd" d="M121.981 118.321C121.274 117.885 120.809 117.141 120.809 116.3V111.431C120.809 110.088 121.994 108.996 123.455 108.996H163.649C165.111 108.996 166.296 110.088 166.296 111.431V116.3C166.296 117.141 165.831 117.885 165.124 118.321C165.831 118.759 166.296 119.501 166.296 120.343V125.212C166.296 126.054 165.831 126.797 165.124 127.234C165.831 127.671 166.296 128.414 166.296 129.256V134.124C166.296 134.966 165.831 135.71 165.124 136.146C165.831 136.584 166.296 137.326 166.296 138.168V143.037C166.296 143.879 165.831 144.621 165.124 145.059C165.831 145.495 166.296 146.239 166.296 147.08V151.949C166.296 152.791 165.831 153.533 165.124 153.971C165.831 154.408 166.296 155.151 166.296 155.993V160.862C166.296 162.205 165.111 163.295 163.649 163.295H123.455C121.994 163.295 120.809 162.205 120.809 160.862V155.993C120.809 155.151 121.274 154.408 121.981 153.971C121.274 153.533 120.809 152.791 120.809 151.949V147.08C120.809 146.239 121.274 145.495 121.981 145.059C121.274 144.621 120.809 143.879 120.809 143.037V138.168C120.809 137.326 121.274 136.584 121.981 136.146C121.274 135.71 120.809 134.966 120.809 134.124V129.256C120.809 128.414 121.274 127.671 121.981 127.234C121.274 126.797 120.809 126.054 120.809 125.212V120.343C120.809 119.501 121.274 118.759 121.981 118.321Z" fill="#FFCD80"/>
<path fill-rule="evenodd" clip-rule="evenodd" d="M156.85 117.321H166.052C165.847 117.728 165.524 118.074 165.123 118.321C165.21 118.375 165.293 118.434 165.374 118.498H161.579V126.114V126.115H166.107C165.909 126.573 165.562 126.962 165.123 127.234C165.153 127.253 165.183 127.272 165.213 127.292H157.638V134.858C157.638 134.892 157.636 134.925 157.629 134.957H166.136C165.946 135.438 165.595 135.848 165.144 136.133H162.809V143.75C162.809 143.783 162.806 143.816 162.801 143.847H166.145C165.961 144.326 165.62 144.735 165.177 145.024H158.207V152.774H166.139C165.951 153.256 165.603 153.665 165.154 153.951H162.496V163.295H161.217V153.951H152.966C152.966 153.961 152.967 153.971 152.967 153.98V163.295H151.688V153.98C151.688 153.971 151.688 153.961 151.688 153.951H145.38C145.298 153.986 145.209 154.005 145.114 154.005C145.018 154.005 144.928 153.986 144.847 153.951H136.652V163.295H135.373V153.951H133.137V163.295H131.858V153.951H121.949C121.5 153.665 121.152 153.256 120.964 152.774H129.79V145.024H121.926C121.485 144.735 121.142 144.326 120.958 143.847H124.207V136.133H121.961C121.508 135.848 121.158 135.438 120.967 134.957H128.819V127.292H121.89C121.921 127.272 121.951 127.253 121.981 127.234C121.541 126.962 121.196 126.573 120.996 126.115H123.794V118.498H121.731C121.81 118.434 121.893 118.375 121.981 118.321C121.58 118.074 121.257 117.728 121.051 117.321H126.931V108.996H128.21V117.321H129.52V108.996H130.799V117.321H142.546V108.996H143.825V117.321H155.571V108.996H156.85V117.321ZM131.069 145.024V152.774H144.474V145.024H131.069ZM145.753 145.024V152.774H154.396V145.024H145.753ZM155.675 145.024V152.774H156.928V145.024H155.675ZM125.486 136.133V143.847H135.833V136.133H125.486ZM149.66 136.133H137.112V143.847H149.694C149.672 143.787 149.66 143.723 149.66 143.656V136.133ZM161.53 136.133H150.939V143.656C150.939 143.723 150.927 143.787 150.904 143.847H161.538C161.533 143.816 161.53 143.783 161.53 143.75V136.133ZM130.098 127.292V134.957H139.926V127.292H130.098ZM141.205 127.292V134.957H142.717V127.292H141.205ZM156.359 127.292H143.996V134.957H150.102C150.164 134.938 150.23 134.928 150.299 134.928C150.368 134.928 150.435 134.938 150.497 134.957H156.37C156.363 134.925 156.359 134.892 156.359 134.858V127.292ZM125.073 118.498V126.115H136.336V118.498H125.073ZM137.615 118.498V126.115H147.799V118.498H137.615ZM149.078 118.498V126.115H150.789V118.498H149.078ZM160.3 118.498H152.068V126.115H160.3V126.114V118.498Z" fill="#FDA425"/>
<path fill-rule="evenodd" clip-rule="evenodd" d="M166.311 83.4781H178.632C199.829 83.4781 217.04 101.857 217.04 124.494C217.04 145.381 202.411 162.966 183.496 165.51C181.91 165.724 166.394 165.51 166.394 165.51C145.196 165.51 127.985 147.131 127.985 124.494C127.985 101.886 145.151 83.5252 166.311 83.4781Z" fill="#FDA425"/>
<path d="M166.393 165.51C187.605 165.51 204.8 147.147 204.8 124.494C204.8 101.841 187.605 83.478 166.393 83.478C145.181 83.478 127.985 101.841 127.985 124.494C127.985 147.147 145.181 165.51 166.393 165.51Z" fill="#FFCD80"/>
<path fill-rule="evenodd" clip-rule="evenodd" d="M166.33 100.163L164.986 100.089L165.004 98.2731L167.35 98.4028C167.905 98.4335 168.349 98.8649 168.344 99.3661L168.314 102.437C170.366 102.634 172.333 103.041 174.212 103.658C176.613 104.444 178.874 105.573 180.992 107.041C181.232 107.205 181.382 107.454 181.409 107.72C181.433 107.985 181.331 108.241 181.125 108.422L176.563 112.428C176.219 112.73 175.673 112.75 175.271 112.475C173.182 111.054 170.839 110.128 168.241 109.698L168.138 119.93C177.806 122.324 182.418 126.781 182.224 133.059C182.133 136.47 180.701 139.22 177.944 141.302C175.424 143.278 172.076 144.456 167.889 144.805L167.836 150.081C167.831 150.581 167.378 150.962 166.823 150.931L164.52 150.804L164.538 148.99L165.84 149.062L165.892 143.9C165.896 143.441 166.279 143.076 166.784 143.049C170.903 142.826 174.176 141.79 176.602 139.89C178.94 138.125 180.142 135.801 180.219 132.917C180.394 127.269 175.874 123.549 166.93 121.5C166.458 121.39 166.121 120.997 166.126 120.562L166.246 108.59C166.248 108.339 166.366 108.107 166.569 107.946C166.772 107.786 167.044 107.712 167.32 107.745C170.424 108.093 173.221 109.039 175.709 110.58L178.851 107.821C177.197 106.786 175.454 105.966 173.618 105.366C171.613 104.708 169.503 104.312 167.284 104.171C166.734 104.137 166.295 103.707 166.3 103.209L166.33 100.163ZM167.962 137.462C169.424 137.143 170.495 136.64 171.144 135.909C171.549 135.436 171.847 134.896 172.039 134.289L173.969 134.879C173.706 135.699 173.298 136.43 172.741 137.082C171.676 138.279 169.828 139.108 167.147 139.475C166.851 139.515 166.543 139.432 166.309 139.246C166.077 139.06 165.943 138.793 165.946 138.519L166.01 132.102L168.015 132.213L167.962 137.462ZM157.247 111.182C157.607 110.381 158.073 109.724 158.634 109.205C158.648 109.193 158.664 109.18 158.677 109.167C159.942 108.14 161.438 107.59 163.16 107.517C163.442 107.505 163.726 107.604 163.936 107.787C164.147 107.971 164.265 108.224 164.262 108.48L164.21 113.735L162.205 113.624L162.246 109.481C161.444 109.665 160.723 110.016 160.082 110.532C159.683 110.905 159.362 111.383 159.103 111.956C159.098 111.972 159.09 111.987 159.081 112.002C158.772 112.594 158.625 113.326 158.616 114.185L156.611 114.074C156.623 112.935 156.842 111.973 157.247 111.182Z" fill="#FDA31F"/>
<path fill-rule="evenodd" clip-rule="evenodd" d="M158.26 117.984C157.29 116.912 156.799 115.623 156.814 114.108L158.804 114.219C158.794 115.258 159.107 116.146 159.774 116.88L159.798 116.907C160.32 117.524 161.165 118.036 162.317 118.479L162.365 113.661L164.355 113.772L164.295 119.812C164.293 120.093 164.146 120.35 163.899 120.508C163.655 120.665 163.335 120.707 163.037 120.619C160.736 119.937 159.158 119.034 158.26 117.984Z" fill="#FDA31F"/>
<path fill-rule="evenodd" clip-rule="evenodd" d="M168.024 127.884L167.981 132.217L165.989 132.106L166.043 126.674C166.046 126.408 166.176 126.164 166.399 126.004C166.625 125.844 166.919 125.785 167.207 125.844C169.984 126.411 171.831 127.329 172.812 128.474L172.834 128.502C173.787 129.702 174.262 131.053 174.247 132.559C174.239 133.4 174.119 134.174 173.896 134.878L171.978 134.289C172.157 133.73 172.249 133.115 172.255 132.448C172.266 131.366 171.934 130.395 171.255 129.532C170.637 128.82 169.551 128.291 168.024 127.884Z" fill="#FDA31F"/>
<path fill-rule="evenodd" clip-rule="evenodd" d="M162.301 126.552C152.96 124.162 148.556 119.827 148.831 113.788C148.949 110.144 150.275 107.364 152.748 105.421C155.011 103.644 158.269 102.565 162.547 102.241L162.579 99.0822C162.584 98.5805 163.038 98.1983 163.594 98.2288L165.245 98.3192L165.226 100.136L164.584 100.101L164.554 103.149C164.549 103.611 164.162 103.978 163.652 104.002C159.453 104.213 156.264 105.13 154.113 106.821C152.018 108.467 150.947 110.846 150.845 113.946C150.599 119.356 154.918 122.953 163.523 124.994C163.991 125.105 164.328 125.496 164.323 125.927L164.196 138.485C164.194 138.741 164.07 138.977 163.86 139.138C163.648 139.3 163.367 139.368 163.084 139.329C160.564 138.977 158.433 138.351 156.693 137.466C155.162 136.76 153.794 135.914 152.587 134.925L148.697 137.645C150.549 138.939 152.605 140.058 154.857 141.003C157.486 142.079 160.251 142.712 163.156 142.907C163.708 142.945 164.147 143.373 164.142 143.87L164.089 149.035L164.774 149.073L164.756 150.888L163.062 150.795C162.507 150.764 162.06 150.334 162.065 149.833L162.118 144.639C159.325 144.361 156.654 143.698 154.098 142.651C151.241 141.454 148.695 139.997 146.448 138.283C146.212 138.103 146.072 137.837 146.069 137.563C146.064 137.289 146.199 137.034 146.433 136.87L151.975 132.996C152.366 132.72 152.943 132.766 153.312 133.102C154.518 134.2 155.934 135.119 157.551 135.862L157.594 135.882C158.883 136.541 160.416 137.029 162.192 137.353L162.301 126.552Z" fill="#FDA31F"/>
<path fill-rule="evenodd" clip-rule="evenodd" d="M164.548 91.5952C180.04 91.5952 192.484 106.413 192.484 124.546C192.484 142.677 180.04 157.495 164.548 157.495C163.983 157.495 163.524 157.916 163.524 158.436C163.524 158.955 163.983 159.378 164.548 159.378C181.021 159.378 194.529 143.824 194.529 124.546C194.529 105.266 181.021 89.7134 164.548 89.7134C163.983 89.7134 163.524 90.1349 163.524 90.6543C163.524 91.1737 163.983 91.5952 164.548 91.5952Z" fill="#FDA425"/>
<path fill-rule="evenodd" clip-rule="evenodd" d="M164.548 157.495C149.055 157.495 136.612 142.677 136.612 124.546C136.612 106.413 149.055 91.5952 164.548 91.5952C165.113 91.5952 165.571 91.1737 165.571 90.6543C165.571 90.1349 165.113 89.7134 164.548 89.7134C148.075 89.7134 134.566 105.266 134.566 124.546C134.566 143.824 148.075 159.378 164.548 159.378C165.113 159.378 165.571 158.955 165.571 158.436C165.571 157.916 165.113 157.495 164.548 157.495Z" fill="#FDA425"/>
<path fill-rule="evenodd" clip-rule="evenodd" d="M194.511 162.145H179.856C179.292 162.145 178.833 161.722 178.833 161.204C178.833 160.684 179.292 160.263 179.856 160.263H197.459C197.578 160.263 197.692 160.281 197.798 160.315C196.734 160.98 195.638 161.591 194.511 162.145ZM211.231 146.298C210.86 146.937 210.475 147.565 210.073 148.181H196C195.434 148.181 194.977 147.759 194.977 147.239C194.977 146.72 195.434 146.298 196 146.298H211.231ZM214.007 140.553C213.757 141.19 213.491 141.817 213.213 142.435H197.459C196.894 142.435 196.436 142.014 196.436 141.494C196.436 140.976 196.894 140.553 197.459 140.553H214.007ZM216.935 121.451C216.979 122.076 217.008 122.703 217.025 123.333H202.972C202.407 123.333 201.949 122.912 201.949 122.392C201.949 121.873 202.407 121.451 202.972 121.451H216.935ZM214.699 110.372C214.912 110.994 215.112 111.622 215.298 112.255H199.988C199.424 112.255 198.965 111.833 198.965 111.313C198.965 110.795 199.424 110.372 199.988 110.372H214.699ZM212.599 105.344C212.905 105.962 213.198 106.589 213.474 107.226H199.437C198.873 107.226 198.413 106.805 198.413 106.285C198.413 105.766 198.873 105.344 199.437 105.344H212.599ZM198.986 89.7139C199.869 90.3044 200.727 90.9314 201.561 91.596H185.368C184.804 91.596 184.345 91.1737 184.345 90.6549C184.345 90.135 184.804 89.7139 185.368 89.7139H198.986Z" fill="#FFCD80"/>
<path fill-rule="evenodd" clip-rule="evenodd" d="M132.605 15.458C133.441 12.5743 135.821 4.33119 137.579 0.656239L148.166 6.17452C148.166 6.17452 143.918 21.5821 143.022 26.0044L130.769 23.1067C131.097 20.6952 131.765 18.3592 132.605 15.458Z" fill="#82B5B2"/>
<path d="M138.102 18.6705C140.154 18.6705 141.817 17.0697 141.817 15.0951C141.817 13.1204 140.154 11.5196 138.102 11.5196C136.051 11.5196 134.388 13.1204 134.388 15.0951C134.388 17.0697 136.051 18.6705 138.102 18.6705Z" fill="#A8CFCC" fill-opacity="0.63"/>
<path fill-rule="evenodd" clip-rule="evenodd" d="M135.458 19.4916C136.063 17.9406 139.438 9.8959 141.52 7.47821L151.219 12.4915C151.219 12.4915 145.992 25.2658 144.8 28.9441L133.312 26.0695C133.808 24.0579 134.511 21.9173 135.458 19.4916Z" fill="#A8CFCC"/>
<path d="M142.17 22.329C144.222 22.329 145.885 20.7282 145.885 18.7536C145.885 16.7789 144.222 15.1781 142.17 15.1781C140.119 15.1781 138.456 16.7789 138.456 18.7536C138.456 20.7282 140.119 22.329 142.17 22.329Z" fill="#82B5B2"/>
<path d="M166.164 20.1659C170.689 20.1659 174.358 16.7922 174.358 12.6306C174.358 8.469 170.689 5.09534 166.164 5.09534C161.639 5.09534 157.971 8.469 157.971 12.6306C157.971 16.7922 161.639 20.1659 166.164 20.1659Z" fill="#E86135"/>
<path fill-rule="evenodd" clip-rule="evenodd" d="M160.715 7.0064C162.164 5.8182 164.074 5.09558 166.165 5.09558C170.688 5.09558 174.358 8.47209 174.358 12.6309C174.358 14.0577 173.926 15.3926 173.177 16.5302C167.092 14.0163 167.984 7.9511 167.984 7.9511C164.639 8.95603 162.141 7.93828 160.715 7.0064Z" fill="black"/>
<path fill-rule="evenodd" clip-rule="evenodd" d="M131.055 108.402C131.055 108.402 128.659 104.139 131.055 100.945L126.802 94.0734C126.802 94.0734 124.735 92.8559 122.388 91.4725C117.081 88.3447 114.037 82.8171 114.435 77.0331C114.466 76.5923 114.521 76.1881 114.604 75.8346C112.163 73.717 110.148 68.964 110.889 64.4162C110.889 64.4161 110.889 64.4161 110.889 64.4161C111.922 58.0819 117.643 53.2822 124.596 52.9179C135.785 52.3342 154.987 51.9353 166.792 55.0489L164.137 48.9694C164.137 48.9694 145.246 55.1822 140.461 40.9152C129.616 44.9427 117.539 47.8868 105.598 49.4799C100.606 50.148 95.6803 47.9221 93.2054 43.8789C93.2003 43.8817 93.2003 43.8817 93.2003 43.8817C91.1065 40.4619 91.7754 36.1748 94.8298 33.434C97.9007 30.7091 103.138 27.1841 112.083 23.1286C112.083 23.1286 121.042 18.7713 126.289 16.2197C128.634 15.0799 131.413 14.9806 133.846 15.95C139.014 18.0088 147.553 21.4111 147.553 21.4111L148.551 19.0952C154.48 20.0034 160.306 21.6554 166.019 23.6998C172.085 25.878 176.786 30.4212 178.849 36.1009C183.929 50.0873 193.522 76.9417 194.78 83.6688H198.377C200.398 83.6688 202.149 84.958 202.59 86.7719C202.934 88.1894 203.267 89.5575 203.267 89.5575C203.267 89.5575 205.558 91.9136 206.228 94.0734C206.5 94.9532 204.974 95.979 203.267 94.331C202.762 93.8428 197.855 90.2821 195.651 90.0598C193.966 89.8892 192.474 89.7116 191.084 89.5551C186.816 89.074 183.027 86.8084 180.816 83.4147C179.337 81.1468 177.978 79.06 177.978 79.06C177.978 79.06 173.368 85.8591 160.714 84.6322L162.68 108.135C162.68 108.135 160.155 107.586 159.311 103.791C159.311 103.791 145.051 102.044 136.929 98.881C136.929 98.881 133.725 101.806 131.055 108.402Z" fill="url(#paint2_linear_52_1485)"/>
<path fill-rule="evenodd" clip-rule="evenodd" d="M194.714 83.3323C194.738 83.4499 194.76 83.5617 194.78 83.6687H196.483C197.307 84.2004 198.559 85.0356 199.916 86.0308L200.352 85.579C200.54 85.385 200.864 85.3673 201.075 85.5402C201.286 85.712 201.305 86.0096 201.117 86.2037L200.711 86.6236C201.481 87.2083 202.264 87.8341 203.005 88.4763L203.267 89.5574L194.931 83.8287C194.748 83.7181 194.668 83.517 194.714 83.3323Z" fill="#D7441E"/>
<path fill-rule="evenodd" clip-rule="evenodd" d="M146.068 101.499L153.153 83.0006C153.27 82.6935 153.636 82.5324 153.969 82.6406C154.301 82.7488 154.477 83.0841 154.36 83.3911L147.32 101.77C146.905 101.683 146.488 101.592 146.068 101.499ZM126.802 94.0733C126.802 94.0733 129.544 95.4296 131.904 96.5518C134.895 97.9763 138.027 99.3079 136.929 98.8809C136.929 98.8809 136.624 99.1609 136.122 99.7408C133.433 98.6327 130.336 97.1388 127.962 95.9483L126.802 94.0733ZM113.628 74.8188C115.681 65.7629 123.355 60.6175 132.283 57.7555C144.902 53.7099 160.011 54.2582 164.737 54.5571C165.432 54.7075 166.441 54.9065 167.091 55.0773C167.128 55.1619 167.413 55.3242 167.403 55.4208C167.366 55.7437 167.853 55.9801 167.501 55.9468C167.501 55.9468 147.878 54.8065 132.704 58.8663C123.282 61.3867 116.769 67.6658 114.604 75.8345C114.269 75.5434 113.941 75.2024 113.628 74.8188Z" fill="#D7441E"/>
<path fill-rule="evenodd" clip-rule="evenodd" d="M160.828 85.7955C158.471 85.4626 155.481 84.5604 152.327 83.3805C143.084 79.9268 132.385 74.1467 132.385 74.1467C132.081 73.9823 131.98 73.6215 132.157 73.3417C132.337 73.0618 132.729 72.9681 133.034 73.1325C133.034 73.1325 143.642 78.8658 152.808 82.2912C156.115 83.5275 161.001 84.6592 160.715 84.6321L160.828 85.7955Z" fill="#8A2208"/>
<path fill-rule="evenodd" clip-rule="evenodd" d="M166.063 53.3777L164.137 48.9694C164.137 48.9694 145.246 55.1822 140.461 40.9152C129.616 44.9427 117.539 47.8868 105.598 49.4799C100.606 50.148 95.6803 47.9221 93.2054 43.8789C93.2003 43.8817 93.2003 43.8817 93.2003 43.8817C91.1065 40.4619 91.7754 36.1748 94.8298 33.434C97.9007 30.7091 103.138 27.1841 112.083 23.1286C112.083 23.1286 121.042 18.7713 126.289 16.2197C128.634 15.0799 131.413 14.9806 133.846 15.95C139.014 18.0088 147.553 21.4111 147.553 21.4111L148.551 19.0952C154.48 20.0034 160.306 21.6554 166.019 23.6998C172.085 25.878 176.786 30.4212 178.849 36.1008C181.9 44.5011 186.579 57.5431 190.102 68.0777L175.377 72.2073C172.184 66.0473 168.945 59.9373 166.115 53.3855L166.063 53.3777Z" fill="#D7441E"/>
<path fill-rule="evenodd" clip-rule="evenodd" d="M161.398 49.6599C160.93 47.5091 160.819 45.2518 160.863 42.949C160.864 42.8223 160.964 42.7147 161.1 42.6914C161.235 42.668 161.369 42.7353 161.422 42.8524C162.67 45.651 165.727 52.5003 165.727 52.5003H165.68L164.137 48.9694C164.137 48.9694 163.077 49.3178 161.398 49.6599ZM120.916 35.7433L105.198 43.8866C104.89 44.0459 104.781 44.4049 104.954 44.6877C105.128 44.9705 105.518 45.0708 105.826 44.9115L121.544 36.7683C121.852 36.609 121.961 36.25 121.787 35.9672C121.614 35.6843 121.224 35.584 120.916 35.7433ZM137.151 42.0977C137.746 38.1414 139.16 35.3671 140.145 33.8367C140.208 33.7523 140.329 33.7232 140.43 33.7685C140.53 33.8137 140.58 33.9196 140.545 34.0175C139.529 37.3793 140.402 40.7013 140.458 40.9053L140.461 40.9151C139.37 41.3204 138.266 41.7146 137.151 42.0977Z" fill="#8A2208"/>
<path fill-rule="evenodd" clip-rule="evenodd" d="M112.77 22.7945L126.289 16.2196C128.633 15.0798 131.413 14.9805 133.846 15.9499L147.181 21.2629C147.27 21.3177 147.352 21.3671 147.425 21.4109C149.648 22.7507 147.892 24.0752 147.27 23.8862C148.789 24.5497 148.737 25.6524 148.379 26.1302C147.79 26.9185 145.679 26.6309 145.679 26.6309C146.266 26.8234 146.805 27.8771 146.349 28.6586C145.618 29.915 143.616 29.1517 143.616 29.1517C143.979 30.9039 142.01 30.9096 139.606 30.4416C137.745 30.0791 136.892 29.6957 135.309 29.3324C132.749 35.609 125.107 34.8841 125.107 34.8841L120.072 37.5096L112.77 22.7945Z" fill="url(#paint3_linear_52_1485)"/>
<path fill-rule="evenodd" clip-rule="evenodd" d="M143.624 29.1882L135.066 26.1329C134.802 26.0389 134.672 25.766 134.774 25.5239C134.876 25.2819 135.173 25.1616 135.437 25.2556L146.027 29.0368C145.155 29.7384 143.616 29.1517 143.616 29.1517C143.619 29.1641 143.621 29.1762 143.624 29.1882ZM145.808 26.6877L136.079 23.2138C135.815 23.1198 135.685 22.847 135.787 22.6049C135.889 22.3628 136.186 22.2426 136.45 22.3365L147.602 26.3183C147.704 26.3548 147.786 26.4182 147.842 26.4964C146.998 26.8106 145.679 26.6309 145.679 26.6309C145.723 26.6452 145.766 26.6643 145.808 26.6877ZM147.374 23.9033L137.245 20.287C136.982 20.193 136.85 19.9201 136.952 19.678C137.055 19.4359 137.351 19.3157 137.615 19.4097L148.395 23.2585C148.171 23.6641 147.689 23.9205 147.374 23.9033Z" fill="#D7441E"/>
<path fill-rule="evenodd" clip-rule="evenodd" d="M116.706 159.31C115.982 158.862 115.503 158.101 115.503 157.238V152.25C115.503 150.873 116.719 149.756 118.216 149.756H159.403C160.899 149.756 162.114 150.873 162.114 152.25V157.238C162.114 158.101 161.637 158.862 160.912 159.31C161.637 159.758 162.114 160.519 162.114 161.381V166.37C162.114 167.748 160.899 168.865 159.403 168.865H118.216C116.719 168.865 115.503 167.748 115.503 166.37V161.381C115.503 160.519 115.982 159.758 116.706 159.31Z" fill="#FFDBA3"/>
<path fill-rule="evenodd" clip-rule="evenodd" d="M149.805 158.299H161.857C161.647 158.71 161.319 159.059 160.912 159.31C160.995 159.362 161.074 159.417 161.151 159.476H157.246V168.865H155.967V159.476H145.276V168.865H143.997V159.476H142.364V168.865H141.085V159.476H124.57V168.865H123.291V159.476H116.468C116.543 159.417 116.623 159.362 116.706 159.31C116.3 159.059 115.971 158.71 115.762 158.299H130.733V149.756H132.012V158.299H133.644V149.756H134.923V158.299H148.526V149.756H149.805V158.299Z" fill="#FDA425"/>
<defs>
<linearGradient id="paint0_linear_52_1485" x1="42.6288" y1="119.375" x2="42.4092" y2="186.612" gradientUnits="userSpaceOnUse">
<stop stop-color="#A8CFCC"/>
<stop offset="1" stop-color="#59A09B"/>
</linearGradient>
<linearGradient id="paint1_linear_52_1485" x1="51.009" y1="66.6842" x2="53.8675" y2="126.4" gradientUnits="userSpaceOnUse">
<stop stop-color="#82B5B2"/>
<stop offset="0.45" stop-color="#A7C6C1"/>
<stop offset="1" stop-color="#FFF0E6"/>
</linearGradient>
<linearGradient id="paint2_linear_52_1485" x1="170.812" y1="78.9023" x2="104.018" y2="14.5459" gradientUnits="userSpaceOnUse">
<stop stop-color="#E86135"/>
<stop offset="0.48" stop-color="#EE734F"/>
<stop offset="1" stop-color="#FFA396"/>
</linearGradient>
<linearGradient id="paint3_linear_52_1485" x1="130.684" y1="28.349" x2="135.077" y2="-3.0163" gradientUnits="userSpaceOnUse">
<stop stop-color="#E86135"/>
<stop offset="1" stop-color="#FFA396"/>
</linearGradient>
</defs>
</svg>
