<svg width="309" height="245" viewBox="0 0 309 245" fill="none" xmlns="http://www.w3.org/2000/svg">
<path d="M259.043 107.349H36.6921V244.652H259.043V107.349Z" fill="#FFF0E6"/>
<path fill-rule="evenodd" clip-rule="evenodd" d="M251.744 199.851H217.413V233.534H251.744V199.851ZM209.036 173.341H174.706V233.534H209.036V173.341ZM166.329 161.915H131.998V233.534H166.329V161.915ZM123.621 148.322H89.2905V233.534H123.621V148.322ZM80.9131 209.472H46.5828V233.534H80.9131V209.472Z" fill="#FFA396"/>
<path fill-rule="evenodd" clip-rule="evenodd" d="M243.413 155.072L245.1 150.64L256.473 165.655L238.365 168.328L240.146 163.651L141.504 121.547L132.371 138.276L115.704 129.505L81.9061 218.885L59.082 207.161C54.2327 215.533 50.2061 222.807 47.0275 227.548L39.822 222.234C43.3733 216.939 47.9916 208.406 53.666 198.742L55.7626 195.171L77.2283 206.198L111.061 116.728L128.869 126.099L137.688 109.946L243.413 155.072Z" fill="#CD0000"/>
<path fill-rule="evenodd" clip-rule="evenodd" d="M237.032 150.343L235.255 59.715L164.128 43.8628L87.1709 26.2295C73.4393 23.0831 59.1326 23.7753 45.7527 28.2332L30.5137 33.3105L9.49363 60.8499C9.08917 61.3797 8.34014 61.4741 7.82191 61.0605C7.30384 60.6468 7.21155 59.8808 7.61602 59.3509L29.084 31.2248L45.0149 25.9169C58.8013 21.3237 73.5427 20.6105 87.6916 23.8525C116.585 30.4729 164.646 41.4849 164.637 41.4834L237.599 57.7441L239.423 150.801L241 148.708C241.219 148.417 241.629 148.362 241.914 148.587C242.197 148.812 242.25 149.229 242.031 149.521L239.466 152.926L239.676 163.641C239.689 164.314 239.166 164.87 238.509 164.885C237.853 164.898 237.307 164.362 237.294 163.691L237.076 152.547L234.744 149.527C234.521 149.239 234.57 148.82 234.851 148.592C235.133 148.364 235.543 148.414 235.764 148.702L237.032 150.343Z" fill="black"/>
<path fill-rule="evenodd" clip-rule="evenodd" d="M70.8429 53.216C70.8429 53.216 50.0348 59.825 33.7566 64.995C29.3632 66.3903 25.885 69.88 24.4173 74.365C22.9497 78.8497 23.6736 83.7772 26.3608 87.5955C32.3352 96.0838 38.3709 104.66 38.3709 104.66C38.3709 104.66 35.6566 105.49 35.937 107.317L67.7289 107.729L55.2354 88.8134C55.2354 88.8134 82.2492 86.7181 89.1846 82.9901L130.375 104.742C130.375 104.742 125.597 105.551 125.339 107.785L148.889 107.459C148.889 107.459 155.211 102.195 157.819 100.022C158.084 99.802 158.234 99.468 158.227 99.1188C158.219 98.7695 158.053 98.4448 157.779 98.24C149.82 92.2778 102.853 57.2972 93.7699 55.359C93.7699 55.359 84.7662 49.3732 70.8429 53.216Z" fill="url(#paint0_linear_52_1143)"/>
<path fill-rule="evenodd" clip-rule="evenodd" d="M93.4118 55.3907C93.6477 55.5257 93.7688 55.6054 93.7688 55.6054C94.5805 55.7771 95.6951 56.2102 97.0562 56.8604C98.4036 58.3435 99.6798 60.285 100.42 62.7497C101.135 65.1327 101.353 68.0085 100.635 71.4361L140.391 95.514L147.346 90.4158L147.743 90.7046C147.909 90.8252 148.074 90.9456 148.238 91.0659L148.46 91.2273L129.993 104.765C129.754 104.94 129.437 104.927 129.216 104.753C129.879 104.573 130.359 104.492 130.359 104.492L129.095 103.831C129.134 103.779 129.182 103.731 129.237 103.69L139.236 96.3601L100.31 72.7845C100.186 73.2447 100.044 73.7145 99.8856 74.1937C98.9135 77.1278 96.4087 80.8933 90.6389 83.7183L89.1809 82.9557C88.3031 83.4228 87.1035 83.8639 85.679 84.2777C85.7293 84.2438 85.7853 84.2165 85.8458 84.1973C94.218 81.5568 97.5429 77.1275 98.6536 73.7754C100.092 69.435 100.011 65.9275 99.1757 63.1428C97.9937 59.2046 95.3164 56.7246 93.4118 55.3907ZM86.5863 52.8969C87.0864 53.0054 87.5631 53.1225 88.0157 53.2452C88.0964 53.6351 88.1521 54.0285 88.2131 54.3869C88.5127 56.1442 88.7072 57.8979 88.6045 59.6863C88.2829 65.2843 86.1031 70.6948 80.8304 73.0916C77.6608 74.5323 73.8786 75.1173 70.4263 75.058C67.5636 75.0087 64.1044 74.6805 61.2637 74.4728C54.7749 73.9984 49.4028 73.1951 41.7029 74.1513C38.9767 74.4899 36.9333 75.464 35.7511 77.1428C34.5651 78.8269 34.2679 81.1883 34.9218 84.2178C35.3728 86.3066 36.2648 88.2383 37.254 90.1086C38.7811 92.9955 40.3485 95.9665 42.1698 98.6767L61.2659 97.7531L62.1228 99.0379L42.4949 99.9872C42.4578 100.035 42.4136 100.077 42.3626 100.114C42.0961 100.306 41.737 100.267 41.5184 100.035L35.4817 100.326L34.5704 99.0442L40.648 98.7503C38.9892 96.1892 37.5304 93.4301 36.1083 90.7415C35.0624 88.7639 34.1284 86.7173 33.6515 84.5083C32.8987 81.0204 33.3303 78.3125 34.6956 76.3737C36.0646 74.4296 38.395 73.2279 41.5518 72.8359C49.3502 71.8675 54.7912 72.6705 61.3629 73.151C64.1816 73.3571 67.6141 73.6841 70.4546 73.733C73.7226 73.7892 77.3049 73.2457 80.3054 71.8817C85.1107 69.6976 87.0131 64.7168 87.3063 59.6151C87.403 57.9292 87.2141 56.2764 86.9318 54.6196C86.8399 54.0808 86.7961 53.4334 86.5863 52.8969Z" fill="#D7441E"/>
<path fill-rule="evenodd" clip-rule="evenodd" d="M56.2648 90.2564L56.521 90.6416L56.4925 90.6503C56.4191 90.5184 56.3431 90.387 56.2648 90.2564ZM55.4428 89.0212C52.1261 84.4816 46.2023 80.7986 43.0638 79.0488C42.8211 78.9146 42.7021 78.6264 42.777 78.354C42.8518 78.0817 43.1007 77.8975 43.377 77.9096C50.7857 78.5248 58.6192 85.6515 61.1315 88.1242C57.5934 88.4795 55.2046 88.663 55.2046 88.663L55.4428 89.0212Z" fill="#711801"/>
<path d="M55.0415 18.6559C58.8362 18.7404 62.0008 15.6407 62.1099 11.7327C62.219 7.82472 59.2312 4.58822 55.4365 4.5038C51.6419 4.41939 48.4772 7.51901 48.3682 11.427C48.2591 15.335 51.2468 18.5715 55.0415 18.6559Z" fill="#E86135"/>
<path fill-rule="evenodd" clip-rule="evenodd" d="M52.1636 5.30303C53.1453 4.79212 54.2598 4.5149 55.4348 4.54232C59.2273 4.63063 62.2213 7.85761 62.1166 11.7442C62.0366 14.7096 60.1757 17.2075 57.6135 18.1858L55.9319 14.2109C56.2075 14.2387 56.5007 14.1951 56.7859 14.0702C57.6561 13.6888 58.1243 12.6922 57.8308 11.846C57.5374 10.9996 56.5927 10.6222 55.7226 11.0035C55.3669 11.1594 55.0783 11.4183 54.8814 11.7277L52.1636 5.30303Z" fill="black"/>
<path fill-rule="evenodd" clip-rule="evenodd" d="M70.7747 21.7576C62.8176 20.857 45.3852 21.7581 31.4041 22.9159C28.7692 23.1357 26.3228 24.4368 24.6143 26.5275C22.9057 28.618 22.0785 31.3226 22.3181 34.0339C22.5041 36.0679 22.9841 38.1244 23.9721 39.9158C23.9721 39.9158 22.5467 44.0394 26.8783 46.9591C28.1897 47.8406 29.6874 48.3869 31.2484 48.5531C34.5899 48.8775 43.5989 49.4899 55.7249 48.2063C55.7249 48.2063 66.5674 57.189 78.5365 49.9824C88.0344 44.2637 89.4549 23.8722 70.7747 21.7576Z" fill="url(#paint1_linear_52_1143)"/>
<path fill-rule="evenodd" clip-rule="evenodd" d="M23.9494 39.8873C26.0188 41.4042 29.6308 43.3185 33.8542 43.5083C42.3454 43.8908 65.4196 44.9277 65.4196 44.9277C65.7783 44.9438 66.0552 45.2508 66.0375 45.6128C66.0197 45.9747 65.7141 46.2553 65.3554 46.2392C65.3554 46.2392 42.2811 45.2022 33.7898 44.8198C30.0223 44.6505 26.4963 43.1529 23.7794 40.6696C23.8455 40.1823 23.9494 39.8873 23.9494 39.8873Z" fill="#D7441E"/>
<path fill-rule="evenodd" clip-rule="evenodd" d="M49.2909 21.8583C57.9836 21.4698 66.0385 21.3888 70.7614 21.9288C89.4618 24.0669 88.4243 44.3274 78.8039 49.7466C68.1339 55.757 58.2361 51.7708 55.2939 48.2045C54.466 47.2012 53.9599 44.4182 53.9599 44.4182L47.5649 44.0565L40.0491 34.127L49.2909 21.8583Z" fill="#D7441E"/>
<path fill-rule="evenodd" clip-rule="evenodd" d="M53.9658 44.4329C53.9658 44.4329 60.8347 44.3493 64.6086 44.4257C64.7793 44.4291 64.9219 44.5577 64.9463 44.7299C64.9706 44.902 64.8694 45.0671 64.7068 45.1203L55.2924 48.2033C54.4689 47.1935 53.9658 44.4329 53.9658 44.4329Z" fill="#711801"/>
<path fill-rule="evenodd" clip-rule="evenodd" d="M180.189 47.9825C180.325 48.1117 173.749 57.0871 161.613 52.3034C159.401 51.4317 149.188 43.9102 156.327 29.939C158.236 26.2035 166.517 15.2013 184.957 21.9803C187.154 22.788 191.099 24.607 198.136 29.939C200.754 31.9237 220.95 50.0268 232.418 54.6926C234.702 55.6223 235.079 55.8986 237.114 56.8958C237.688 57.1778 238.242 58.2626 236.046 58.7429C236.046 58.7429 238.214 58.6323 237.293 60.2751C237.293 60.2751 235.89 62.2428 235.027 63.4528C234.578 64.0832 233.852 64.4462 233.09 64.4231C232.428 64.4023 231.687 64.3106 231.336 64.0173C231.336 64.0173 229.812 66.2811 226.505 64.5244C226.505 64.5244 225.097 67.965 218.531 64.0173C215.787 62.3678 213.619 61.3328 211.438 60.4732V64.0173L269.622 89.374C269.622 89.374 271.691 88.8863 274.948 89.374L256.108 107.481L209.828 95.2254V103.983C209.828 103.983 213.699 105.254 214.155 107.481H183.646V93.0336C183.646 93.0336 154.603 95.7913 159.955 72.069C160.464 69.8105 167.561 53.3056 183.646 49.7404L180.189 47.9825Z" fill="url(#paint2_linear_52_1143)"/>
<path fill-rule="evenodd" clip-rule="evenodd" d="M211.943 80.9858V80.9851L245.146 93.5952L252.08 81.7295L253.289 82.2564L246.15 94.4709C246.149 94.538 246.134 94.6056 246.111 94.6718C246.058 94.8193 245.958 94.936 245.836 95.0111L240.901 103.454L239.588 103.106L244.466 94.7577L211.865 82.376V82.3759L211.904 81.6881L211.943 80.9858ZM159.42 75.2618C159.892 77.229 161.124 79.0467 163.184 79.4385C165.697 79.9166 168.528 78.3233 170.596 77.0384C173.284 75.3686 175.23 73.1148 177.052 70.7383C178.936 68.278 180.686 65.6864 182.921 63.4246C183.988 62.3438 185.448 61.187 187.004 60.6785C188.129 60.3115 189.301 60.2735 190.434 60.7791C191.886 61.4277 193.064 62.7654 193.949 64.3724C195.217 66.6763 195.885 69.5244 195.992 71.457C196.49 80.5185 196.269 88.8531 196.096 97.8756L209.829 97.9159V99.2476L183.647 99.1709V97.8392L194.794 97.8718C194.965 88.8759 195.19 80.5666 194.692 71.5319C194.594 69.757 193.979 67.1416 192.815 65.0254C192.078 63.6856 191.124 62.5403 189.913 61.9994C188.863 61.5306 187.766 61.7317 186.752 62.2051C185.639 62.7251 184.622 63.5764 183.837 64.3709C181.641 66.5928 179.928 69.1428 178.077 71.5596C176.16 74.0603 174.099 76.4193 171.272 78.1765C168.959 79.6137 165.758 81.2826 162.945 80.7477C161.369 80.4478 160.154 79.4958 159.311 78.242C159.275 77.3074 159.309 76.3151 159.42 75.2618ZM211.438 64.0173L212.633 64.5382L211.878 82.0576L211.069 95.5539L209.829 95.2255V96.9187C209.744 96.7978 209.698 96.6475 209.708 96.4879C209.708 96.4879 211.417 70.0694 211.422 62.4291L211.424 62.3759C211.428 62.3046 211.433 62.2337 211.438 62.1642V64.0173ZM181.817 48.8108C182.301 48.7166 183.087 48.5705 184.091 48.4087L179.527 44.3887C179.255 44.149 179.224 43.7282 179.459 43.4497C179.693 43.1712 180.105 43.1399 180.377 43.3796L185.588 47.9697C185.652 48.025 185.701 48.0899 185.738 48.1603C188.246 47.8079 191.531 47.4632 194.841 47.4519C199.511 47.4359 204.218 48.1112 206.975 50.2604C208.362 51.3415 212.633 54.7434 212.765 61.0196C212.32 60.8278 211.879 60.647 211.438 60.4733V60.5056C211.088 55.1697 207.4 52.2669 206.186 51.3192C203.614 49.3141 199.202 48.7687 194.845 48.7835C189.514 48.8019 184.249 49.7019 182.317 50.0696C182.753 49.9504 183.196 49.8404 183.647 49.7405L181.817 48.8108ZM211.865 82.3759L211.878 82.0576L211.943 80.9858L211.904 81.6881L211.865 82.3759Z" fill="#FD9500"/>
<path fill-rule="evenodd" clip-rule="evenodd" d="M225.649 65.4464L222.301 63.1815C222 62.979 221.918 62.5655 222.117 62.2589C222.314 61.9524 222.719 61.868 223.018 62.0708L227.003 64.7654C226.842 64.6951 226.676 64.6152 226.505 64.5245C226.505 64.5245 226.293 65.043 225.649 65.4464ZM230.385 64.8202L225.577 61.4575C225.279 61.2503 225.204 60.8355 225.406 60.5322C225.61 60.2287 226.015 60.1508 226.311 60.3582L231.925 64.2838C231.686 64.2224 231.477 64.1365 231.336 64.0173C231.336 64.0173 231.026 64.4759 230.385 64.8202ZM237.509 59.4296C236.394 59.1597 235.686 59.1805 235.242 59.316C235.144 59.346 235.061 59.3858 234.998 59.4242L235.401 59.8118C235.663 60.0631 235.678 60.4847 235.432 60.7529C235.187 61.0211 234.773 61.0347 234.511 60.7834L231.897 58.2767C231.635 58.0255 231.62 57.6037 231.866 57.3355C232.112 57.0675 232.525 57.0539 232.787 57.3051L234.02 58.4861C234.479 58.0764 235.458 57.6403 237.473 58.0585C237.267 58.3211 236.832 58.5708 236.046 58.7429C236.046 58.7429 237.369 58.6755 237.509 59.4296Z" fill="#FD9500"/>
<path fill-rule="evenodd" clip-rule="evenodd" d="M180.282 48.0299L180.189 47.9825C180.325 48.1116 173.749 57.0871 161.613 52.3034C159.401 51.4317 149.188 43.9102 156.327 29.939C158.236 26.2035 166.517 15.2013 184.957 21.9803C186.659 22.6059 189.408 23.8377 193.829 26.8378C194.387 29.1412 194.311 33.0595 188.424 35.1207C188.424 35.1207 191.593 43.3804 182.097 44.6871C182.097 44.6871 181.531 46.2425 180.282 48.0299Z" fill="#FD9500"/>
<path fill-rule="evenodd" clip-rule="evenodd" d="M178.697 93.0699L183.586 73.1315C183.637 72.9251 183.83 72.7913 184.037 72.8214C184.244 72.8515 184.394 73.036 184.385 73.2485L183.64 93.0343C183.515 93.0458 181.509 93.2227 178.697 93.0699ZM180.186 48.0078C180.066 48.1416 179.94 48.2588 179.815 48.3528C179.815 48.3528 174.102 41.1815 171.205 37.5452C171.083 37.392 171.089 37.1703 171.221 37.0253C171.351 36.8802 171.568 36.8562 171.726 36.9689C174.719 39.0491 179.978 42.7954 181.964 44.7884C181.964 44.7884 181.171 46.9115 180.202 47.9898L180.189 47.9826C180.193 47.9858 180.191 47.9943 180.186 48.0078Z" fill="#D7441E"/>
<path fill-rule="evenodd" clip-rule="evenodd" d="M152.808 11.5505C152.684 11.6091 152.852 11.275 152.856 11.1358C152.866 10.8763 152.869 10.6166 152.876 10.3571C152.894 9.60358 152.865 8.85019 152.869 8.09663C152.881 6.55539 152.55 2.17154 154.315 1.41699C155.194 1.04112 155.43 2.70953 155.443 3.268C155.493 5.42664 154.028 7.07474 153.726 9.08922C153.711 9.18943 153.794 8.89863 153.831 8.80491C153.91 8.61115 153.984 8.41606 154.066 8.22347C154.297 7.67815 154.53 7.13417 154.771 6.59334C155.531 4.88548 156.27 3.04994 157.396 1.55131C157.663 1.19493 158.446 0.23363 158.984 0.653938C159.785 1.27949 158.698 3.05027 158.343 3.64852C157.564 4.96022 156.554 6.11045 155.713 7.37786C154.858 8.66176 154.17 10.0888 153.298 11.3487" fill="#FFB000"/>
<path d="M159.411 21.1805C163.281 21.1805 166.419 17.9715 166.419 14.013C166.419 10.0545 163.281 6.84546 159.411 6.84546C155.54 6.84546 152.402 10.0545 152.402 14.013C152.402 17.9715 155.54 21.1805 159.411 21.1805Z" fill="#FFB000"/>
<path d="M144.313 18.2786C149.249 18.2786 153.25 14.1868 153.25 9.13931C153.25 4.09181 149.249 0 144.313 0C139.378 0 135.377 4.09181 135.377 9.13931C135.377 14.1868 139.378 18.2786 144.313 18.2786Z" fill="black"/>
<path fill-rule="evenodd" clip-rule="evenodd" d="M153.952 18.5061C152.982 17.2765 152.402 15.7134 152.402 14.0127C152.402 10.057 155.542 6.84534 159.409 6.84534C160.428 6.84534 161.395 7.06772 162.269 7.46789C162.085 9.91483 160.783 14.7167 153.952 18.5061Z" fill="black"/>
<path fill-rule="evenodd" clip-rule="evenodd" d="M156.172 118.212C156.172 118.212 153.13 117.735 155.262 114.678C155.876 113.799 158.439 112.602 159.958 116.235C159.958 116.235 162.782 114.866 163.491 118.498C163.491 118.498 166.128 117.194 167.033 120.857C167.033 120.857 169.709 120.508 170.062 124.265C170.589 129.87 171.027 133.897 171.349 138.361C171.349 138.361 172.155 146.929 178.124 152.227C178.124 152.227 181.724 139.978 194.805 143.979L206.991 148.906C206.991 148.906 213.886 146.511 217.195 151.436C219.516 149.642 223.261 146.453 224.278 145.491C224.779 145.016 225.801 144.627 226.343 144.925C226.797 145.174 227.103 146.077 226.57 146.681C226.57 146.681 227.699 145.714 228.627 146.523C228.987 146.836 229.283 147.478 228.806 148.6C228.806 148.6 229.973 147.508 230.829 148.249C231.164 148.537 231.76 149.263 230.972 150.493C230.972 150.493 232.234 149.457 233.054 150.275C233.419 150.637 233.723 151.387 231.565 154.141C230.979 154.887 230.381 155.626 229.773 156.359C224.184 163.167 214.966 165.562 206.879 162.305C201.687 160.224 196.905 158.298 196.905 158.298C196.905 158.298 203.527 170.599 203.482 177.72C203.443 184.064 200.749 190.654 193.049 192.57C191.265 193.016 189.408 193.068 187.603 192.72C182.559 191.751 171.351 188.101 172.632 174.859C172.632 174.859 163.047 168.447 156.724 158.023C151.851 150.003 150.62 140.217 153.35 131.198C154.748 126.566 156.361 120.59 156.172 118.212Z" fill="#A8CFCC"/>
<path fill-rule="evenodd" clip-rule="evenodd" d="M225.603 156.469C225.603 156.469 231.039 150.388 230.972 150.493C230.972 150.493 231.851 149.77 232.62 150.007C232.613 150.015 232.608 150.022 232.602 150.028L226.327 157.138C226.147 157.342 225.837 157.357 225.637 157.173C225.437 156.99 225.422 156.673 225.603 156.469ZM223.145 154.812C223.145 154.812 228.814 148.58 228.806 148.6C228.806 148.6 229.76 147.708 230.577 148.084L223.861 155.491C223.679 155.693 223.37 155.706 223.171 155.518C222.974 155.33 222.963 155.014 223.145 154.812ZM226.591 146.664C226.726 146.556 227.502 145.98 228.259 146.291L221.593 153.647C221.409 153.85 221.099 153.862 220.902 153.674C220.704 153.487 220.692 153.171 220.876 152.968L226.591 146.664Z" fill="#82B5B2"/>
<path fill-rule="evenodd" clip-rule="evenodd" d="M166.737 124.074C166.962 122.938 167.024 120.817 167.033 120.857C167.033 120.857 167.45 120.802 167.976 120.968C167.966 121.796 167.912 123.176 167.694 124.272C167.64 124.544 167.383 124.718 167.12 124.663C166.854 124.608 166.683 124.344 166.737 124.074ZM164.465 118.274C164.558 119.125 164.629 120.592 164.371 122.466C164.333 122.739 164.086 122.929 163.819 122.89C163.552 122.852 163.366 122.599 163.404 122.326C163.638 120.627 163.586 119.288 163.506 118.491C163.583 118.456 163.968 118.29 164.465 118.274ZM160.116 120.948C160.411 118.272 159.903 116.102 159.958 116.235C159.958 116.235 160.332 116.054 160.842 115.998C161.075 116.936 161.35 118.669 161.086 121.06C161.055 121.334 160.814 121.531 160.546 121.501C160.279 121.47 160.085 121.222 160.116 120.948ZM155.3 117.887C155.345 117.138 155.36 116.646 155.36 116.646C155.37 116.37 155.594 116.153 155.865 116.162C156.133 116.171 156.345 116.402 156.337 116.677C156.337 116.677 156.206 118.64 156.172 118.212C156.172 118.212 155.729 118.143 155.3 117.887Z" fill="#82B5B2"/>
<path fill-rule="evenodd" clip-rule="evenodd" d="M171.33 138.083L171.35 138.361C171.35 138.361 172.155 146.929 178.124 152.227C178.124 152.227 181.724 139.977 194.805 143.979L204.209 147.783L206.581 162.185C201.506 160.151 196.905 158.298 196.905 158.298C196.905 158.298 203.528 170.599 203.482 177.72C203.443 184.064 200.749 190.654 193.049 192.57C191.265 193.016 189.408 193.068 187.603 192.72C182.559 191.751 171.351 188.101 172.632 174.859C172.632 174.859 163.047 168.447 156.724 158.023C153.141 152.126 151.527 145.274 152.009 138.474L171.33 138.083Z" fill="#82B5B2"/>
<path fill-rule="evenodd" clip-rule="evenodd" d="M172.632 174.859C172.632 174.859 178.239 178.301 182.844 180.502C183.059 180.588 183.179 180.823 183.127 181.053C183.075 181.284 182.863 181.439 182.634 181.419C179.88 181.226 175.589 180.73 172.709 179.443C172.508 178.06 172.469 176.537 172.632 174.859ZM193.85 164.946C181.525 156.449 177.539 151.709 178.124 152.227C178.124 152.227 178.311 151.59 178.757 150.652C180.63 152.557 185.601 157.249 194.76 163.565C195.9 164.35 199.764 166.885 202.365 171.305C203.039 173.59 203.495 175.838 203.482 177.72C203.477 178.727 203.404 179.739 203.254 180.738C203.226 180.655 203.213 180.565 203.213 180.472C203.291 171.055 195.485 166.072 193.85 164.946ZM199.24 163.1C198.039 161.662 195.858 159.005 194.58 157.447C194.499 157.349 194.499 157.204 194.58 157.106C194.662 157.008 194.802 156.985 194.909 157.053L196.906 158.301C196.955 158.391 197.998 160.34 199.24 163.1Z" fill="#044743"/>
<path d="M214.088 183.867C218.164 183.867 221.467 180.488 221.467 176.32C221.467 172.152 218.164 168.773 214.088 168.773C210.012 168.773 206.708 172.152 206.708 176.32C206.708 180.488 210.012 183.867 214.088 183.867Z" fill="#A8CFCC"/>
<path fill-rule="evenodd" clip-rule="evenodd" d="M216.357 169.138C219.321 170.117 221.468 172.965 221.468 176.32C221.468 180.485 218.162 183.868 214.088 183.868C211.417 183.868 209.075 182.413 207.779 180.236L212.496 177.822C212.408 178.213 212.438 178.649 212.607 179.062C213.006 180.036 214.026 180.529 214.884 180.161C215.743 179.793 216.118 178.704 215.719 177.73C215.519 177.239 215.157 176.871 214.741 176.673L217.4 175.312L216.357 169.138Z" fill="black"/>
<path fill-rule="evenodd" clip-rule="evenodd" d="M181.547 197.264C181.547 197.264 183.107 196.863 185.279 196.304C193.06 194.298 201.197 197.822 205.207 204.93C208.182 210.208 207.574 216.831 203.689 221.449C202.115 223.32 200.876 224.793 200.876 224.793C200.876 224.793 203.347 224.741 206.223 224.68C211.047 224.578 215.29 227.926 216.42 232.725C216.516 233.164 216.622 233.604 216.734 234.04C217.582 237.299 219.49 240.166 222.143 242.166C223.134 242.917 224.053 243.858 224.258 244.858C224.258 244.858 178.661 244.8 157.215 244.771C152.913 244.766 148.986 242.275 147.069 238.338C145.153 234.399 145.576 229.694 148.164 226.18C148.164 226.18 131.693 208.926 132.379 188.835C132.752 177.922 142.459 171.646 149.614 174.874C161.776 180.357 171.701 188.717 181.547 197.264Z" fill="url(#paint3_linear_52_1143)"/>
<path fill-rule="evenodd" clip-rule="evenodd" d="M158.881 211.829C158.881 211.829 150.803 204.034 144.997 198.43C144.76 198.201 144.39 198.196 144.148 198.421C143.907 198.646 143.874 199.022 144.073 199.285C149.027 205.842 155.974 215.035 155.974 215.035L158.881 211.829Z" fill="#044743"/>
<path fill-rule="evenodd" clip-rule="evenodd" d="M200.876 224.793L203.118 224.747C202.029 225.714 200.526 226.985 198.651 228.417L198.708 244.825L197.081 244.823L197.029 229.627C192.325 233.048 185.757 237.099 177.79 240.146C177.369 240.307 176.9 240.089 176.742 239.658C176.586 239.228 176.799 238.747 177.22 238.588C189.13 234.033 197.842 227.19 201.745 223.758L200.876 224.793ZM180.513 196.369C180.858 196.667 181.202 196.966 181.547 197.264L183.781 196.69C180.249 198.2 156.387 209.021 146.351 229.855C146.73 228.55 147.336 227.303 148.164 226.18C148.164 226.18 147.774 225.77 147.116 225.005C156.628 209.176 173.56 199.74 180.513 196.369Z" fill="#82B5B2"/>
<path fill-rule="evenodd" clip-rule="evenodd" d="M0.925227 237.259C-0.74471 236.071 4.10136 225.995 11.7404 214.774C19.3795 203.555 26.9373 195.41 28.6073 196.6C28.6159 196.605 28.6242 196.612 28.6323 196.618L36.892 202.861C38.5621 204.049 33.716 214.125 26.077 225.346C18.4379 236.565 10.8801 244.71 9.20996 243.52C9.2015 243.515 9.1932 243.508 9.1849 243.501L0.925227 237.259Z" fill="#FFCD80"/>
<path fill-rule="evenodd" clip-rule="evenodd" d="M27.5696 196.633L27.6069 196.618L27.6439 196.605L27.6803 196.592L27.6829 196.59L27.7163 196.578H27.7197L27.7518 196.567L27.756 196.565L27.7868 196.555H27.7918L27.8213 196.545L27.827 196.544L27.8554 196.537L27.8618 196.535L27.889 196.527L27.896 196.525L27.9222 196.52L27.9297 196.519L27.9547 196.512L27.9629 196.51L27.987 196.505L27.9954 196.504L28.0185 196.5L28.0276 196.499L28.0498 196.495H28.0592L28.0804 196.492L28.0903 196.49L28.1107 196.489H28.1207L28.1403 196.487L28.1509 196.485H28.1694H28.1803L28.1982 196.484H28.2093H28.2264L28.2376 196.485H28.254H28.2654L28.2812 196.487L28.2928 196.489L28.3079 196.49L28.3196 196.492L28.3341 196.494L28.3458 196.495L28.3597 196.497L28.3716 196.5L28.3849 196.502L28.3968 196.505L28.4095 196.509L28.4214 196.512L28.4336 196.515L28.4572 196.524L28.4801 196.532L28.5027 196.54L28.5247 196.55L28.5355 196.555L28.5462 196.562L28.5566 196.567L28.567 196.573L28.5773 196.58L28.5874 196.585L28.5975 196.592L28.6072 196.6L29.3255 197.143L29.3263 197.151C29.3908 197.81 29.2526 198.756 28.9035 199.931C28.6038 200.941 28.1474 202.138 27.5519 203.486L35.5497 209.109C35.3732 209.501 35.1841 209.907 34.9825 210.326L26.9925 204.708C26.8165 205.081 26.6315 205.464 26.4375 205.855L34.2077 211.884C34.0091 212.272 33.8019 212.668 33.586 213.075L25.8291 207.054C24.5123 209.596 22.866 212.449 20.9636 215.452L28.4349 221.782C28.1971 222.152 27.9559 222.524 27.7109 222.899L20.246 216.573C19.6301 217.526 18.9893 218.491 18.3266 219.465C16.0957 222.741 13.8584 225.749 11.7603 228.335L19.315 234.508L19.3233 234.514C19.0429 234.864 18.7652 235.205 18.4906 235.538L10.9367 229.367C10.932 229.364 10.9272 229.359 10.9227 229.356C10.4692 229.9 10.0236 230.423 9.58739 230.922L17.0057 237.266C17.0113 237.271 17.0167 237.274 17.0219 237.279C16.7258 237.622 16.4349 237.952 16.1499 238.27L8.71157 231.909C6.95326 233.857 5.37349 235.387 4.08377 236.387C3.12673 237.131 2.30755 237.591 1.67994 237.759C1.65601 237.765 1.63225 237.77 1.60865 237.777L0.925216 237.259L0.915612 237.253L0.906008 237.246L0.896568 237.238L0.887292 237.231L0.878177 237.223L0.869224 237.214L0.860435 237.206L0.851646 237.198L0.83472 237.179L0.818443 237.161L0.802817 237.143L0.787518 237.123L0.780194 237.111L0.773032 237.101L0.765872 237.091L0.759034 237.08L0.752036 237.068L0.745688 237.058L0.738853 237.046L0.73283 237.035L0.726157 237.021L0.720624 237.011L0.714112 236.996L0.709068 236.986L0.702556 236.971L0.697999 236.961L0.691815 236.945L0.687419 236.935L0.681399 236.918L0.677653 236.908L0.671795 236.89L0.668214 236.88L0.66268 236.861L0.659424 236.851L0.654055 236.831L0.651286 236.821L0.646242 236.802L0.643636 236.792L0.638754 236.77L0.636638 236.762L0.63208 236.738L0.630128 236.73L0.625896 236.707L0.624267 236.697L0.620199 236.673L0.618898 236.663L0.615153 236.638L0.614176 236.63L0.610759 236.603L0.609945 236.597L0.606853 236.567L0.606202 236.56L0.603597 236.53L0.60311 236.525L0.600994 236.494L0.600505 236.489L0.598878 236.455L0.598553 236.45L0.597251 236.415L0.597087 236.412L0.596273 236.377V236.374L0.595947 236.334L0.596111 236.294L0.596923 236.252C0.619059 235.368 0.865155 235.357 0.859784 235.879C0.858157 236.042 0.869225 236.187 0.899173 236.309C0.917728 236.385 0.931561 236.454 0.981041 236.489C1.03052 236.524 1.09742 236.514 1.17392 236.505C1.29664 236.49 1.43254 236.452 1.58212 236.394C2.05852 236.207 2.63389 235.841 3.29682 235.327C6.64271 232.73 11.9608 226.484 17.2579 218.704C22.5551 210.924 26.4375 203.655 27.6575 199.545C27.8994 198.731 28.035 198.052 28.0403 197.531C28.042 197.367 28.0309 197.223 28.0009 197.099C27.9824 197.023 27.9686 196.956 27.9191 196.921C27.8696 196.885 27.8027 196.896 27.7262 196.905C27.6033 196.918 27.4676 196.958 27.318 197.016C26.8416 197.203 26.7672 196.961 27.5696 196.633Z" fill="#FEA424"/>
<path fill-rule="evenodd" clip-rule="evenodd" d="M236.238 223.486C235.033 223.28 234.114 222.208 234.114 220.918V215.708C234.114 214.27 235.255 213.101 236.661 213.101H273.066C274.472 213.101 275.615 214.27 275.615 215.708V220.918C275.615 222.208 274.695 223.28 273.491 223.486C274.695 223.695 275.615 224.766 275.615 226.057V231.267C275.615 232.48 274.801 233.502 273.701 233.79C274.773 234.098 275.559 235.105 275.559 236.299V241.511C275.559 242.947 274.418 244.116 273.012 244.116H236.607C235.201 244.116 234.06 242.947 234.06 241.511V236.299C234.06 235.085 234.872 234.065 235.973 233.775C234.9 233.467 234.114 232.46 234.114 231.267V226.057C234.114 224.766 235.033 223.695 236.238 223.486Z" fill="#FFC367"/>
<path fill-rule="evenodd" clip-rule="evenodd" d="M269.768 222.206H275.281C274.908 222.874 274.257 223.355 273.491 223.486C273.569 223.5 273.647 223.518 273.723 223.538H272.923V232.47H275.327C274.996 233.116 274.407 233.605 273.701 233.79C273.714 233.794 273.725 233.797 273.737 233.802H269.49V244.116H268.188V233.802H255.829V244.116H254.527V233.802H243.992V244.116H242.69V233.802H241.363V244.116H240.061V233.802H235.881C235.912 233.792 235.942 233.784 235.973 233.775C235.291 233.579 234.722 233.101 234.402 232.47H237.027V223.538H236.005C236.08 223.518 236.158 223.5 236.238 223.486C235.471 223.355 234.82 222.874 234.447 222.206H241.56V213.101H242.862V222.206H245.649V213.101H246.951V222.206H253.505V213.101H254.807V222.206H268.466V213.101H269.768V222.206ZM238.329 223.538V232.47H250.051V223.538H238.329ZM251.354 223.538V232.47H258.828V223.538H251.354ZM260.13 223.538V232.47H262.057V223.538H260.13ZM263.359 223.538V232.47H271.621V223.538H263.359Z" fill="#FEA424"/>
<path fill-rule="evenodd" clip-rule="evenodd" d="M281.327 199.477C288.241 197.104 297.421 203.027 302.394 213.349C307.449 223.844 306.329 235.094 300.004 239.087L300.035 239.154L293.31 242.726C293.111 242.846 292.908 242.959 292.699 243.064C292.612 243.107 292.522 243.15 292.434 243.192L292.164 243.335L292.154 243.317C285.178 246.288 275.587 240.322 270.461 229.684C265.202 218.766 266.627 207.034 273.64 203.5C273.64 203.5 279.713 200.194 280.155 199.971C280.499 199.798 280.849 199.648 281.205 199.52L281.319 199.46L281.327 199.477Z" fill="#FFCD80"/>
<path d="M298.012 235.898C303.751 233.286 305.09 223.734 301.002 214.563C296.913 205.392 288.947 200.075 283.207 202.687C277.468 205.299 276.13 214.851 280.218 224.022C284.306 233.193 292.273 238.51 298.012 235.898Z" fill="#FEA424"/>
<path fill-rule="evenodd" clip-rule="evenodd" d="M284.395 198.957L284.495 198.955C283.561 199.145 282.651 199.455 281.78 199.894C278.832 201.379 276.767 204.109 275.657 207.505C273.953 212.72 274.49 219.485 277.561 225.86C280.632 232.237 285.549 236.796 290.633 238.591C293.94 239.759 297.316 239.749 300.263 238.265C301.136 237.823 301.93 237.276 302.646 236.633L302.622 236.663L302.599 236.695L302.576 236.725L302.537 236.775L302.516 236.803L302.488 236.836L302.469 236.861L302.464 236.868L302.426 236.913L302.405 236.94L302.373 236.98L302.361 236.994L302.348 237.008L302.314 237.051L302.294 237.074L302.25 237.126L302.234 237.144L302.198 237.186L302.18 237.208L302.135 237.259L302.119 237.277L302.081 237.319L302.065 237.337L302.018 237.391L302.001 237.409L301.961 237.452L301.948 237.466L301.899 237.519L301.883 237.535L301.835 237.585L301.831 237.592L301.826 237.595L301.777 237.645L301.761 237.662L301.71 237.715L301.699 237.725L301.653 237.77L301.638 237.785L301.586 237.837L301.573 237.85L301.526 237.893L301.515 237.907L301.459 237.958L301.446 237.97L301.398 238.017L301.388 238.025L301.332 238.075L301.318 238.088L301.263 238.14L301.259 238.141L301.202 238.191L301.188 238.205L301.131 238.255L301.123 238.261L301.07 238.306L301.056 238.316L300.999 238.366L300.986 238.374L300.935 238.418L300.924 238.428L300.864 238.474L300.851 238.486L300.795 238.529L300.789 238.534L300.727 238.583L300.714 238.593L300.652 238.639L300.589 238.686L300.574 238.697L300.512 238.742L300.506 238.747L300.449 238.789L300.434 238.799L300.372 238.842L300.361 238.851L300.304 238.889L300.292 238.897L300.229 238.94L300.216 238.95L300.157 238.989L300.149 238.994L300.084 239.035L300.069 239.045L300.004 239.087L300.035 239.153L297.319 240.597C296.214 240.775 295.079 240.805 293.933 240.693C293.928 240.697 293.922 240.7 293.915 240.703L287.966 244.072C287.245 244.047 286.513 243.952 285.776 243.791L291.865 240.342C291.311 240.209 290.758 240.044 290.206 239.849C288.285 239.17 286.384 238.121 284.586 236.745L278.949 240.447C278.588 240.171 278.228 239.879 277.872 239.573L283.508 235.871C283.09 235.511 282.678 235.134 282.275 234.739L276.502 238.301C276.186 237.987 275.873 237.66 275.567 237.324L281.331 233.765C279.431 231.708 277.742 229.248 276.394 226.449C276.075 225.787 275.782 225.121 275.515 224.452L269.534 227.581C269.368 227.165 269.21 226.749 269.062 226.333L275.046 223.202C274.132 220.588 273.606 217.962 273.451 215.44L267.333 218.06C267.304 217.58 267.289 217.106 267.288 216.637L273.403 214.017C273.388 211.974 273.622 210.017 274.093 208.211L268.04 210.876C268.21 210.281 268.411 209.709 268.64 209.161L274.478 206.591L274.539 206.736C275.258 204.677 276.309 202.856 277.672 201.379C277.672 201.379 279.565 200.28 280.1 199.999L280.156 199.971C280.499 199.798 280.849 199.648 281.205 199.52L281.319 199.46L281.327 199.476L281.401 199.451L281.412 199.448L281.484 199.425L281.497 199.42L281.568 199.398L281.576 199.395L281.646 199.373L281.656 199.37L281.728 199.35L281.741 199.345L281.812 199.325L281.824 199.322L281.895 199.302L281.9 199.3L281.974 199.28L281.987 199.277L282.06 199.258L282.071 199.255L282.146 199.237H282.148L282.224 199.218L282.234 199.215L282.307 199.198L282.32 199.197L282.395 199.18L282.402 199.178L282.477 199.162H282.481L282.558 199.145L282.569 199.144L282.646 199.129L282.654 199.127L282.732 199.112L282.812 199.099L282.82 199.097L282.898 199.085L282.906 199.084L282.986 199.07L283.067 199.059H283.072L283.15 199.047L283.16 199.045L283.238 199.035H283.245L283.325 199.025H283.326L283.406 199.017L283.416 199.015L283.492 199.007L283.504 199.005L283.583 198.999L283.66 198.992L283.673 198.99L283.748 198.985L283.764 198.984L283.837 198.979L283.852 198.977L283.899 198.975L283.969 198.97L283.995 198.969L284.08 198.965H284.089L284.189 198.96L284.29 198.959H284.291L284.391 198.957H284.395Z" fill="#FEA424"/>
<path d="M288.297 226.008C290.605 226.899 292.821 226.938 295.004 226.177C297.574 225.201 298.344 223.701 297.399 221.647C296.583 219.989 295.229 219.303 293.336 219.589C292.468 219.758 291.545 219.948 290.523 220.137C288.674 220.444 287.014 220.202 285.585 219.432C284.114 218.641 282.992 217.427 282.191 215.801C281.237 213.861 281.023 212.094 281.605 210.478C282.132 208.883 283.423 207.709 285.437 206.936C287.941 206.095 290.466 206.094 292.997 206.904L292.699 210.298C290.687 209.742 288.755 209.747 286.961 210.366C286.043 210.701 285.388 211.236 285.039 211.991C284.661 212.757 284.728 213.692 285.224 214.766C285.547 215.423 286.046 215.905 286.753 216.274C287.459 216.643 288.351 216.723 289.432 216.587C290.006 216.487 290.818 216.338 291.825 216.118C293.825 215.719 295.557 215.972 297.047 216.867C298.493 217.74 299.615 218.954 300.401 220.55C302.411 224.835 301.139 227.847 296.639 229.566C293.721 230.633 290.683 230.525 287.57 229.264L288.297 226.008Z" fill="#FFCD80"/>
<path fill-rule="evenodd" clip-rule="evenodd" d="M283.95 204.253L295.258 232.848L298.763 231.75L286.926 203.32L283.95 204.253Z" fill="#FFCD80"/>
<defs>
<linearGradient id="paint0_linear_52_1143" x1="97.3634" y1="117.414" x2="66.3805" y2="30.6168" gradientUnits="userSpaceOnUse">
<stop stop-color="#E86135"/>
<stop offset="0.59" stop-color="#EC6D47"/>
<stop offset="0.8" stop-color="#F6886F"/>
<stop offset="1" stop-color="#FFA396"/>
</linearGradient>
<linearGradient id="paint1_linear_52_1143" x1="53.7281" y1="36.8108" x2="-4.20271" y2="-0.905871" gradientUnits="userSpaceOnUse">
<stop stop-color="#E86135"/>
<stop offset="1" stop-color="#FFA396"/>
</linearGradient>
<linearGradient id="paint2_linear_52_1143" x1="214.389" y1="63.6504" x2="227.891" y2="136.329" gradientUnits="userSpaceOnUse">
<stop stop-color="#FFB000"/>
<stop offset="1" stop-color="#FD9500"/>
</linearGradient>
<linearGradient id="paint3_linear_52_1143" x1="164.535" y1="224.287" x2="122.956" y2="156.336" gradientUnits="userSpaceOnUse">
<stop stop-color="#A8CFCC"/>
<stop offset="0.58" stop-color="#B9D5D1"/>
<stop offset="0.8" stop-color="#DDE3DC"/>
<stop offset="1" stop-color="#FFF0E6"/>
</linearGradient>
</defs>
</svg>
