<svg width="261" height="212" viewBox="0 0 261 212" fill="none" xmlns="http://www.w3.org/2000/svg">
<path fill-rule="evenodd" clip-rule="evenodd" d="M7.05579 199.169L6.86748 190.861H13.8872V182.95H250.511V190.861H256.122V199.2H260.42V207.54H0V199.2H7.05579V199.169ZM25.5175 57.4085H13.8872L133.609 0L253.331 57.4085H240.187V182.95H25.5175V57.4085Z" fill="#E5E3ED"/>
<path fill-rule="evenodd" clip-rule="evenodd" d="M256.122 199.163H7.05545L7.00342 196.869H256.122V199.163ZM250.511 190.813H13.887V188.52H250.511V190.813ZM240.186 182.929H25.5173V180.636H240.186V182.929ZM240.186 59.8935L25.5173 60.2054V57.7912L240.186 57.4792V59.8935Z" fill="#B2AAC8"/>
<path fill-rule="evenodd" clip-rule="evenodd" d="M240.187 59.2853L208.151 63.9086V181.169H178.027V61.6924C172.422 62.3823 158.62 64.095 145.748 65.802V181.169H115.623V60.0744L83.3441 63.9086V181.169H53.2199V60.5214L25.5176 63.9086V58.8423C25.5176 58.8423 45.8925 59.4617 53.2199 59.9273V59.2502H83.3441V58.8423H118.882L117.803 59.2502H145.748V59.965L178.027 59.3032V59.2502H208.151V58.8423L240.187 59.2472V59.2853Z" fill="#B2AAC8"/>
<path d="M133.61 49.3719C144.131 49.3719 152.661 40.8424 152.661 30.3208C152.661 19.7992 144.131 11.2698 133.61 11.2698C123.088 11.2698 114.559 19.7992 114.559 30.3208C114.559 40.8424 123.088 49.3719 133.61 49.3719Z" fill="#FFCF84"/>
<path fill-rule="evenodd" clip-rule="evenodd" d="M133.609 15.461C141.81 15.461 148.469 22.1195 148.469 30.3208C148.469 38.5222 141.81 45.1806 133.609 45.1806C133.276 45.1806 133.006 45.451 133.006 45.7842C133.006 46.1173 133.276 46.3877 133.609 46.3877C142.477 46.3877 149.676 39.1884 149.676 30.3208C149.676 21.4532 142.477 14.2539 133.609 14.2539C133.276 14.2539 133.006 14.5243 133.006 14.8575C133.006 15.1906 133.276 15.461 133.609 15.461Z" fill="#FD9909"/>
<path fill-rule="evenodd" clip-rule="evenodd" d="M133.609 45.1806C125.407 45.1806 118.749 38.5222 118.749 30.3208C118.749 22.1195 125.407 15.461 133.609 15.461C133.942 15.461 134.213 15.1906 134.213 14.8575C134.213 14.5243 133.942 14.2539 133.609 14.2539C124.741 14.2539 117.542 21.4532 117.542 30.3208C117.542 39.1884 124.741 46.3877 133.609 46.3877C133.942 46.3877 134.213 46.1173 134.213 45.7842C134.213 45.451 133.942 45.1806 133.609 45.1806Z" fill="#FD9909"/>
<path fill-rule="evenodd" clip-rule="evenodd" d="M135.903 49.235L135.513 46.0963C135.472 45.7657 135.707 45.4641 136.038 45.4229C136.369 45.3818 136.669 45.6169 136.711 45.9475L137.097 49.0529C136.703 49.1259 136.305 49.1867 135.903 49.235ZM139.465 48.4534L138.386 45.2686C138.28 44.9531 138.449 44.6101 138.765 44.5033C139.08 44.3963 139.423 44.5657 139.529 44.8811L140.602 48.0456C140.229 48.1931 139.85 48.3292 139.465 48.4534ZM123.107 46.2144L124.785 43.4553C124.958 43.1706 125.329 43.0801 125.614 43.2532C125.899 43.4263 125.99 43.7979 125.817 44.0825L124.134 46.849C123.784 46.648 123.441 46.4362 123.107 46.2144ZM149.284 41.1455L146.511 39.0937C146.244 38.8955 146.187 38.5173 146.385 38.2494C146.583 37.9817 146.961 37.9252 147.229 38.1233L149.94 40.1297C149.733 40.4757 149.513 40.8146 149.284 41.1455ZM115.503 36.259L118.761 34.7927C119.064 34.6559 119.423 34.7916 119.559 35.0953C119.696 35.3991 119.561 35.7567 119.256 35.8934L115.917 37.3964C115.768 37.0231 115.629 36.6439 115.503 36.259ZM152.095 25.7001C152.192 26.089 152.277 26.4826 152.35 26.8803L149.138 27.6378C148.814 27.7143 148.488 27.5131 148.412 27.189C148.335 26.8647 148.536 26.5394 148.86 26.4629L152.095 25.7001ZM117.867 19.593L120.738 21.4705C121.016 21.6529 121.095 22.0273 120.913 22.3061C120.73 22.5849 120.356 22.6632 120.077 22.4808L117.219 20.6108C117.424 20.2641 117.641 19.9247 117.867 19.593ZM119.74 17.2642L122.075 18.981C122.343 19.1783 122.401 19.5565 122.203 19.8247C122.006 20.0931 121.627 20.1507 121.359 19.9533L118.939 18.1723C119.196 17.8612 119.464 17.5584 119.74 17.2642ZM144.621 14.7769C144.949 15.0101 145.27 15.2534 145.583 15.5067L143.496 18.1381C143.288 18.3991 142.908 18.4428 142.647 18.2358C142.386 18.0288 142.343 17.6488 142.549 17.3878L144.621 14.7769ZM141.388 12.9276C141.756 13.0928 142.118 13.2696 142.473 13.4565L141.002 16.2166C140.845 16.5106 140.479 16.6219 140.184 16.4652C139.891 16.3084 139.78 15.9425 139.937 15.6486L141.388 12.9276ZM129.337 11.7517L130.187 14.7816C130.276 15.1023 130.089 15.4357 129.768 15.5257C129.447 15.6157 129.114 15.4284 129.024 15.1075L128.17 12.0592C128.554 11.9447 128.942 11.8421 129.337 11.7517Z" fill="#FD9909"/>
<path d="M128.924 35.3509C130.503 36.5116 132.309 37.02 134.372 36.9277C136.828 36.7595 137.994 35.8134 137.947 34.085C137.866 32.6781 136.998 31.8759 135.342 31.6784C134.57 31.6164 133.744 31.5575 132.838 31.4766C131.21 31.3041 129.933 30.7652 129.034 29.8849C128.106 28.9796 127.616 27.836 127.537 26.4557C127.442 24.81 127.894 23.4523 128.946 22.3796C129.945 21.31 131.422 20.7188 133.35 20.581C135.705 20.4985 137.778 21.0447 139.568 22.1933L138.119 24.6471C136.664 23.7989 135.076 23.3844 133.383 23.4554C132.511 23.5057 131.783 23.7607 131.228 24.2455C130.646 24.7318 130.368 25.4402 130.394 26.3443C130.426 26.9017 130.665 27.3673 131.114 27.7942C131.563 28.221 132.267 28.4734 133.203 28.6059C133.709 28.6566 134.429 28.7216 135.334 28.776C137.118 28.9128 138.45 29.4752 139.356 30.4616C140.233 31.4231 140.723 32.5666 140.801 33.9204C140.93 37.535 138.816 39.4946 134.511 39.796C131.736 39.956 129.28 39.2187 127.172 37.6092L128.924 35.3509Z" fill="#FD9909"/>
<path fill-rule="evenodd" clip-rule="evenodd" d="M132.399 18.2205L131.754 41.9984L133.185 42.0371L133.83 18.2592L132.399 18.2205Z" fill="#FD9909"/>
<path fill-rule="evenodd" clip-rule="evenodd" d="M134.902 18.2937L134.257 42.0716L135.688 42.1103L136.333 18.3325L134.902 18.2937Z" fill="#FD9909"/>
<path fill-rule="evenodd" clip-rule="evenodd" d="M60.2642 121.748L64.5553 145.154L43.8496 149.452L39.6335 125.683L60.2642 121.748Z" fill="white"/>
<path fill-rule="evenodd" clip-rule="evenodd" d="M40.3321 126.165L42.5824 138.852C42.6404 139.18 42.4219 139.493 42.0935 139.551C41.7658 139.609 41.4522 139.39 41.3935 139.063L39.0398 125.789C38.982 125.464 39.1965 125.152 39.5208 125.091L60.1514 121.155C60.3098 121.124 60.4731 121.158 60.6057 121.249C60.7383 121.34 60.8293 121.48 60.8586 121.638L62.9659 133.134C63.0257 133.462 62.8083 133.777 62.481 133.836C62.153 133.897 61.8388 133.679 61.7783 133.352L59.7807 122.454L40.3321 126.165Z" fill="black"/>
<path fill-rule="evenodd" clip-rule="evenodd" d="M63.8552 144.683L61.7781 133.352C61.7183 133.024 61.935 132.71 62.263 132.649C62.5903 132.59 62.9052 132.807 62.9657 133.134L65.1489 145.046C65.2084 145.367 64.9993 145.678 64.6781 145.745L43.9723 150.043C43.8121 150.077 43.6461 150.044 43.511 149.953C43.3759 149.861 43.2837 149.719 43.2549 149.559L41.3933 139.063C41.3353 138.734 41.5546 138.421 41.8822 138.363C42.2107 138.304 42.5241 138.523 42.5822 138.852L44.3353 148.735L63.8552 144.683Z" fill="black"/>
<path fill-rule="evenodd" clip-rule="evenodd" d="M62.224 143.603L61.9409 142.089L45.2834 145.213L45.5672 146.727L62.224 143.603ZM61.5869 140.123L61.303 138.61L44.6455 141.735L44.93 143.248L61.5869 140.123ZM60.9491 136.644L60.6649 135.13L44.0083 138.255L44.2921 139.769L60.9491 136.644ZM60.3114 133.165L60.0276 131.651L43.3705 134.776L43.6543 136.29L60.3114 133.165ZM59.6736 129.686L59.3897 128.172L42.7326 131.297L43.0165 132.811L59.6736 129.686ZM59.0356 126.207L58.7519 124.693L42.0947 127.818L42.3792 129.331L59.0356 126.207Z" fill="black"/>
<path fill-rule="evenodd" clip-rule="evenodd" d="M63.3492 120.012L76.8035 139.64L59.6449 152.001L46.1115 132.011L63.3492 120.012Z" fill="white"/>
<path fill-rule="evenodd" clip-rule="evenodd" d="M76.1383 139.524L71.2959 132.459C71.145 132.24 71.2013 131.938 71.421 131.788C71.641 131.637 71.9417 131.693 72.0924 131.913L77.2016 139.367C77.3496 139.584 77.2981 139.879 77.0854 140.032L59.9268 152.392C59.8208 152.47 59.6885 152.499 59.5601 152.476C59.4316 152.454 59.3178 152.38 59.2447 152.271L53.509 143.8C53.3597 143.579 53.4175 143.279 53.6383 143.129C53.8588 142.98 54.1593 143.037 54.3087 143.259L59.7655 151.319L76.1383 139.524Z" fill="black"/>
<path fill-rule="evenodd" clip-rule="evenodd" d="M46.7784 132.135L54.309 143.259C54.4585 143.479 54.4005 143.78 54.1799 143.929C53.9591 144.079 53.6589 144.02 53.5093 143.8L45.7116 132.282C45.5635 132.063 45.6189 131.765 45.8356 131.615L63.0734 119.616C63.1789 119.542 63.3096 119.513 63.436 119.537C63.5628 119.559 63.6747 119.633 63.7475 119.739L72.0927 131.913C72.2433 132.134 72.1871 132.434 71.9672 132.585C71.7475 132.736 71.4467 132.679 71.2962 132.459L63.2259 120.686L46.7784 132.135Z" fill="black"/>
<path fill-rule="evenodd" clip-rule="evenodd" d="M74.0421 139.173L73.1669 137.906L59.2272 147.545L60.1032 148.812L74.0421 139.173ZM72.0426 136.254L71.1672 134.989L57.2273 144.628L58.1035 145.894L72.0426 136.254ZM70.0429 133.337L69.1665 132.07L55.2278 141.71L56.1038 142.977L70.0429 133.337ZM68.0433 130.42L67.1674 129.153L53.2281 138.792L54.1041 140.059L68.0433 130.42ZM66.0436 127.503L65.1676 126.236L51.2283 135.875L52.1043 137.142L66.0436 127.503ZM64.0437 124.585L63.1679 123.318L49.2285 132.958L50.1047 134.224L64.0437 124.585Z" fill="black"/>
<path d="M43.5375 207.972C52.3524 207.972 59.4983 200.635 59.4983 191.584C59.4983 182.533 52.3524 175.195 43.5375 175.195C34.7226 175.195 27.5767 182.533 27.5767 191.584C27.5767 200.635 34.7226 207.972 43.5375 207.972Z" fill="#FFCF84"/>
<path fill-rule="evenodd" clip-rule="evenodd" d="M43.5374 178.801C50.4081 178.801 55.9868 184.529 55.9868 191.584C55.9868 198.639 50.4081 204.367 43.5374 204.367C43.2583 204.367 43.0317 204.6 43.0317 204.886C43.0317 205.173 43.2583 205.405 43.5374 205.405C50.9663 205.405 56.9981 199.212 56.9981 191.584C56.9981 183.956 50.9663 177.762 43.5374 177.762C43.2583 177.762 43.0317 177.995 43.0317 178.282C43.0317 178.568 43.2583 178.801 43.5374 178.801Z" fill="#FD9909"/>
<path fill-rule="evenodd" clip-rule="evenodd" d="M43.5368 204.367C36.6653 204.367 31.0867 198.639 31.0867 191.584C31.0867 184.529 36.6653 178.801 43.5368 178.801C43.8159 178.801 44.0425 178.568 44.0425 178.282C44.0425 177.995 43.8159 177.762 43.5368 177.762C36.1071 177.762 30.0762 183.956 30.0762 191.584C30.0762 199.212 36.1071 205.405 43.5368 205.405C43.8159 205.405 44.0425 205.173 44.0425 204.886C44.0425 204.6 43.8159 204.367 43.5368 204.367Z" fill="#FD9909"/>
<path fill-rule="evenodd" clip-rule="evenodd" d="M45.4585 207.855L45.1319 205.155C45.0975 204.87 45.2947 204.611 45.5718 204.575C45.8489 204.54 46.1007 204.742 46.1361 205.027L46.4587 207.698C46.129 207.761 45.7953 207.813 45.4585 207.855ZM48.443 207.182L47.5388 204.443C47.4498 204.171 47.5914 203.876 47.8564 203.784C48.1203 203.692 48.4076 203.838 48.4966 204.109L49.3956 206.832C49.0831 206.958 48.7656 207.076 48.443 207.182ZM34.7385 205.256L36.1442 202.883C36.2889 202.638 36.6003 202.56 36.839 202.709C37.0777 202.858 37.1535 203.177 37.0089 203.422L35.5991 205.802C35.3058 205.629 35.0186 205.447 34.7385 205.256ZM56.6691 200.896L54.3461 199.131C54.1225 198.96 54.075 198.635 54.2409 198.404C54.4067 198.174 54.7233 198.125 54.9478 198.296L57.2192 200.022C57.0453 200.32 56.8612 200.611 56.6691 200.896ZM28.3682 196.692L31.0977 195.431C31.3516 195.313 31.6519 195.43 31.7662 195.691C31.8805 195.952 31.7672 196.26 31.5124 196.378L28.7151 197.671C28.5896 197.349 28.4733 197.023 28.3682 196.692ZM59.0244 187.609C59.1053 187.943 59.1771 188.282 59.2378 188.624L56.5467 189.276C56.2757 189.342 56.0026 189.169 55.9389 188.89C55.8742 188.611 56.043 188.331 56.3141 188.265L59.0244 187.609ZM30.3483 182.355L32.7533 183.97C32.9869 184.127 33.0526 184.449 32.8999 184.689C32.7472 184.929 32.4337 184.996 32.2001 184.84L29.8053 183.231C29.9772 182.933 30.1592 182.641 30.3483 182.355ZM31.9179 180.352L33.8738 181.829C34.0983 181.999 34.1469 182.324 33.981 182.555C33.8162 182.786 33.4986 182.835 33.2741 182.665L31.2464 181.133C31.4618 180.866 31.6863 180.605 31.9179 180.352ZM52.7623 178.212C53.0374 178.413 53.3064 178.622 53.5683 178.84L51.8198 181.104C51.6458 181.328 51.3272 181.366 51.1088 181.188C50.8904 181.01 50.854 180.683 51.0269 180.458L52.7623 178.212ZM50.054 176.621C50.3624 176.764 50.6658 176.916 50.9632 177.076L49.7304 179.451C49.5989 179.704 49.2925 179.799 49.0457 179.665C48.7999 179.53 48.7069 179.215 48.8384 178.962L50.054 176.621ZM39.9579 175.61L40.6699 178.216C40.7448 178.492 40.588 178.779 40.319 178.856C40.05 178.934 39.7708 178.773 39.696 178.497L38.98 175.874C39.3016 175.776 39.6272 175.688 39.9579 175.61Z" fill="#FD9909"/>
<path d="M99.0316 196.645C101.247 205.126 110 210.183 118.583 207.941C127.165 205.699 132.327 197.007 130.112 188.527C127.897 180.047 119.144 174.989 110.561 177.231C101.978 179.473 96.8165 188.165 99.0316 196.645Z" fill="#FFCF84"/>
<path fill-rule="evenodd" clip-rule="evenodd" d="M126.694 189.42C128.42 196.03 124.391 202.815 117.701 204.563C111.011 206.31 104.177 202.362 102.451 195.752C102.381 195.484 102.103 195.323 101.831 195.394C101.56 195.465 101.396 195.741 101.466 196.009C103.333 203.156 110.721 207.425 117.955 205.536C125.188 203.646 129.545 196.309 127.678 189.163C127.608 188.894 127.331 188.734 127.059 188.805C126.787 188.876 126.624 189.151 126.694 189.42Z" fill="#FD9909"/>
<path fill-rule="evenodd" clip-rule="evenodd" d="M102.45 195.752C100.724 189.142 104.753 182.356 111.443 180.609C118.133 178.861 124.967 182.809 126.693 189.42C126.763 189.688 127.041 189.849 127.313 189.778C127.584 189.707 127.748 189.431 127.678 189.163C125.811 182.015 118.423 177.747 111.189 179.636C103.956 181.526 99.5986 188.862 101.466 196.009C101.536 196.278 101.813 196.438 102.085 196.367C102.357 196.296 102.52 196.021 102.45 195.752Z" fill="#FD9909"/>
<path fill-rule="evenodd" clip-rule="evenodd" d="M99.6259 198.464L102.104 197.481C102.365 197.378 102.661 197.503 102.764 197.761C102.867 198.019 102.739 198.311 102.478 198.416L100.026 199.388C99.8834 199.086 99.7499 198.778 99.6259 198.464ZM101.013 201.169L103.384 199.621C103.619 199.468 103.934 199.531 104.088 199.763C104.242 199.994 104.176 200.307 103.941 200.459L101.585 201.999C101.387 201.729 101.196 201.453 101.013 201.169ZM99.396 187.508L102 188.272C102.268 188.351 102.421 188.631 102.339 188.898C102.258 189.164 101.974 189.316 101.706 189.238L99.0946 188.471C99.1849 188.146 99.2855 187.825 99.396 187.508ZM109.042 207.526L110.132 204.854C110.237 204.597 110.534 204.47 110.794 204.573C111.054 204.675 111.18 204.968 111.074 205.226L110.009 207.839C109.683 207.745 109.36 207.64 109.042 207.526ZM105.916 179.258L107.798 181.572C107.973 181.787 107.938 182.105 107.719 182.279C107.5 182.454 107.18 182.421 107.004 182.205L105.075 179.834C105.348 179.634 105.629 179.441 105.916 179.258ZM122.233 206.501C121.936 206.661 121.633 206.814 121.324 206.958L120.03 204.53C119.899 204.286 119.995 203.98 120.243 203.85C120.491 203.718 120.799 203.811 120.929 204.056L122.233 206.501ZM120.009 177.612L119.081 180.326C118.991 180.589 118.702 180.732 118.437 180.645C118.171 180.557 118.028 180.272 118.118 180.009L119.042 177.307C119.368 177.398 119.69 177.501 120.009 177.612ZM122.303 178.626L121.394 180.873C121.289 181.131 120.993 181.259 120.732 181.156C120.472 181.055 120.345 180.762 120.45 180.504L121.393 178.173C121.701 178.314 122.004 178.466 122.303 178.626ZM129.569 198.149C129.448 198.463 129.318 198.774 129.177 199.08L126.591 197.958C126.334 197.847 126.218 197.549 126.332 197.295C126.446 197.041 126.747 196.925 127.004 197.036L129.569 198.149ZM130.397 195.149C130.34 195.481 130.272 195.811 130.194 196.137L127.633 195.539C127.36 195.475 127.193 195.204 127.258 194.933C127.325 194.663 127.6 194.496 127.872 194.56L130.397 195.149ZM128.82 185.186L126.527 186.517C126.284 186.657 125.973 186.577 125.832 186.338C125.691 186.098 125.773 185.79 126.016 185.649L128.323 184.311C128.497 184.596 128.663 184.887 128.82 185.186Z" fill="#FD9909"/>
<path fill-rule="evenodd" clip-rule="evenodd" d="M78.3338 72.8112C78.2915 72.7457 76.6489 72.8057 76.5214 72.7977C74.5976 72.6785 72.6766 72.49 70.762 72.2703C64.3987 71.5401 56.8061 71.0376 51.5555 66.9802C45.5824 62.3647 50.6149 55.5849 57.1569 56.8391C65.2227 58.3854 71.3324 66.3764 78.2615 70.3606" fill="black"/>
<path d="M84.907 80.6315C89.2372 80.6315 92.7475 77.1212 92.7475 72.791C92.7475 68.4608 89.2372 64.9504 84.907 64.9504C80.5767 64.9504 77.0664 68.4608 77.0664 72.791C77.0664 77.1212 80.5767 80.6315 84.907 80.6315Z" fill="#F7B351"/>
<path fill-rule="evenodd" clip-rule="evenodd" d="M81.4892 75.8037L78.9271 77.8595C77.7669 76.4926 77.0664 74.7227 77.0664 72.7906C77.0664 68.4632 80.5796 64.95 84.9071 64.95C88.9141 64.95 92.2229 67.9625 92.6913 71.8447C91.3803 71.691 90.2915 70.8814 89.4127 69.446C89.3391 72.3714 86.7647 73.488 83.6606 74.0615C83.5307 73.3168 82.8665 72.7491 82.068 72.7491C81.1763 72.7491 80.4523 73.4568 80.4523 74.3286C80.4523 75.0011 80.883 75.5759 81.4892 75.8037Z" fill="black"/>
<path fill-rule="evenodd" clip-rule="evenodd" d="M133.129 116.621C133.129 116.621 166.671 81.2288 187.193 82.6465C190.481 82.8735 199.85 84.148 208.901 90.7504C215.431 95.5133 221.013 101 226.43 106.596C229.079 109.335 230.261 113.176 229.607 116.93C228.954 120.686 226.544 123.902 223.123 125.584C218.197 128.012 211.857 130.331 204.076 131.636C204.076 131.636 205.46 134.138 206.32 135.692C206.769 136.504 206.763 137.49 206.304 138.297C205.596 139.505 204.264 141.345 201.955 143.171C201.955 143.171 201.823 144.03 201.698 144.849C201.639 145.234 201.429 145.579 201.114 145.809C200.799 146.039 200.406 146.133 200.021 146.072C199.433 145.979 198.985 145.496 198.935 144.903C198.906 144.543 198.923 144.163 198.985 143.859C198.985 143.859 200.477 133.584 192.364 125.08C192.364 125.08 190.132 121.58 193.546 119.334L206.305 111.652L198.334 104.947C198.334 104.947 196.625 113.342 186.913 115.181C182.73 115.974 174.838 116.222 169.966 108.8C169.966 108.8 144.625 128.938 137.963 136.9C137.963 136.9 136.949 137.87 136.065 137.242C135.57 136.889 134.916 136.158 135.643 135.049C135.643 135.049 134.45 136.126 133.4 135.408C132.7 134.929 132.16 133.99 132.881 132.886C132.881 132.886 131.661 134.002 130.561 133.213C129.819 132.681 129.648 131.743 130.012 130.674C130.012 130.674 128.723 131.953 127.626 131.211C126.858 130.692 126.488 129.612 127.012 128.828L131.881 121.837L133.129 116.621Z" fill="#E9673C"/>
<path fill-rule="evenodd" clip-rule="evenodd" d="M201.594 145.21C201.591 145.169 201.594 145.128 201.601 145.086C202.806 138.956 201.722 132.472 201.722 132.472C201.679 132.209 201.856 131.96 202.119 131.916C202.381 131.872 202.631 132.05 202.675 132.313C202.675 132.313 202.956 134 203.078 136.481L204.729 136.942C204.985 137.015 205.136 137.28 205.063 137.537C204.992 137.794 204.725 137.944 204.468 137.872L203.118 137.494C203.156 138.948 203.132 140.603 202.972 142.314C202.655 142.599 202.317 142.885 201.955 143.171C201.955 143.171 201.824 144.03 201.698 144.849C201.679 144.974 201.644 145.095 201.594 145.21Z" fill="#D9512E"/>
<path fill-rule="evenodd" clip-rule="evenodd" d="M146.982 103.623C158.585 93.6858 175.136 81.8135 187.193 82.6465C190.481 82.8735 199.85 84.148 208.901 90.7504C215.431 95.5133 221.013 101 226.43 106.596C229.079 109.335 230.261 113.176 229.607 116.93C228.954 120.686 226.544 123.902 223.123 125.584C220.693 126.782 217.921 127.953 214.799 128.988L203.387 113.409L206.306 111.652L198.334 104.947C198.334 104.947 196.626 113.342 186.913 115.181C182.73 115.974 174.838 116.222 169.966 108.8C169.966 108.8 164.993 112.751 158.873 117.848L146.982 103.623Z" fill="#192CD1"/>
<path fill-rule="evenodd" clip-rule="evenodd" d="M134.058 135.649L135.468 133.684C135.622 133.467 135.925 133.417 136.141 133.573C136.357 133.729 136.407 134.031 136.252 134.247C136.252 134.247 135.587 135.133 135.643 135.049C135.643 135.049 134.892 135.728 134.058 135.649ZM131.26 133.486L132.713 131.462C132.868 131.246 133.17 131.196 133.387 131.351C133.603 131.506 133.652 131.808 133.498 132.026L132.877 132.89C132.82 132.941 132.088 133.578 131.26 133.486ZM128.272 131.439L129.874 129.206C130.03 128.99 130.331 128.939 130.547 129.095C130.765 129.25 130.814 129.552 130.658 129.768L130.003 130.683C129.906 130.775 129.116 131.503 128.272 131.439Z" fill="#D9512E"/>
<path d="M185.609 80.5259C189.595 80.5259 192.826 77.2947 192.826 73.3087C192.826 69.3228 189.595 66.0916 185.609 66.0916C181.623 66.0916 178.392 69.3228 178.392 73.3087C178.392 77.2947 181.623 80.5259 185.609 80.5259Z" fill="#E9673C"/>
<path fill-rule="evenodd" clip-rule="evenodd" d="M182.026 67.0437C183.081 66.438 184.305 66.0916 185.609 66.0916C189.593 66.0916 192.827 69.3255 192.827 73.3087C192.827 75.9819 191.37 78.3176 189.208 79.5647L186.908 75.5541C187.38 75.6995 187.926 75.6509 188.408 75.3764C189.296 74.8714 189.634 73.7911 189.164 72.9657C188.695 72.1404 187.592 71.8802 186.705 72.3854C186.22 72.6618 185.898 73.1105 185.784 73.5956L182.026 67.0437Z" fill="black"/>
<path fill-rule="evenodd" clip-rule="evenodd" d="M206.163 111.532L206.19 111.516C206.19 111.516 208.706 113.657 210.186 114.914C210.273 114.988 210.294 115.112 210.236 115.21C210.178 115.308 210.057 115.35 209.952 115.308L204.041 113.014L206.305 111.652L206.163 111.532ZM169.265 109.36L174.955 104.524C175.104 104.397 175.321 104.389 175.479 104.505C175.636 104.621 175.694 104.831 175.617 105.011L172.666 111.944C171.701 111.091 170.79 110.056 169.966 108.8C169.966 108.8 169.717 108.997 169.265 109.36ZM198.348 104.959C198.807 103.08 199.281 100.015 199.101 96.2139C199.093 96.0504 199.201 95.904 199.36 95.8631C199.518 95.8221 199.683 95.898 199.756 96.0446C200.784 98.1546 202.397 102.481 201.647 107.734L198.348 104.959Z" fill="#020736"/>
<path fill-rule="evenodd" clip-rule="evenodd" d="M146.47 207.83C146.47 207.83 148.212 204.087 151.776 203.427C153.933 180.232 158.135 157.605 165.295 134.379C168.13 125.201 177.379 119.594 186.827 121.325C189.554 121.824 192.125 122.916 194.145 124.93C195.04 125.824 201.474 133.713 199.046 146.036C198.275 149.94 196.704 154.533 195.611 157.578C195.611 157.578 214.648 180.342 217.177 183.367C217.342 183.564 217.364 183.845 217.232 184.067C215.414 187.113 202.978 207.952 202.978 207.952C202.978 207.952 200.795 205.847 201.611 201.493L185.707 184.051C185.707 184.051 177.626 203.558 176.169 207.074C176.034 207.401 175.717 207.614 175.363 207.617C171.224 207.648 146.47 207.83 146.47 207.83Z" fill="#B70000"/>
<path fill-rule="evenodd" clip-rule="evenodd" d="M151.967 201.416L178.167 202.251L177.772 203.205L151.875 202.379C151.905 202.058 151.936 201.736 151.967 201.416ZM213.52 178.995L201.153 200.992L200.469 200.242L212.857 178.202L213.52 178.995ZM195.876 156.837C195.785 157.092 195.697 157.339 195.611 157.578L196.49 158.628L186.558 184.983L185.707 184.05L184.735 186.397L195.876 156.837ZM190.813 122.589C191.176 122.764 191.532 122.956 191.879 123.165C192.009 123.73 192.286 124.369 192.811 125.027C193.648 126.074 200.012 131.161 198.916 143.685C198.851 144.431 198.945 145.018 199.152 145.464C199.118 145.653 199.083 145.845 199.044 146.037C198.998 146.273 198.949 146.512 198.896 146.754C198.826 146.684 198.757 146.611 198.692 146.532C198.17 145.906 197.835 144.961 197.954 143.601C199.011 131.534 192.864 126.639 192.057 125.63C191.169 124.52 190.867 123.449 190.813 122.589Z" fill="#D9512E"/>
<path fill-rule="evenodd" clip-rule="evenodd" d="M99.04 155.213C93.5512 177.966 79.3384 203.771 79.3384 203.771C81.9773 203.514 84.9076 207.983 84.9076 207.983C84.9076 207.983 58.2604 207.983 50.5754 207.983C50.1215 207.983 49.698 207.755 49.4483 207.376C49.1985 206.996 49.156 206.517 49.3351 206.101C58.8768 183.624 66.068 155.141 66.9905 150.799C73.3312 120.957 84.3156 120.672 89.0572 121.601C90.4042 121.864 91.6222 122.25 92.7135 122.747C104.069 125.193 121.572 133.097 131.162 140.287C134.171 142.56 135.608 146.36 134.852 150.055C133.211 158.131 129.821 165.576 125.871 173.8C129.774 175.843 130.766 178.368 130.766 178.368C130.766 178.368 110.608 176.798 105.82 176.426C105.567 176.405 105.334 176.276 105.183 176.071C105.032 175.867 104.978 175.606 105.035 175.358C105.871 171.672 108.761 158.947 108.761 158.947C105.291 158.017 102.005 156.837 99.04 155.213Z" fill="#D46666"/>
<path fill-rule="evenodd" clip-rule="evenodd" d="M53.3499 195.969L82.5199 197.654C82.3145 198.065 82.1164 198.456 81.9266 198.83L52.9067 197.154C53.055 196.76 53.2025 196.365 53.3499 195.969ZM127.477 170.423L106.177 170.321L106.451 169.116L128.039 169.218C127.854 169.618 127.667 170.02 127.477 170.423ZM88.3662 121.483C88.6084 121.517 88.8392 121.557 89.0569 121.6C90.4039 121.864 91.6219 122.25 92.7132 122.747C93.1791 122.847 93.6547 122.957 94.14 123.076C95.2831 123.97 96.4758 125.145 97.5731 126.682C101.097 131.623 103.665 140.381 100.08 155.757C99.729 155.581 99.3825 155.4 99.0397 155.213C98.7971 156.219 98.5375 157.23 98.2635 158.243C98.2515 158.163 98.2551 158.08 98.2768 157.998C102.629 141.574 100.185 132.424 96.5905 127.384C93.0922 122.478 88.5483 121.551 88.5483 121.551C88.4825 121.538 88.4214 121.515 88.3662 121.483Z" fill="#D46666"/>
<path fill-rule="evenodd" clip-rule="evenodd" d="M107.423 158.572V158.566C107.423 158.566 111.258 159.688 115.071 160.171C115.273 160.19 115.434 160.354 115.448 160.558C115.464 160.762 115.331 160.948 115.132 160.998C112.743 161.606 109.268 162.49 107.876 162.843L108.761 158.947C108.312 158.826 107.866 158.702 107.423 158.572Z" fill="#D46666"/>
<path fill-rule="evenodd" clip-rule="evenodd" d="M68.8782 127.171C68.8782 127.171 69.3077 128.265 70.0374 128.956C70.4502 129.347 71.2644 129.522 71.993 129.034C73.3724 128.111 74.3946 125.799 74.1639 123.299C74.1042 122.652 72.3292 117.401 67.738 114.534L71.993 112.095C71.993 112.095 81.6579 123.092 95.2637 113.636C95.2637 113.636 107.742 123.302 126.323 130.145L132.139 121.87C132.139 121.87 139.318 120.506 140.635 118.432C140.834 118.119 141.066 117.289 139.544 117.169C138.856 117.115 133.573 116.407 124.226 111.316C121.662 109.918 113.216 105.631 101.956 94.4497C99.5877 92.0975 84.5494 76.9563 61.3698 94.4497C57.3022 97.5197 41.269 109.947 33.8813 121.674C30.8176 126.551 31.3884 132.873 35.2758 137.122C35.2753 137.122 35.2753 137.122 35.2753 137.122C38.8316 141.009 44.6381 141.844 49.1451 139.116C57.2736 134.196 68.8782 127.171 68.8782 127.171Z" fill="#F7B351"/>
<path fill-rule="evenodd" clip-rule="evenodd" d="M68.7544 127.245L70.6128 126.004C70.8951 125.828 71.2679 125.914 71.4447 126.196C71.6214 126.479 71.5357 126.85 71.2534 127.028L69.4097 128.182C69.068 127.654 68.8781 127.17 68.8781 127.17L68.7544 127.245ZM132.092 121.935L132.052 121.993C132.004 122.001 131.979 122.007 131.979 122.007L131.07 123.3C130.045 123.442 129.191 123.553 129.191 123.553C128.86 123.595 128.558 123.361 128.515 123.03C128.473 122.7 128.707 122.397 129.037 122.355C129.037 122.355 130.649 122.148 132.092 121.935Z" fill="#B87515"/>
<path fill-rule="evenodd" clip-rule="evenodd" d="M64.6639 129.702L49.145 139.109C44.6388 141.841 38.8304 141.008 35.2733 137.12C35.2733 137.12 35.2732 137.12 35.2738 137.12C31.3878 132.872 30.8171 126.552 33.8792 121.678C41.2659 109.951 57.3018 97.5199 61.37 94.4497C84.5495 76.9563 99.5878 92.0975 101.956 94.4497C113.216 105.631 121.663 109.918 124.227 111.316C125.542 112.032 126.776 112.662 127.929 113.215L118.792 127.093C104.448 120.751 95.2639 113.636 95.2639 113.636C81.6581 123.092 71.9932 112.095 71.9932 112.095L67.7279 114.558C62.6074 110.834 56.0772 115.247 56.0772 115.247L64.6639 129.702Z" fill="#6976EF"/>
<path fill-rule="evenodd" clip-rule="evenodd" d="M56.1807 115.18C56.1129 115.224 56.0776 115.247 56.0776 115.247L56.6904 116.279C51.5076 119.217 46.3109 122.378 41.0773 125.623C40.7942 125.798 40.4218 125.711 40.2463 125.428C40.0708 125.145 40.1582 124.772 40.4413 124.597C45.7173 121.326 50.956 118.14 56.1807 115.18ZM94.9866 113.827C95.9378 112.916 99.2695 109.302 100.341 102.519C100.364 102.373 100.487 102.263 100.635 102.258C100.783 102.252 100.914 102.352 100.947 102.496C101.248 104.234 101.503 107.21 100.729 110.838C100.372 112.509 99.797 114.32 98.9086 116.21C96.5498 114.632 95.2642 113.636 95.2642 113.636C95.1725 113.7 95.0796 113.764 94.9866 113.827ZM68.7412 113.973C67.6549 111.433 67.7748 109.139 68.0253 107.76C68.0648 107.548 68.2344 107.382 68.4487 107.348C68.6631 107.313 68.8756 107.418 68.9792 107.609C70.1834 109.882 71.3371 111.358 71.9833 112.101L68.7412 113.973Z" fill="#6976EF"/>
<path fill-rule="evenodd" clip-rule="evenodd" d="M144.103 125.401C143.595 124.789 143.532 123.892 144.007 123.206C144.577 122.38 145.71 122.173 146.536 122.744L149.331 124.675C150.156 125.245 150.363 126.378 149.793 127.204C149.273 127.956 148.286 128.194 147.491 127.799C147.932 128.397 147.969 129.232 147.523 129.877C147.014 130.616 146.047 130.851 145.266 130.466C145.702 131.052 145.739 131.876 145.3 132.511C144.8 133.235 143.852 133.467 143.085 133.091C143.515 133.67 143.552 134.481 143.121 135.105C142.579 135.889 141.502 136.086 140.717 135.544L138.478 133.997C137.695 133.455 137.497 132.378 138.039 131.594C138.503 130.923 139.359 130.682 140.088 130.967C139.596 130.376 139.536 129.507 139.993 128.845C140.465 128.161 141.337 127.916 142.078 128.207C141.578 127.606 141.516 126.723 141.982 126.049C142.463 125.354 143.349 125.105 144.103 125.401Z" fill="#F7B351"/>
<path fill-rule="evenodd" clip-rule="evenodd" d="M139.71 129.53L144.633 133.088C144.155 133.323 143.582 133.335 143.085 133.091C143.117 133.135 140.062 130.957 140.089 130.967C139.754 130.566 139.619 130.036 139.71 129.53ZM141.684 126.805C141.694 126.811 141.703 126.817 141.711 126.823L146.741 130.456C146.757 130.467 146.771 130.479 146.785 130.492C146.31 130.705 145.751 130.705 145.266 130.466C145.317 130.535 142.018 128.183 142.078 128.207C141.752 127.815 141.612 127.302 141.684 126.805ZM143.709 123.945C143.731 123.956 143.751 123.969 143.772 123.983L148.802 127.617C148.887 127.678 148.947 127.763 148.977 127.856C148.506 128.045 147.964 128.035 147.491 127.799C147.52 127.839 144.089 125.395 144.104 125.401C143.766 124.993 143.624 124.459 143.709 123.945Z" fill="#F7B351"/>
<path fill-rule="evenodd" clip-rule="evenodd" d="M198.613 184.877C198.613 184.109 197.992 183.488 197.225 183.488C191.366 183.488 168.697 183.488 162.839 183.488C162.072 183.488 161.451 184.109 161.451 184.877C161.451 190.175 161.451 208.826 161.451 208.826H198.613V184.877Z" fill="black"/>
<path fill-rule="evenodd" clip-rule="evenodd" d="M173.124 183.488V180.144C173.124 179.514 173.635 179.003 174.265 179.003H185.798C186.429 179.003 186.939 179.514 186.939 180.144V183.488H184.658V181.285H175.406V183.488H173.124Z" fill="black"/>
<path fill-rule="evenodd" clip-rule="evenodd" d="M198.272 183.966C198.484 184.209 198.613 184.528 198.613 184.877V185.199L181.57 197.1C180.646 197.745 179.418 197.746 178.493 197.103L161.451 185.239V184.877C161.451 184.54 161.57 184.231 161.769 183.991L179.183 196.112C179.693 196.467 180.37 196.465 180.878 196.11L198.272 183.966Z" fill="white"/>
</svg>
