<svg width="289" height="52" viewBox="0 0 289 52" fill="none" xmlns="http://www.w3.org/2000/svg">
<path d="M62.4606 17.2229V11.1999C62.4278 8.20147 61.2072 5.3384 59.0663 3.23876C56.9254 1.13911 54.0391 -0.0256747 51.0406 -7.48887e-05H11.9406C8.94175 -0.0256791 6.05517 1.13901 3.9138 3.23857C1.77244 5.33813 0.551093 8.20119 0.517578 11.1999V39.9859C0.551356 42.9846 1.77279 45.8475 3.91409 47.947C6.0554 50.0465 8.94182 51.2113 11.9406 51.1859H51.0406C54.0393 51.2113 56.9257 50.0465 59.067 47.947C61.2084 45.8475 62.4298 42.9846 62.4636 39.9859V33.9659H58.6946V39.9859C58.6724 41.9955 57.8542 43.9143 56.4194 45.3216C54.9846 46.7289 53.0502 47.5097 51.0406 47.4929H11.9406C9.93089 47.5097 7.99657 46.7289 6.56175 45.3216C5.12694 43.9143 4.30874 41.9955 4.28658 39.9859V11.1999C4.30874 9.19031 5.12694 7.2715 6.56175 5.86424C7.99657 4.45698 9.93089 3.67612 11.9406 3.69292H51.0406C53.0502 3.67612 54.9846 4.45698 56.4194 5.86424C57.8542 7.2715 58.6724 9.19031 58.6946 11.1999V17.2229H62.4606Z" fill="white"/>
<path d="M65.2337 22.229H46.6627C46.3577 22.2298 46.0654 22.3513 45.8497 22.567C45.634 22.7826 45.5125 23.075 45.5117 23.38V27.814C45.5125 28.119 45.634 28.4113 45.8497 28.627C46.0654 28.8426 46.3577 28.9642 46.6627 28.965H65.2337C65.539 28.965 65.8318 28.8437 66.0476 28.6279C66.2635 28.412 66.3847 28.1192 66.3847 27.814V23.38C66.3847 23.0747 66.2635 22.782 66.0476 22.5661C65.8318 22.3502 65.539 22.229 65.2337 22.229ZM49.4397 27.841C48.9959 27.841 48.562 27.7093 48.193 27.4628C47.824 27.2162 47.5364 26.8657 47.3665 26.4557C47.1967 26.0457 47.1522 25.5945 47.2388 25.1592C47.3254 24.7239 47.5391 24.3241 47.853 24.0103C48.1668 23.6964 48.5666 23.4827 49.0019 23.3961C49.4372 23.3095 49.8884 23.354 50.2985 23.5238C50.7085 23.6936 51.059 23.9813 51.3055 24.3503C51.5521 24.7193 51.6837 25.1532 51.6837 25.597C51.684 25.8917 51.6261 26.1837 51.5134 26.4561C51.4007 26.7284 51.2355 26.9759 51.027 27.1843C50.8186 27.3928 50.5711 27.558 50.2988 27.6707C50.0264 27.7834 49.7345 27.8413 49.4397 27.841Z" fill="white"/>
<path d="M82.6604 37V13.2H86.4004L94.0164 31.424L101.598 13.2H105.338V37H101.598V21.258L95.4784 37H92.5204L86.4004 21.088V37H82.6604ZM116.877 37.408C114.407 37.408 112.491 36.626 111.131 35.062C109.771 33.498 109.091 31.5033 109.091 29.078C109.091 26.6753 109.805 24.692 111.233 23.128C112.661 21.5413 114.577 20.748 116.979 20.748C118.045 20.748 119.019 20.9747 119.903 21.428C120.787 21.8813 121.467 22.5047 121.943 23.298V21.156H125.649V37H121.943V34.858C121.49 35.6287 120.776 36.252 119.801 36.728C118.849 37.1813 117.875 37.408 116.877 37.408ZM117.421 34.11C118.94 34.11 120.096 33.634 120.889 32.682C121.705 31.73 122.113 30.5287 122.113 29.078C122.113 27.6273 121.705 26.426 120.889 25.474C120.096 24.522 118.94 24.046 117.421 24.046C115.993 24.046 114.86 24.522 114.021 25.474C113.205 26.4033 112.797 27.6047 112.797 29.078C112.797 30.5513 113.205 31.764 114.021 32.716C114.86 33.6453 115.993 34.11 117.421 34.11ZM130.402 37V21.156H134.108V24.216C134.38 23.1507 134.913 22.346 135.706 21.802C136.5 21.2353 137.372 20.952 138.324 20.952C138.936 20.952 139.424 20.9973 139.786 21.088V24.488C139.401 24.4427 138.914 24.42 138.324 24.42C137.01 24.42 135.978 24.9073 135.23 25.882C134.482 26.834 134.108 28.2053 134.108 29.996V37H130.402ZM148.786 37.408C146.315 37.408 144.4 36.626 143.04 35.062C141.68 33.498 141 31.5033 141 29.078C141 26.6753 141.714 24.692 143.142 23.128C144.57 21.5413 146.485 20.748 148.888 20.748C149.953 20.748 150.928 20.9747 151.812 21.428C152.696 21.8813 153.376 22.5047 153.852 23.298V21.156H157.558V37H153.852V34.858C153.398 35.6287 152.684 36.252 151.71 36.728C150.758 37.1813 149.783 37.408 148.786 37.408ZM149.33 34.11C150.848 34.11 152.004 33.634 152.798 32.682C153.614 31.73 154.022 30.5287 154.022 29.078C154.022 27.6273 153.614 26.426 152.798 25.474C152.004 24.522 150.848 24.046 149.33 24.046C147.902 24.046 146.768 24.522 145.93 25.474C145.114 26.4033 144.706 27.6047 144.706 29.078C144.706 30.5513 145.114 31.764 145.93 32.716C146.768 33.6453 147.902 34.11 149.33 34.11ZM167.853 37.408C165.858 37.408 164.237 36.898 162.991 35.878C161.744 34.858 161.121 33.6113 161.121 32.138H164.827C164.827 32.818 165.121 33.3733 165.711 33.804C166.323 34.2347 167.105 34.45 168.057 34.45C168.759 34.45 169.315 34.28 169.723 33.94C170.131 33.6 170.335 33.1467 170.335 32.58C170.335 31.6733 169.938 31.118 169.145 30.914L165.065 29.792C162.775 29.1573 161.631 27.6953 161.631 25.406C161.631 24.0913 162.197 22.992 163.331 22.108C164.464 21.2013 165.926 20.748 167.717 20.748C169.734 20.748 171.275 21.2013 172.341 22.108C173.429 23.0147 173.973 24.2047 173.973 25.678H170.335C170.335 25.0207 170.085 24.5107 169.587 24.148C169.111 23.7627 168.442 23.57 167.581 23.57C166.923 23.57 166.379 23.7287 165.949 24.046C165.518 24.3407 165.303 24.726 165.303 25.202C165.303 26.0633 165.756 26.63 166.663 26.902L170.437 27.99C171.525 28.3073 172.409 28.8513 173.089 29.622C173.769 30.37 174.109 31.2427 174.109 32.24C174.109 33.7813 173.553 35.028 172.443 35.98C171.355 36.932 169.825 37.408 167.853 37.408ZM191.11 35.062C189.614 36.626 187.585 37.408 185.024 37.408C182.462 37.408 180.422 36.626 178.904 35.062C177.408 33.4753 176.66 31.4807 176.66 29.078C176.66 26.6753 177.408 24.692 178.904 23.128C180.422 21.5413 182.462 20.748 185.024 20.748C187.585 20.748 189.614 21.5413 191.11 23.128C192.628 24.692 193.388 26.6753 193.388 29.078C193.388 31.4807 192.628 33.4753 191.11 35.062ZM181.59 32.716C182.428 33.6453 183.573 34.11 185.024 34.11C186.474 34.11 187.608 33.6453 188.424 32.716C189.262 31.7867 189.682 30.574 189.682 29.078C189.682 27.582 189.262 26.3693 188.424 25.44C187.608 24.5107 186.474 24.046 185.024 24.046C183.573 24.046 182.428 24.5107 181.59 25.44C180.774 26.3693 180.366 27.582 180.366 29.078C180.366 30.574 180.774 31.7867 181.59 32.716ZM204.531 16.294C204.191 16.294 203.885 16.3167 203.613 16.362C203.364 16.4073 203.081 16.5093 202.763 16.668C202.469 16.804 202.242 17.0533 202.083 17.416C201.925 17.7787 201.845 18.232 201.845 18.776V21.156H205.993V24.25H201.845V37H198.139V24.25H194.909V21.156H198.139V18.844C198.139 17.6427 198.332 16.634 198.717 15.818C199.103 14.9793 199.601 14.3787 200.213 14.016C200.848 13.6307 201.426 13.37 201.947 13.234C202.469 13.0753 202.99 12.996 203.511 12.996C204.554 12.996 205.381 13.098 205.993 13.302V16.43C205.88 16.43 205.653 16.4073 205.313 16.362C204.996 16.3167 204.735 16.294 204.531 16.294ZM216.567 33.872C217.315 33.872 217.938 33.8267 218.437 33.736V37C217.666 37.136 216.748 37.204 215.683 37.204C215.071 37.204 214.538 37.1587 214.085 37.068C213.631 36.9773 213.099 36.7733 212.487 36.456C211.875 36.116 211.399 35.538 211.059 34.722C210.719 33.906 210.549 32.8747 210.549 31.628V24.25H207.863V21.156H210.549V16.362H214.255V21.156H217.893V24.25H214.255V30.778C214.255 32.0473 214.436 32.886 214.799 33.294C215.161 33.6793 215.751 33.872 216.567 33.872ZM239.286 13.2C241.666 13.2 243.615 13.982 245.134 15.546C246.675 17.11 247.446 19.1047 247.446 21.53C247.446 23.9553 246.675 25.95 245.134 27.514C243.615 29.078 241.666 29.86 239.286 29.86H234.424V37H230.514V13.2H239.286ZM239.048 26.358C240.34 26.358 241.405 25.9047 242.244 24.998C243.105 24.0687 243.536 22.9127 243.536 21.53C243.536 20.1473 243.105 19.0027 242.244 18.096C241.405 17.1667 240.34 16.702 239.048 16.702H234.424V26.358H239.048ZM256.762 37.408C254.291 37.408 252.376 36.626 251.016 35.062C249.656 33.498 248.976 31.5033 248.976 29.078C248.976 26.6753 249.69 24.692 251.118 23.128C252.546 21.5413 254.461 20.748 256.864 20.748C257.929 20.748 258.904 20.9747 259.788 21.428C260.672 21.8813 261.352 22.5047 261.828 23.298V21.156H265.534V37H261.828V34.858C261.375 35.6287 260.661 36.252 259.686 36.728C258.734 37.1813 257.759 37.408 256.762 37.408ZM257.306 34.11C258.825 34.11 259.981 33.634 260.774 32.682C261.59 31.73 261.998 30.5287 261.998 29.078C261.998 27.6273 261.59 26.426 260.774 25.474C259.981 24.522 258.825 24.046 257.306 24.046C255.878 24.046 254.745 24.522 253.906 25.474C253.09 26.4033 252.682 27.6047 252.682 29.078C252.682 30.5513 253.09 31.764 253.906 32.716C254.745 33.6453 255.878 34.11 257.306 34.11ZM281.065 21.156H284.771V37.068C284.771 39.4933 284.08 41.3747 282.697 42.712C281.36 43.936 279.569 44.548 277.325 44.548C274.991 44.548 273.177 44.004 271.885 42.916C270.752 41.9187 270.163 40.5473 270.117 38.802H273.857C273.948 39.7087 274.243 40.3773 274.741 40.808C275.263 41.2613 276.101 41.488 277.257 41.488C278.436 41.488 279.365 41.1027 280.045 40.332C280.725 39.584 281.065 38.4053 281.065 36.796V34.79C280.045 36.5353 278.345 37.408 275.965 37.408C274.084 37.408 272.633 36.8073 271.613 35.606C270.616 34.382 270.117 32.784 270.117 30.812V21.156H273.823V30.03C273.823 32.7727 274.968 34.144 277.257 34.144C278.504 34.144 279.445 33.702 280.079 32.818C280.737 31.934 281.065 30.778 281.065 29.35V21.156Z" fill="white"/>
</svg>
